G04 #@! TF.GenerationSoftware,KiCad,Pcbnew,5.1.5+dfsg1-2build2*
G04 #@! TF.CreationDate,2022-01-03T21:16:55-05:00*
G04 #@! TF.ProjectId,LM75A_PROBE_PCB,4c4d3735-415f-4505-924f-42455f504342,rev?*
G04 #@! TF.SameCoordinates,Original*
G04 #@! TF.FileFunction,Copper,L2,Bot*
G04 #@! TF.FilePolarity,Positive*
%FSLAX46Y46*%
G04 Gerber Fmt 4.6, Leading zero omitted, Abs format (unit mm)*
G04 Created by KiCad (PCBNEW 5.1.5+dfsg1-2build2) date 2022-01-03 21:16:55*
%MOMM*%
%LPD*%
G04 APERTURE LIST*
%ADD10R,0.600000X5.000000*%
%ADD11C,0.100000*%
%ADD12R,1.500000X1.000000*%
%ADD13C,0.800000*%
%ADD14C,0.250000*%
%ADD15C,0.254000*%
G04 APERTURE END LIST*
D10*
X103632000Y-131000000D03*
X101892000Y-131000000D03*
G04 #@! TA.AperFunction,SMDPad,CuDef*
D11*
G36*
X102000000Y-117296000D02*
G01*
X102000000Y-116746000D01*
X102000602Y-116746000D01*
X102000602Y-116721466D01*
X102005412Y-116672635D01*
X102014984Y-116624510D01*
X102029228Y-116577555D01*
X102048005Y-116532222D01*
X102071136Y-116488949D01*
X102098396Y-116448150D01*
X102129524Y-116410221D01*
X102164221Y-116375524D01*
X102202150Y-116344396D01*
X102242949Y-116317136D01*
X102286222Y-116294005D01*
X102331555Y-116275228D01*
X102378510Y-116260984D01*
X102426635Y-116251412D01*
X102475466Y-116246602D01*
X102500000Y-116246602D01*
X102500000Y-116246000D01*
X103000000Y-116246000D01*
X103000000Y-116246602D01*
X103024534Y-116246602D01*
X103073365Y-116251412D01*
X103121490Y-116260984D01*
X103168445Y-116275228D01*
X103213778Y-116294005D01*
X103257051Y-116317136D01*
X103297850Y-116344396D01*
X103335779Y-116375524D01*
X103370476Y-116410221D01*
X103401604Y-116448150D01*
X103428864Y-116488949D01*
X103451995Y-116532222D01*
X103470772Y-116577555D01*
X103485016Y-116624510D01*
X103494588Y-116672635D01*
X103499398Y-116721466D01*
X103499398Y-116746000D01*
X103500000Y-116746000D01*
X103500000Y-117296000D01*
X102000000Y-117296000D01*
G37*
G04 #@! TD.AperFunction*
G04 #@! TA.AperFunction,SMDPad,CuDef*
G36*
X103499398Y-119346000D02*
G01*
X103499398Y-119370534D01*
X103494588Y-119419365D01*
X103485016Y-119467490D01*
X103470772Y-119514445D01*
X103451995Y-119559778D01*
X103428864Y-119603051D01*
X103401604Y-119643850D01*
X103370476Y-119681779D01*
X103335779Y-119716476D01*
X103297850Y-119747604D01*
X103257051Y-119774864D01*
X103213778Y-119797995D01*
X103168445Y-119816772D01*
X103121490Y-119831016D01*
X103073365Y-119840588D01*
X103024534Y-119845398D01*
X103000000Y-119845398D01*
X103000000Y-119846000D01*
X102500000Y-119846000D01*
X102500000Y-119845398D01*
X102475466Y-119845398D01*
X102426635Y-119840588D01*
X102378510Y-119831016D01*
X102331555Y-119816772D01*
X102286222Y-119797995D01*
X102242949Y-119774864D01*
X102202150Y-119747604D01*
X102164221Y-119716476D01*
X102129524Y-119681779D01*
X102098396Y-119643850D01*
X102071136Y-119603051D01*
X102048005Y-119559778D01*
X102029228Y-119514445D01*
X102014984Y-119467490D01*
X102005412Y-119419365D01*
X102000602Y-119370534D01*
X102000602Y-119346000D01*
X102000000Y-119346000D01*
X102000000Y-118796000D01*
X103500000Y-118796000D01*
X103500000Y-119346000D01*
X103499398Y-119346000D01*
G37*
G04 #@! TD.AperFunction*
D12*
X102750000Y-118046000D03*
G04 #@! TA.AperFunction,SMDPad,CuDef*
D11*
G36*
X103314000Y-112650000D02*
G01*
X103314000Y-112100000D01*
X103314602Y-112100000D01*
X103314602Y-112075466D01*
X103319412Y-112026635D01*
X103328984Y-111978510D01*
X103343228Y-111931555D01*
X103362005Y-111886222D01*
X103385136Y-111842949D01*
X103412396Y-111802150D01*
X103443524Y-111764221D01*
X103478221Y-111729524D01*
X103516150Y-111698396D01*
X103556949Y-111671136D01*
X103600222Y-111648005D01*
X103645555Y-111629228D01*
X103692510Y-111614984D01*
X103740635Y-111605412D01*
X103789466Y-111600602D01*
X103814000Y-111600602D01*
X103814000Y-111600000D01*
X104314000Y-111600000D01*
X104314000Y-111600602D01*
X104338534Y-111600602D01*
X104387365Y-111605412D01*
X104435490Y-111614984D01*
X104482445Y-111629228D01*
X104527778Y-111648005D01*
X104571051Y-111671136D01*
X104611850Y-111698396D01*
X104649779Y-111729524D01*
X104684476Y-111764221D01*
X104715604Y-111802150D01*
X104742864Y-111842949D01*
X104765995Y-111886222D01*
X104784772Y-111931555D01*
X104799016Y-111978510D01*
X104808588Y-112026635D01*
X104813398Y-112075466D01*
X104813398Y-112100000D01*
X104814000Y-112100000D01*
X104814000Y-112650000D01*
X103314000Y-112650000D01*
G37*
G04 #@! TD.AperFunction*
G04 #@! TA.AperFunction,SMDPad,CuDef*
G36*
X104813398Y-114700000D02*
G01*
X104813398Y-114724534D01*
X104808588Y-114773365D01*
X104799016Y-114821490D01*
X104784772Y-114868445D01*
X104765995Y-114913778D01*
X104742864Y-114957051D01*
X104715604Y-114997850D01*
X104684476Y-115035779D01*
X104649779Y-115070476D01*
X104611850Y-115101604D01*
X104571051Y-115128864D01*
X104527778Y-115151995D01*
X104482445Y-115170772D01*
X104435490Y-115185016D01*
X104387365Y-115194588D01*
X104338534Y-115199398D01*
X104314000Y-115199398D01*
X104314000Y-115200000D01*
X103814000Y-115200000D01*
X103814000Y-115199398D01*
X103789466Y-115199398D01*
X103740635Y-115194588D01*
X103692510Y-115185016D01*
X103645555Y-115170772D01*
X103600222Y-115151995D01*
X103556949Y-115128864D01*
X103516150Y-115101604D01*
X103478221Y-115070476D01*
X103443524Y-115035779D01*
X103412396Y-114997850D01*
X103385136Y-114957051D01*
X103362005Y-114913778D01*
X103343228Y-114868445D01*
X103328984Y-114821490D01*
X103319412Y-114773365D01*
X103314602Y-114724534D01*
X103314602Y-114700000D01*
X103314000Y-114700000D01*
X103314000Y-114150000D01*
X104814000Y-114150000D01*
X104814000Y-114700000D01*
X104813398Y-114700000D01*
G37*
G04 #@! TD.AperFunction*
D12*
X104064000Y-113400000D03*
G04 #@! TA.AperFunction,SMDPad,CuDef*
D11*
G36*
X100698000Y-112650000D02*
G01*
X100698000Y-112100000D01*
X100698602Y-112100000D01*
X100698602Y-112075466D01*
X100703412Y-112026635D01*
X100712984Y-111978510D01*
X100727228Y-111931555D01*
X100746005Y-111886222D01*
X100769136Y-111842949D01*
X100796396Y-111802150D01*
X100827524Y-111764221D01*
X100862221Y-111729524D01*
X100900150Y-111698396D01*
X100940949Y-111671136D01*
X100984222Y-111648005D01*
X101029555Y-111629228D01*
X101076510Y-111614984D01*
X101124635Y-111605412D01*
X101173466Y-111600602D01*
X101198000Y-111600602D01*
X101198000Y-111600000D01*
X101698000Y-111600000D01*
X101698000Y-111600602D01*
X101722534Y-111600602D01*
X101771365Y-111605412D01*
X101819490Y-111614984D01*
X101866445Y-111629228D01*
X101911778Y-111648005D01*
X101955051Y-111671136D01*
X101995850Y-111698396D01*
X102033779Y-111729524D01*
X102068476Y-111764221D01*
X102099604Y-111802150D01*
X102126864Y-111842949D01*
X102149995Y-111886222D01*
X102168772Y-111931555D01*
X102183016Y-111978510D01*
X102192588Y-112026635D01*
X102197398Y-112075466D01*
X102197398Y-112100000D01*
X102198000Y-112100000D01*
X102198000Y-112650000D01*
X100698000Y-112650000D01*
G37*
G04 #@! TD.AperFunction*
G04 #@! TA.AperFunction,SMDPad,CuDef*
G36*
X102197398Y-114700000D02*
G01*
X102197398Y-114724534D01*
X102192588Y-114773365D01*
X102183016Y-114821490D01*
X102168772Y-114868445D01*
X102149995Y-114913778D01*
X102126864Y-114957051D01*
X102099604Y-114997850D01*
X102068476Y-115035779D01*
X102033779Y-115070476D01*
X101995850Y-115101604D01*
X101955051Y-115128864D01*
X101911778Y-115151995D01*
X101866445Y-115170772D01*
X101819490Y-115185016D01*
X101771365Y-115194588D01*
X101722534Y-115199398D01*
X101698000Y-115199398D01*
X101698000Y-115200000D01*
X101198000Y-115200000D01*
X101198000Y-115199398D01*
X101173466Y-115199398D01*
X101124635Y-115194588D01*
X101076510Y-115185016D01*
X101029555Y-115170772D01*
X100984222Y-115151995D01*
X100940949Y-115128864D01*
X100900150Y-115101604D01*
X100862221Y-115070476D01*
X100827524Y-115035779D01*
X100796396Y-114997850D01*
X100769136Y-114957051D01*
X100746005Y-114913778D01*
X100727228Y-114868445D01*
X100712984Y-114821490D01*
X100703412Y-114773365D01*
X100698602Y-114724534D01*
X100698602Y-114700000D01*
X100698000Y-114700000D01*
X100698000Y-114150000D01*
X102198000Y-114150000D01*
X102198000Y-114700000D01*
X102197398Y-114700000D01*
G37*
G04 #@! TD.AperFunction*
D12*
X101448000Y-113400000D03*
D13*
X104709000Y-115863100D03*
X102037300Y-106231600D03*
X104820500Y-106111200D03*
X104124300Y-117131800D03*
X100710000Y-116174200D03*
X104534000Y-134215800D03*
X101319900Y-119463100D03*
X101333000Y-126770000D03*
D14*
X103173300Y-119346000D02*
X102750000Y-119346000D01*
X104709000Y-115863100D02*
X104879800Y-116033900D01*
X104879800Y-116033900D02*
X104879800Y-117639500D01*
X104879800Y-117639500D02*
X103173300Y-119346000D01*
X103173300Y-119346000D02*
X103632000Y-119804700D01*
X103632000Y-119804700D02*
X103632000Y-131000000D01*
X104064000Y-114700000D02*
X104064000Y-115218100D01*
X104064000Y-115218100D02*
X104709000Y-115863100D01*
X101448000Y-114700000D02*
X101448000Y-118471300D01*
X101448000Y-118471300D02*
X102322700Y-119346000D01*
X102322700Y-119346000D02*
X102750000Y-119346000D01*
X101448000Y-113400000D02*
X100372700Y-113400000D01*
X100372700Y-113400000D02*
X100372700Y-107896200D01*
X100372700Y-107896200D02*
X102037300Y-106231600D01*
X102750000Y-112100000D02*
X104064000Y-112100000D01*
X101448000Y-112100000D02*
X102750000Y-112100000D01*
X102750000Y-112100000D02*
X102750000Y-116746000D01*
X104064000Y-113400000D02*
X105139300Y-113400000D01*
X105139300Y-113400000D02*
X105139300Y-106430000D01*
X105139300Y-106430000D02*
X104820500Y-106111200D01*
X102750000Y-118046000D02*
X103825300Y-118046000D01*
X103825300Y-118046000D02*
X103825300Y-117430800D01*
X103825300Y-117430800D02*
X104124300Y-117131800D01*
X100710000Y-116174200D02*
X100514800Y-116369400D01*
X100514800Y-116369400D02*
X100514800Y-132885700D01*
X100514800Y-132885700D02*
X101844900Y-134215800D01*
X101844900Y-134215800D02*
X104534000Y-134215800D01*
X101333000Y-126770000D02*
X101333000Y-119476200D01*
X101333000Y-119476200D02*
X101319900Y-119463100D01*
X101892000Y-128174700D02*
X101333000Y-127615700D01*
X101333000Y-127615700D02*
X101333000Y-126770000D01*
X101892000Y-131000000D02*
X101892000Y-128174700D01*
D15*
G36*
X104840001Y-133222274D02*
G01*
X104835898Y-133220574D01*
X104635939Y-133180800D01*
X104569629Y-133180800D01*
X104567000Y-131285750D01*
X104408250Y-131127000D01*
X103759000Y-131127000D01*
X103759000Y-131147000D01*
X103505000Y-131147000D01*
X103505000Y-131127000D01*
X103485000Y-131127000D01*
X103485000Y-130873000D01*
X103505000Y-130873000D01*
X103505000Y-128023750D01*
X103759000Y-128023750D01*
X103759000Y-130873000D01*
X104408250Y-130873000D01*
X104567000Y-130714250D01*
X104570072Y-128500000D01*
X104557812Y-128375518D01*
X104521502Y-128255820D01*
X104462537Y-128145506D01*
X104383185Y-128048815D01*
X104286494Y-127969463D01*
X104176180Y-127910498D01*
X104056482Y-127874188D01*
X103932000Y-127861928D01*
X103917750Y-127865000D01*
X103759000Y-128023750D01*
X103505000Y-128023750D01*
X103346250Y-127865000D01*
X103332000Y-127861928D01*
X103207518Y-127874188D01*
X103087820Y-127910498D01*
X102977506Y-127969463D01*
X102880815Y-128048815D01*
X102801463Y-128145506D01*
X102762000Y-128219335D01*
X102722537Y-128145506D01*
X102643291Y-128048944D01*
X102641003Y-128025714D01*
X102597546Y-127882453D01*
X102526974Y-127750424D01*
X102475092Y-127687205D01*
X102455799Y-127663696D01*
X102455795Y-127663692D01*
X102432001Y-127634699D01*
X102403007Y-127610905D01*
X102170959Y-127378857D01*
X102250205Y-127260256D01*
X102328226Y-127071898D01*
X102368000Y-126871939D01*
X102368000Y-126668061D01*
X102328226Y-126468102D01*
X102250205Y-126279744D01*
X102136937Y-126110226D01*
X102093000Y-126066289D01*
X102093000Y-120153711D01*
X102123837Y-120122874D01*
X102237105Y-119953356D01*
X102315126Y-119764998D01*
X102354900Y-119565039D01*
X102354900Y-119361161D01*
X102319675Y-119184072D01*
X103500000Y-119184072D01*
X103624482Y-119171812D01*
X103744180Y-119135502D01*
X103854494Y-119076537D01*
X103951185Y-118997185D01*
X104030537Y-118900494D01*
X104089502Y-118790180D01*
X104099567Y-118757000D01*
X104117547Y-118751546D01*
X104249576Y-118680974D01*
X104365301Y-118586001D01*
X104460274Y-118470276D01*
X104530846Y-118338247D01*
X104574303Y-118194986D01*
X104587581Y-118060179D01*
X104614556Y-118049005D01*
X104784074Y-117935737D01*
X104840001Y-117879810D01*
X104840001Y-133222274D01*
G37*
X104840001Y-133222274D02*
X104835898Y-133220574D01*
X104635939Y-133180800D01*
X104569629Y-133180800D01*
X104567000Y-131285750D01*
X104408250Y-131127000D01*
X103759000Y-131127000D01*
X103759000Y-131147000D01*
X103505000Y-131147000D01*
X103505000Y-131127000D01*
X103485000Y-131127000D01*
X103485000Y-130873000D01*
X103505000Y-130873000D01*
X103505000Y-128023750D01*
X103759000Y-128023750D01*
X103759000Y-130873000D01*
X104408250Y-130873000D01*
X104567000Y-130714250D01*
X104570072Y-128500000D01*
X104557812Y-128375518D01*
X104521502Y-128255820D01*
X104462537Y-128145506D01*
X104383185Y-128048815D01*
X104286494Y-127969463D01*
X104176180Y-127910498D01*
X104056482Y-127874188D01*
X103932000Y-127861928D01*
X103917750Y-127865000D01*
X103759000Y-128023750D01*
X103505000Y-128023750D01*
X103346250Y-127865000D01*
X103332000Y-127861928D01*
X103207518Y-127874188D01*
X103087820Y-127910498D01*
X102977506Y-127969463D01*
X102880815Y-128048815D01*
X102801463Y-128145506D01*
X102762000Y-128219335D01*
X102722537Y-128145506D01*
X102643291Y-128048944D01*
X102641003Y-128025714D01*
X102597546Y-127882453D01*
X102526974Y-127750424D01*
X102475092Y-127687205D01*
X102455799Y-127663696D01*
X102455795Y-127663692D01*
X102432001Y-127634699D01*
X102403007Y-127610905D01*
X102170959Y-127378857D01*
X102250205Y-127260256D01*
X102328226Y-127071898D01*
X102368000Y-126871939D01*
X102368000Y-126668061D01*
X102328226Y-126468102D01*
X102250205Y-126279744D01*
X102136937Y-126110226D01*
X102093000Y-126066289D01*
X102093000Y-120153711D01*
X102123837Y-120122874D01*
X102237105Y-119953356D01*
X102315126Y-119764998D01*
X102354900Y-119565039D01*
X102354900Y-119361161D01*
X102319675Y-119184072D01*
X103500000Y-119184072D01*
X103624482Y-119171812D01*
X103744180Y-119135502D01*
X103854494Y-119076537D01*
X103951185Y-118997185D01*
X104030537Y-118900494D01*
X104089502Y-118790180D01*
X104099567Y-118757000D01*
X104117547Y-118751546D01*
X104249576Y-118680974D01*
X104365301Y-118586001D01*
X104460274Y-118470276D01*
X104530846Y-118338247D01*
X104574303Y-118194986D01*
X104587581Y-118060179D01*
X104614556Y-118049005D01*
X104784074Y-117935737D01*
X104840001Y-117879810D01*
X104840001Y-133222274D01*
G36*
X101361928Y-117296000D02*
G01*
X101374188Y-117420482D01*
X101374345Y-117421000D01*
X101374188Y-117421518D01*
X101361928Y-117546000D01*
X101361928Y-118428100D01*
X101274800Y-118428100D01*
X101274800Y-117041596D01*
X101361928Y-116983380D01*
X101361928Y-117296000D01*
G37*
X101361928Y-117296000D02*
X101374188Y-117420482D01*
X101374345Y-117421000D01*
X101374188Y-117421518D01*
X101361928Y-117546000D01*
X101361928Y-118428100D01*
X101274800Y-118428100D01*
X101274800Y-117041596D01*
X101361928Y-116983380D01*
X101361928Y-117296000D01*
G36*
X104840000Y-116383789D02*
G01*
X104784074Y-116327863D01*
X104614556Y-116214595D01*
X104426198Y-116136574D01*
X104226239Y-116096800D01*
X104022361Y-116096800D01*
X103942663Y-116112653D01*
X103917042Y-116074309D01*
X103837690Y-115977618D01*
X103768382Y-115908310D01*
X103671691Y-115828958D01*
X103590192Y-115774502D01*
X103510000Y-115731638D01*
X103510000Y-114538072D01*
X104814000Y-114538072D01*
X104840000Y-114535511D01*
X104840000Y-116383789D01*
G37*
X104840000Y-116383789D02*
X104784074Y-116327863D01*
X104614556Y-116214595D01*
X104426198Y-116136574D01*
X104226239Y-116096800D01*
X104022361Y-116096800D01*
X103942663Y-116112653D01*
X103917042Y-116074309D01*
X103837690Y-115977618D01*
X103768382Y-115908310D01*
X103671691Y-115828958D01*
X103590192Y-115774502D01*
X103510000Y-115731638D01*
X103510000Y-114538072D01*
X104814000Y-114538072D01*
X104840000Y-114535511D01*
X104840000Y-116383789D01*
G36*
X100698000Y-114538072D02*
G01*
X101990001Y-114538072D01*
X101990001Y-115731638D01*
X101909808Y-115774502D01*
X101828309Y-115828958D01*
X101731618Y-115908310D01*
X101715579Y-115924349D01*
X101705226Y-115872302D01*
X101627205Y-115683944D01*
X101513937Y-115514426D01*
X101369774Y-115370263D01*
X101200256Y-115256995D01*
X101011898Y-115178974D01*
X100811939Y-115139200D01*
X100660000Y-115139200D01*
X100660000Y-114534329D01*
X100698000Y-114538072D01*
G37*
X100698000Y-114538072D02*
X101990001Y-114538072D01*
X101990001Y-115731638D01*
X101909808Y-115774502D01*
X101828309Y-115828958D01*
X101731618Y-115908310D01*
X101715579Y-115924349D01*
X101705226Y-115872302D01*
X101627205Y-115683944D01*
X101513937Y-115514426D01*
X101369774Y-115370263D01*
X101200256Y-115256995D01*
X101011898Y-115178974D01*
X100811939Y-115139200D01*
X100660000Y-115139200D01*
X100660000Y-114534329D01*
X100698000Y-114538072D01*
M02*
