G04 #@! TF.GenerationSoftware,KiCad,Pcbnew,5.1.5+dfsg1-2build2*
G04 #@! TF.CreationDate,2022-01-03T21:16:55-05:00*
G04 #@! TF.ProjectId,LM75A_PROBE_PCB,4c4d3735-415f-4505-924f-42455f504342,rev?*
G04 #@! TF.SameCoordinates,Original*
G04 #@! TF.FileFunction,Copper,L1,Top*
G04 #@! TF.FilePolarity,Positive*
%FSLAX46Y46*%
G04 Gerber Fmt 4.6, Leading zero omitted, Abs format (unit mm)*
G04 Created by KiCad (PCBNEW 5.1.5+dfsg1-2build2) date 2022-01-03 21:16:55*
%MOMM*%
%LPD*%
G04 APERTURE LIST*
%ADD10R,0.600000X5.000000*%
%ADD11C,0.100000*%
%ADD12C,0.800000*%
%ADD13C,0.250000*%
%ADD14C,0.254000*%
G04 APERTURE END LIST*
D10*
X102750000Y-131000000D03*
X104534000Y-131000000D03*
X100965000Y-131000000D03*
G04 #@! TA.AperFunction,SMDPad,CuDef*
D11*
G36*
X101015703Y-103217722D02*
G01*
X101030264Y-103219882D01*
X101044543Y-103223459D01*
X101058403Y-103228418D01*
X101071710Y-103234712D01*
X101084336Y-103242280D01*
X101096159Y-103251048D01*
X101107066Y-103260934D01*
X101116952Y-103271841D01*
X101125720Y-103283664D01*
X101133288Y-103296290D01*
X101139582Y-103309597D01*
X101144541Y-103323457D01*
X101148118Y-103337736D01*
X101150278Y-103352297D01*
X101151000Y-103367000D01*
X101151000Y-105017000D01*
X101150278Y-105031703D01*
X101148118Y-105046264D01*
X101144541Y-105060543D01*
X101139582Y-105074403D01*
X101133288Y-105087710D01*
X101125720Y-105100336D01*
X101116952Y-105112159D01*
X101107066Y-105123066D01*
X101096159Y-105132952D01*
X101084336Y-105141720D01*
X101071710Y-105149288D01*
X101058403Y-105155582D01*
X101044543Y-105160541D01*
X101030264Y-105164118D01*
X101015703Y-105166278D01*
X101001000Y-105167000D01*
X100701000Y-105167000D01*
X100686297Y-105166278D01*
X100671736Y-105164118D01*
X100657457Y-105160541D01*
X100643597Y-105155582D01*
X100630290Y-105149288D01*
X100617664Y-105141720D01*
X100605841Y-105132952D01*
X100594934Y-105123066D01*
X100585048Y-105112159D01*
X100576280Y-105100336D01*
X100568712Y-105087710D01*
X100562418Y-105074403D01*
X100557459Y-105060543D01*
X100553882Y-105046264D01*
X100551722Y-105031703D01*
X100551000Y-105017000D01*
X100551000Y-103367000D01*
X100551722Y-103352297D01*
X100553882Y-103337736D01*
X100557459Y-103323457D01*
X100562418Y-103309597D01*
X100568712Y-103296290D01*
X100576280Y-103283664D01*
X100585048Y-103271841D01*
X100594934Y-103260934D01*
X100605841Y-103251048D01*
X100617664Y-103242280D01*
X100630290Y-103234712D01*
X100643597Y-103228418D01*
X100657457Y-103223459D01*
X100671736Y-103219882D01*
X100686297Y-103217722D01*
X100701000Y-103217000D01*
X101001000Y-103217000D01*
X101015703Y-103217722D01*
G37*
G04 #@! TD.AperFunction*
G04 #@! TA.AperFunction,SMDPad,CuDef*
G36*
X102285703Y-103217722D02*
G01*
X102300264Y-103219882D01*
X102314543Y-103223459D01*
X102328403Y-103228418D01*
X102341710Y-103234712D01*
X102354336Y-103242280D01*
X102366159Y-103251048D01*
X102377066Y-103260934D01*
X102386952Y-103271841D01*
X102395720Y-103283664D01*
X102403288Y-103296290D01*
X102409582Y-103309597D01*
X102414541Y-103323457D01*
X102418118Y-103337736D01*
X102420278Y-103352297D01*
X102421000Y-103367000D01*
X102421000Y-105017000D01*
X102420278Y-105031703D01*
X102418118Y-105046264D01*
X102414541Y-105060543D01*
X102409582Y-105074403D01*
X102403288Y-105087710D01*
X102395720Y-105100336D01*
X102386952Y-105112159D01*
X102377066Y-105123066D01*
X102366159Y-105132952D01*
X102354336Y-105141720D01*
X102341710Y-105149288D01*
X102328403Y-105155582D01*
X102314543Y-105160541D01*
X102300264Y-105164118D01*
X102285703Y-105166278D01*
X102271000Y-105167000D01*
X101971000Y-105167000D01*
X101956297Y-105166278D01*
X101941736Y-105164118D01*
X101927457Y-105160541D01*
X101913597Y-105155582D01*
X101900290Y-105149288D01*
X101887664Y-105141720D01*
X101875841Y-105132952D01*
X101864934Y-105123066D01*
X101855048Y-105112159D01*
X101846280Y-105100336D01*
X101838712Y-105087710D01*
X101832418Y-105074403D01*
X101827459Y-105060543D01*
X101823882Y-105046264D01*
X101821722Y-105031703D01*
X101821000Y-105017000D01*
X101821000Y-103367000D01*
X101821722Y-103352297D01*
X101823882Y-103337736D01*
X101827459Y-103323457D01*
X101832418Y-103309597D01*
X101838712Y-103296290D01*
X101846280Y-103283664D01*
X101855048Y-103271841D01*
X101864934Y-103260934D01*
X101875841Y-103251048D01*
X101887664Y-103242280D01*
X101900290Y-103234712D01*
X101913597Y-103228418D01*
X101927457Y-103223459D01*
X101941736Y-103219882D01*
X101956297Y-103217722D01*
X101971000Y-103217000D01*
X102271000Y-103217000D01*
X102285703Y-103217722D01*
G37*
G04 #@! TD.AperFunction*
G04 #@! TA.AperFunction,SMDPad,CuDef*
G36*
X103555703Y-103217722D02*
G01*
X103570264Y-103219882D01*
X103584543Y-103223459D01*
X103598403Y-103228418D01*
X103611710Y-103234712D01*
X103624336Y-103242280D01*
X103636159Y-103251048D01*
X103647066Y-103260934D01*
X103656952Y-103271841D01*
X103665720Y-103283664D01*
X103673288Y-103296290D01*
X103679582Y-103309597D01*
X103684541Y-103323457D01*
X103688118Y-103337736D01*
X103690278Y-103352297D01*
X103691000Y-103367000D01*
X103691000Y-105017000D01*
X103690278Y-105031703D01*
X103688118Y-105046264D01*
X103684541Y-105060543D01*
X103679582Y-105074403D01*
X103673288Y-105087710D01*
X103665720Y-105100336D01*
X103656952Y-105112159D01*
X103647066Y-105123066D01*
X103636159Y-105132952D01*
X103624336Y-105141720D01*
X103611710Y-105149288D01*
X103598403Y-105155582D01*
X103584543Y-105160541D01*
X103570264Y-105164118D01*
X103555703Y-105166278D01*
X103541000Y-105167000D01*
X103241000Y-105167000D01*
X103226297Y-105166278D01*
X103211736Y-105164118D01*
X103197457Y-105160541D01*
X103183597Y-105155582D01*
X103170290Y-105149288D01*
X103157664Y-105141720D01*
X103145841Y-105132952D01*
X103134934Y-105123066D01*
X103125048Y-105112159D01*
X103116280Y-105100336D01*
X103108712Y-105087710D01*
X103102418Y-105074403D01*
X103097459Y-105060543D01*
X103093882Y-105046264D01*
X103091722Y-105031703D01*
X103091000Y-105017000D01*
X103091000Y-103367000D01*
X103091722Y-103352297D01*
X103093882Y-103337736D01*
X103097459Y-103323457D01*
X103102418Y-103309597D01*
X103108712Y-103296290D01*
X103116280Y-103283664D01*
X103125048Y-103271841D01*
X103134934Y-103260934D01*
X103145841Y-103251048D01*
X103157664Y-103242280D01*
X103170290Y-103234712D01*
X103183597Y-103228418D01*
X103197457Y-103223459D01*
X103211736Y-103219882D01*
X103226297Y-103217722D01*
X103241000Y-103217000D01*
X103541000Y-103217000D01*
X103555703Y-103217722D01*
G37*
G04 #@! TD.AperFunction*
G04 #@! TA.AperFunction,SMDPad,CuDef*
G36*
X104825703Y-103217722D02*
G01*
X104840264Y-103219882D01*
X104854543Y-103223459D01*
X104868403Y-103228418D01*
X104881710Y-103234712D01*
X104894336Y-103242280D01*
X104906159Y-103251048D01*
X104917066Y-103260934D01*
X104926952Y-103271841D01*
X104935720Y-103283664D01*
X104943288Y-103296290D01*
X104949582Y-103309597D01*
X104954541Y-103323457D01*
X104958118Y-103337736D01*
X104960278Y-103352297D01*
X104961000Y-103367000D01*
X104961000Y-105017000D01*
X104960278Y-105031703D01*
X104958118Y-105046264D01*
X104954541Y-105060543D01*
X104949582Y-105074403D01*
X104943288Y-105087710D01*
X104935720Y-105100336D01*
X104926952Y-105112159D01*
X104917066Y-105123066D01*
X104906159Y-105132952D01*
X104894336Y-105141720D01*
X104881710Y-105149288D01*
X104868403Y-105155582D01*
X104854543Y-105160541D01*
X104840264Y-105164118D01*
X104825703Y-105166278D01*
X104811000Y-105167000D01*
X104511000Y-105167000D01*
X104496297Y-105166278D01*
X104481736Y-105164118D01*
X104467457Y-105160541D01*
X104453597Y-105155582D01*
X104440290Y-105149288D01*
X104427664Y-105141720D01*
X104415841Y-105132952D01*
X104404934Y-105123066D01*
X104395048Y-105112159D01*
X104386280Y-105100336D01*
X104378712Y-105087710D01*
X104372418Y-105074403D01*
X104367459Y-105060543D01*
X104363882Y-105046264D01*
X104361722Y-105031703D01*
X104361000Y-105017000D01*
X104361000Y-103367000D01*
X104361722Y-103352297D01*
X104363882Y-103337736D01*
X104367459Y-103323457D01*
X104372418Y-103309597D01*
X104378712Y-103296290D01*
X104386280Y-103283664D01*
X104395048Y-103271841D01*
X104404934Y-103260934D01*
X104415841Y-103251048D01*
X104427664Y-103242280D01*
X104440290Y-103234712D01*
X104453597Y-103228418D01*
X104467457Y-103223459D01*
X104481736Y-103219882D01*
X104496297Y-103217722D01*
X104511000Y-103217000D01*
X104811000Y-103217000D01*
X104825703Y-103217722D01*
G37*
G04 #@! TD.AperFunction*
G04 #@! TA.AperFunction,SMDPad,CuDef*
G36*
X104825703Y-108167722D02*
G01*
X104840264Y-108169882D01*
X104854543Y-108173459D01*
X104868403Y-108178418D01*
X104881710Y-108184712D01*
X104894336Y-108192280D01*
X104906159Y-108201048D01*
X104917066Y-108210934D01*
X104926952Y-108221841D01*
X104935720Y-108233664D01*
X104943288Y-108246290D01*
X104949582Y-108259597D01*
X104954541Y-108273457D01*
X104958118Y-108287736D01*
X104960278Y-108302297D01*
X104961000Y-108317000D01*
X104961000Y-109967000D01*
X104960278Y-109981703D01*
X104958118Y-109996264D01*
X104954541Y-110010543D01*
X104949582Y-110024403D01*
X104943288Y-110037710D01*
X104935720Y-110050336D01*
X104926952Y-110062159D01*
X104917066Y-110073066D01*
X104906159Y-110082952D01*
X104894336Y-110091720D01*
X104881710Y-110099288D01*
X104868403Y-110105582D01*
X104854543Y-110110541D01*
X104840264Y-110114118D01*
X104825703Y-110116278D01*
X104811000Y-110117000D01*
X104511000Y-110117000D01*
X104496297Y-110116278D01*
X104481736Y-110114118D01*
X104467457Y-110110541D01*
X104453597Y-110105582D01*
X104440290Y-110099288D01*
X104427664Y-110091720D01*
X104415841Y-110082952D01*
X104404934Y-110073066D01*
X104395048Y-110062159D01*
X104386280Y-110050336D01*
X104378712Y-110037710D01*
X104372418Y-110024403D01*
X104367459Y-110010543D01*
X104363882Y-109996264D01*
X104361722Y-109981703D01*
X104361000Y-109967000D01*
X104361000Y-108317000D01*
X104361722Y-108302297D01*
X104363882Y-108287736D01*
X104367459Y-108273457D01*
X104372418Y-108259597D01*
X104378712Y-108246290D01*
X104386280Y-108233664D01*
X104395048Y-108221841D01*
X104404934Y-108210934D01*
X104415841Y-108201048D01*
X104427664Y-108192280D01*
X104440290Y-108184712D01*
X104453597Y-108178418D01*
X104467457Y-108173459D01*
X104481736Y-108169882D01*
X104496297Y-108167722D01*
X104511000Y-108167000D01*
X104811000Y-108167000D01*
X104825703Y-108167722D01*
G37*
G04 #@! TD.AperFunction*
G04 #@! TA.AperFunction,SMDPad,CuDef*
G36*
X103555703Y-108167722D02*
G01*
X103570264Y-108169882D01*
X103584543Y-108173459D01*
X103598403Y-108178418D01*
X103611710Y-108184712D01*
X103624336Y-108192280D01*
X103636159Y-108201048D01*
X103647066Y-108210934D01*
X103656952Y-108221841D01*
X103665720Y-108233664D01*
X103673288Y-108246290D01*
X103679582Y-108259597D01*
X103684541Y-108273457D01*
X103688118Y-108287736D01*
X103690278Y-108302297D01*
X103691000Y-108317000D01*
X103691000Y-109967000D01*
X103690278Y-109981703D01*
X103688118Y-109996264D01*
X103684541Y-110010543D01*
X103679582Y-110024403D01*
X103673288Y-110037710D01*
X103665720Y-110050336D01*
X103656952Y-110062159D01*
X103647066Y-110073066D01*
X103636159Y-110082952D01*
X103624336Y-110091720D01*
X103611710Y-110099288D01*
X103598403Y-110105582D01*
X103584543Y-110110541D01*
X103570264Y-110114118D01*
X103555703Y-110116278D01*
X103541000Y-110117000D01*
X103241000Y-110117000D01*
X103226297Y-110116278D01*
X103211736Y-110114118D01*
X103197457Y-110110541D01*
X103183597Y-110105582D01*
X103170290Y-110099288D01*
X103157664Y-110091720D01*
X103145841Y-110082952D01*
X103134934Y-110073066D01*
X103125048Y-110062159D01*
X103116280Y-110050336D01*
X103108712Y-110037710D01*
X103102418Y-110024403D01*
X103097459Y-110010543D01*
X103093882Y-109996264D01*
X103091722Y-109981703D01*
X103091000Y-109967000D01*
X103091000Y-108317000D01*
X103091722Y-108302297D01*
X103093882Y-108287736D01*
X103097459Y-108273457D01*
X103102418Y-108259597D01*
X103108712Y-108246290D01*
X103116280Y-108233664D01*
X103125048Y-108221841D01*
X103134934Y-108210934D01*
X103145841Y-108201048D01*
X103157664Y-108192280D01*
X103170290Y-108184712D01*
X103183597Y-108178418D01*
X103197457Y-108173459D01*
X103211736Y-108169882D01*
X103226297Y-108167722D01*
X103241000Y-108167000D01*
X103541000Y-108167000D01*
X103555703Y-108167722D01*
G37*
G04 #@! TD.AperFunction*
G04 #@! TA.AperFunction,SMDPad,CuDef*
G36*
X102285703Y-108167722D02*
G01*
X102300264Y-108169882D01*
X102314543Y-108173459D01*
X102328403Y-108178418D01*
X102341710Y-108184712D01*
X102354336Y-108192280D01*
X102366159Y-108201048D01*
X102377066Y-108210934D01*
X102386952Y-108221841D01*
X102395720Y-108233664D01*
X102403288Y-108246290D01*
X102409582Y-108259597D01*
X102414541Y-108273457D01*
X102418118Y-108287736D01*
X102420278Y-108302297D01*
X102421000Y-108317000D01*
X102421000Y-109967000D01*
X102420278Y-109981703D01*
X102418118Y-109996264D01*
X102414541Y-110010543D01*
X102409582Y-110024403D01*
X102403288Y-110037710D01*
X102395720Y-110050336D01*
X102386952Y-110062159D01*
X102377066Y-110073066D01*
X102366159Y-110082952D01*
X102354336Y-110091720D01*
X102341710Y-110099288D01*
X102328403Y-110105582D01*
X102314543Y-110110541D01*
X102300264Y-110114118D01*
X102285703Y-110116278D01*
X102271000Y-110117000D01*
X101971000Y-110117000D01*
X101956297Y-110116278D01*
X101941736Y-110114118D01*
X101927457Y-110110541D01*
X101913597Y-110105582D01*
X101900290Y-110099288D01*
X101887664Y-110091720D01*
X101875841Y-110082952D01*
X101864934Y-110073066D01*
X101855048Y-110062159D01*
X101846280Y-110050336D01*
X101838712Y-110037710D01*
X101832418Y-110024403D01*
X101827459Y-110010543D01*
X101823882Y-109996264D01*
X101821722Y-109981703D01*
X101821000Y-109967000D01*
X101821000Y-108317000D01*
X101821722Y-108302297D01*
X101823882Y-108287736D01*
X101827459Y-108273457D01*
X101832418Y-108259597D01*
X101838712Y-108246290D01*
X101846280Y-108233664D01*
X101855048Y-108221841D01*
X101864934Y-108210934D01*
X101875841Y-108201048D01*
X101887664Y-108192280D01*
X101900290Y-108184712D01*
X101913597Y-108178418D01*
X101927457Y-108173459D01*
X101941736Y-108169882D01*
X101956297Y-108167722D01*
X101971000Y-108167000D01*
X102271000Y-108167000D01*
X102285703Y-108167722D01*
G37*
G04 #@! TD.AperFunction*
G04 #@! TA.AperFunction,SMDPad,CuDef*
G36*
X101015703Y-108167722D02*
G01*
X101030264Y-108169882D01*
X101044543Y-108173459D01*
X101058403Y-108178418D01*
X101071710Y-108184712D01*
X101084336Y-108192280D01*
X101096159Y-108201048D01*
X101107066Y-108210934D01*
X101116952Y-108221841D01*
X101125720Y-108233664D01*
X101133288Y-108246290D01*
X101139582Y-108259597D01*
X101144541Y-108273457D01*
X101148118Y-108287736D01*
X101150278Y-108302297D01*
X101151000Y-108317000D01*
X101151000Y-109967000D01*
X101150278Y-109981703D01*
X101148118Y-109996264D01*
X101144541Y-110010543D01*
X101139582Y-110024403D01*
X101133288Y-110037710D01*
X101125720Y-110050336D01*
X101116952Y-110062159D01*
X101107066Y-110073066D01*
X101096159Y-110082952D01*
X101084336Y-110091720D01*
X101071710Y-110099288D01*
X101058403Y-110105582D01*
X101044543Y-110110541D01*
X101030264Y-110114118D01*
X101015703Y-110116278D01*
X101001000Y-110117000D01*
X100701000Y-110117000D01*
X100686297Y-110116278D01*
X100671736Y-110114118D01*
X100657457Y-110110541D01*
X100643597Y-110105582D01*
X100630290Y-110099288D01*
X100617664Y-110091720D01*
X100605841Y-110082952D01*
X100594934Y-110073066D01*
X100585048Y-110062159D01*
X100576280Y-110050336D01*
X100568712Y-110037710D01*
X100562418Y-110024403D01*
X100557459Y-110010543D01*
X100553882Y-109996264D01*
X100551722Y-109981703D01*
X100551000Y-109967000D01*
X100551000Y-108317000D01*
X100551722Y-108302297D01*
X100553882Y-108287736D01*
X100557459Y-108273457D01*
X100562418Y-108259597D01*
X100568712Y-108246290D01*
X100576280Y-108233664D01*
X100585048Y-108221841D01*
X100594934Y-108210934D01*
X100605841Y-108201048D01*
X100617664Y-108192280D01*
X100630290Y-108184712D01*
X100643597Y-108178418D01*
X100657457Y-108173459D01*
X100671736Y-108169882D01*
X100686297Y-108167722D01*
X100701000Y-108167000D01*
X101001000Y-108167000D01*
X101015703Y-108167722D01*
G37*
G04 #@! TD.AperFunction*
G04 #@! TA.AperFunction,SMDPad,CuDef*
G36*
X103224505Y-118378204D02*
G01*
X103248773Y-118381804D01*
X103272572Y-118387765D01*
X103295671Y-118396030D01*
X103317850Y-118406520D01*
X103338893Y-118419132D01*
X103358599Y-118433747D01*
X103376777Y-118450223D01*
X103393253Y-118468401D01*
X103407868Y-118488107D01*
X103420480Y-118509150D01*
X103430970Y-118531329D01*
X103439235Y-118554428D01*
X103445196Y-118578227D01*
X103448796Y-118602495D01*
X103450000Y-118626999D01*
X103450000Y-119277001D01*
X103448796Y-119301505D01*
X103445196Y-119325773D01*
X103439235Y-119349572D01*
X103430970Y-119372671D01*
X103420480Y-119394850D01*
X103407868Y-119415893D01*
X103393253Y-119435599D01*
X103376777Y-119453777D01*
X103358599Y-119470253D01*
X103338893Y-119484868D01*
X103317850Y-119497480D01*
X103295671Y-119507970D01*
X103272572Y-119516235D01*
X103248773Y-119522196D01*
X103224505Y-119525796D01*
X103200001Y-119527000D01*
X102299999Y-119527000D01*
X102275495Y-119525796D01*
X102251227Y-119522196D01*
X102227428Y-119516235D01*
X102204329Y-119507970D01*
X102182150Y-119497480D01*
X102161107Y-119484868D01*
X102141401Y-119470253D01*
X102123223Y-119453777D01*
X102106747Y-119435599D01*
X102092132Y-119415893D01*
X102079520Y-119394850D01*
X102069030Y-119372671D01*
X102060765Y-119349572D01*
X102054804Y-119325773D01*
X102051204Y-119301505D01*
X102050000Y-119277001D01*
X102050000Y-118626999D01*
X102051204Y-118602495D01*
X102054804Y-118578227D01*
X102060765Y-118554428D01*
X102069030Y-118531329D01*
X102079520Y-118509150D01*
X102092132Y-118488107D01*
X102106747Y-118468401D01*
X102123223Y-118450223D01*
X102141401Y-118433747D01*
X102161107Y-118419132D01*
X102182150Y-118406520D01*
X102204329Y-118396030D01*
X102227428Y-118387765D01*
X102251227Y-118381804D01*
X102275495Y-118378204D01*
X102299999Y-118377000D01*
X103200001Y-118377000D01*
X103224505Y-118378204D01*
G37*
G04 #@! TD.AperFunction*
G04 #@! TA.AperFunction,SMDPad,CuDef*
G36*
X103224505Y-120428204D02*
G01*
X103248773Y-120431804D01*
X103272572Y-120437765D01*
X103295671Y-120446030D01*
X103317850Y-120456520D01*
X103338893Y-120469132D01*
X103358599Y-120483747D01*
X103376777Y-120500223D01*
X103393253Y-120518401D01*
X103407868Y-120538107D01*
X103420480Y-120559150D01*
X103430970Y-120581329D01*
X103439235Y-120604428D01*
X103445196Y-120628227D01*
X103448796Y-120652495D01*
X103450000Y-120676999D01*
X103450000Y-121327001D01*
X103448796Y-121351505D01*
X103445196Y-121375773D01*
X103439235Y-121399572D01*
X103430970Y-121422671D01*
X103420480Y-121444850D01*
X103407868Y-121465893D01*
X103393253Y-121485599D01*
X103376777Y-121503777D01*
X103358599Y-121520253D01*
X103338893Y-121534868D01*
X103317850Y-121547480D01*
X103295671Y-121557970D01*
X103272572Y-121566235D01*
X103248773Y-121572196D01*
X103224505Y-121575796D01*
X103200001Y-121577000D01*
X102299999Y-121577000D01*
X102275495Y-121575796D01*
X102251227Y-121572196D01*
X102227428Y-121566235D01*
X102204329Y-121557970D01*
X102182150Y-121547480D01*
X102161107Y-121534868D01*
X102141401Y-121520253D01*
X102123223Y-121503777D01*
X102106747Y-121485599D01*
X102092132Y-121465893D01*
X102079520Y-121444850D01*
X102069030Y-121422671D01*
X102060765Y-121399572D01*
X102054804Y-121375773D01*
X102051204Y-121351505D01*
X102050000Y-121327001D01*
X102050000Y-120676999D01*
X102051204Y-120652495D01*
X102054804Y-120628227D01*
X102060765Y-120604428D01*
X102069030Y-120581329D01*
X102079520Y-120559150D01*
X102092132Y-120538107D01*
X102106747Y-120518401D01*
X102123223Y-120500223D01*
X102141401Y-120483747D01*
X102161107Y-120469132D01*
X102182150Y-120456520D01*
X102204329Y-120446030D01*
X102227428Y-120437765D01*
X102251227Y-120431804D01*
X102275495Y-120428204D01*
X102299999Y-120427000D01*
X103200001Y-120427000D01*
X103224505Y-120428204D01*
G37*
G04 #@! TD.AperFunction*
G04 #@! TA.AperFunction,SMDPad,CuDef*
G36*
X101807505Y-122601204D02*
G01*
X101831773Y-122604804D01*
X101855572Y-122610765D01*
X101878671Y-122619030D01*
X101900850Y-122629520D01*
X101921893Y-122642132D01*
X101941599Y-122656747D01*
X101959777Y-122673223D01*
X101976253Y-122691401D01*
X101990868Y-122711107D01*
X102003480Y-122732150D01*
X102013970Y-122754329D01*
X102022235Y-122777428D01*
X102028196Y-122801227D01*
X102031796Y-122825495D01*
X102033000Y-122849999D01*
X102033000Y-123500001D01*
X102031796Y-123524505D01*
X102028196Y-123548773D01*
X102022235Y-123572572D01*
X102013970Y-123595671D01*
X102003480Y-123617850D01*
X101990868Y-123638893D01*
X101976253Y-123658599D01*
X101959777Y-123676777D01*
X101941599Y-123693253D01*
X101921893Y-123707868D01*
X101900850Y-123720480D01*
X101878671Y-123730970D01*
X101855572Y-123739235D01*
X101831773Y-123745196D01*
X101807505Y-123748796D01*
X101783001Y-123750000D01*
X100882999Y-123750000D01*
X100858495Y-123748796D01*
X100834227Y-123745196D01*
X100810428Y-123739235D01*
X100787329Y-123730970D01*
X100765150Y-123720480D01*
X100744107Y-123707868D01*
X100724401Y-123693253D01*
X100706223Y-123676777D01*
X100689747Y-123658599D01*
X100675132Y-123638893D01*
X100662520Y-123617850D01*
X100652030Y-123595671D01*
X100643765Y-123572572D01*
X100637804Y-123548773D01*
X100634204Y-123524505D01*
X100633000Y-123500001D01*
X100633000Y-122849999D01*
X100634204Y-122825495D01*
X100637804Y-122801227D01*
X100643765Y-122777428D01*
X100652030Y-122754329D01*
X100662520Y-122732150D01*
X100675132Y-122711107D01*
X100689747Y-122691401D01*
X100706223Y-122673223D01*
X100724401Y-122656747D01*
X100744107Y-122642132D01*
X100765150Y-122629520D01*
X100787329Y-122619030D01*
X100810428Y-122610765D01*
X100834227Y-122604804D01*
X100858495Y-122601204D01*
X100882999Y-122600000D01*
X101783001Y-122600000D01*
X101807505Y-122601204D01*
G37*
G04 #@! TD.AperFunction*
G04 #@! TA.AperFunction,SMDPad,CuDef*
G36*
X101807505Y-124651204D02*
G01*
X101831773Y-124654804D01*
X101855572Y-124660765D01*
X101878671Y-124669030D01*
X101900850Y-124679520D01*
X101921893Y-124692132D01*
X101941599Y-124706747D01*
X101959777Y-124723223D01*
X101976253Y-124741401D01*
X101990868Y-124761107D01*
X102003480Y-124782150D01*
X102013970Y-124804329D01*
X102022235Y-124827428D01*
X102028196Y-124851227D01*
X102031796Y-124875495D01*
X102033000Y-124899999D01*
X102033000Y-125550001D01*
X102031796Y-125574505D01*
X102028196Y-125598773D01*
X102022235Y-125622572D01*
X102013970Y-125645671D01*
X102003480Y-125667850D01*
X101990868Y-125688893D01*
X101976253Y-125708599D01*
X101959777Y-125726777D01*
X101941599Y-125743253D01*
X101921893Y-125757868D01*
X101900850Y-125770480D01*
X101878671Y-125780970D01*
X101855572Y-125789235D01*
X101831773Y-125795196D01*
X101807505Y-125798796D01*
X101783001Y-125800000D01*
X100882999Y-125800000D01*
X100858495Y-125798796D01*
X100834227Y-125795196D01*
X100810428Y-125789235D01*
X100787329Y-125780970D01*
X100765150Y-125770480D01*
X100744107Y-125757868D01*
X100724401Y-125743253D01*
X100706223Y-125726777D01*
X100689747Y-125708599D01*
X100675132Y-125688893D01*
X100662520Y-125667850D01*
X100652030Y-125645671D01*
X100643765Y-125622572D01*
X100637804Y-125598773D01*
X100634204Y-125574505D01*
X100633000Y-125550001D01*
X100633000Y-124899999D01*
X100634204Y-124875495D01*
X100637804Y-124851227D01*
X100643765Y-124827428D01*
X100652030Y-124804329D01*
X100662520Y-124782150D01*
X100675132Y-124761107D01*
X100689747Y-124741401D01*
X100706223Y-124723223D01*
X100724401Y-124706747D01*
X100744107Y-124692132D01*
X100765150Y-124679520D01*
X100787329Y-124669030D01*
X100810428Y-124660765D01*
X100834227Y-124654804D01*
X100858495Y-124651204D01*
X100882999Y-124650000D01*
X101783001Y-124650000D01*
X101807505Y-124651204D01*
G37*
G04 #@! TD.AperFunction*
G04 #@! TA.AperFunction,SMDPad,CuDef*
G36*
X104538505Y-124651204D02*
G01*
X104562773Y-124654804D01*
X104586572Y-124660765D01*
X104609671Y-124669030D01*
X104631850Y-124679520D01*
X104652893Y-124692132D01*
X104672599Y-124706747D01*
X104690777Y-124723223D01*
X104707253Y-124741401D01*
X104721868Y-124761107D01*
X104734480Y-124782150D01*
X104744970Y-124804329D01*
X104753235Y-124827428D01*
X104759196Y-124851227D01*
X104762796Y-124875495D01*
X104764000Y-124899999D01*
X104764000Y-125550001D01*
X104762796Y-125574505D01*
X104759196Y-125598773D01*
X104753235Y-125622572D01*
X104744970Y-125645671D01*
X104734480Y-125667850D01*
X104721868Y-125688893D01*
X104707253Y-125708599D01*
X104690777Y-125726777D01*
X104672599Y-125743253D01*
X104652893Y-125757868D01*
X104631850Y-125770480D01*
X104609671Y-125780970D01*
X104586572Y-125789235D01*
X104562773Y-125795196D01*
X104538505Y-125798796D01*
X104514001Y-125800000D01*
X103613999Y-125800000D01*
X103589495Y-125798796D01*
X103565227Y-125795196D01*
X103541428Y-125789235D01*
X103518329Y-125780970D01*
X103496150Y-125770480D01*
X103475107Y-125757868D01*
X103455401Y-125743253D01*
X103437223Y-125726777D01*
X103420747Y-125708599D01*
X103406132Y-125688893D01*
X103393520Y-125667850D01*
X103383030Y-125645671D01*
X103374765Y-125622572D01*
X103368804Y-125598773D01*
X103365204Y-125574505D01*
X103364000Y-125550001D01*
X103364000Y-124899999D01*
X103365204Y-124875495D01*
X103368804Y-124851227D01*
X103374765Y-124827428D01*
X103383030Y-124804329D01*
X103393520Y-124782150D01*
X103406132Y-124761107D01*
X103420747Y-124741401D01*
X103437223Y-124723223D01*
X103455401Y-124706747D01*
X103475107Y-124692132D01*
X103496150Y-124679520D01*
X103518329Y-124669030D01*
X103541428Y-124660765D01*
X103565227Y-124654804D01*
X103589495Y-124651204D01*
X103613999Y-124650000D01*
X104514001Y-124650000D01*
X104538505Y-124651204D01*
G37*
G04 #@! TD.AperFunction*
G04 #@! TA.AperFunction,SMDPad,CuDef*
G36*
X104538505Y-122601204D02*
G01*
X104562773Y-122604804D01*
X104586572Y-122610765D01*
X104609671Y-122619030D01*
X104631850Y-122629520D01*
X104652893Y-122642132D01*
X104672599Y-122656747D01*
X104690777Y-122673223D01*
X104707253Y-122691401D01*
X104721868Y-122711107D01*
X104734480Y-122732150D01*
X104744970Y-122754329D01*
X104753235Y-122777428D01*
X104759196Y-122801227D01*
X104762796Y-122825495D01*
X104764000Y-122849999D01*
X104764000Y-123500001D01*
X104762796Y-123524505D01*
X104759196Y-123548773D01*
X104753235Y-123572572D01*
X104744970Y-123595671D01*
X104734480Y-123617850D01*
X104721868Y-123638893D01*
X104707253Y-123658599D01*
X104690777Y-123676777D01*
X104672599Y-123693253D01*
X104652893Y-123707868D01*
X104631850Y-123720480D01*
X104609671Y-123730970D01*
X104586572Y-123739235D01*
X104562773Y-123745196D01*
X104538505Y-123748796D01*
X104514001Y-123750000D01*
X103613999Y-123750000D01*
X103589495Y-123748796D01*
X103565227Y-123745196D01*
X103541428Y-123739235D01*
X103518329Y-123730970D01*
X103496150Y-123720480D01*
X103475107Y-123707868D01*
X103455401Y-123693253D01*
X103437223Y-123676777D01*
X103420747Y-123658599D01*
X103406132Y-123638893D01*
X103393520Y-123617850D01*
X103383030Y-123595671D01*
X103374765Y-123572572D01*
X103368804Y-123548773D01*
X103365204Y-123524505D01*
X103364000Y-123500001D01*
X103364000Y-122849999D01*
X103365204Y-122825495D01*
X103368804Y-122801227D01*
X103374765Y-122777428D01*
X103383030Y-122754329D01*
X103393520Y-122732150D01*
X103406132Y-122711107D01*
X103420747Y-122691401D01*
X103437223Y-122673223D01*
X103455401Y-122656747D01*
X103475107Y-122642132D01*
X103496150Y-122629520D01*
X103518329Y-122619030D01*
X103541428Y-122610765D01*
X103565227Y-122604804D01*
X103589495Y-122601204D01*
X103613999Y-122600000D01*
X104514001Y-122600000D01*
X104538505Y-122601204D01*
G37*
G04 #@! TD.AperFunction*
G04 #@! TA.AperFunction,SMDPad,CuDef*
G36*
X104177505Y-100418204D02*
G01*
X104201773Y-100421804D01*
X104225572Y-100427765D01*
X104248671Y-100436030D01*
X104270850Y-100446520D01*
X104291893Y-100459132D01*
X104311599Y-100473747D01*
X104329777Y-100490223D01*
X104346253Y-100508401D01*
X104360868Y-100528107D01*
X104373480Y-100549150D01*
X104383970Y-100571329D01*
X104392235Y-100594428D01*
X104398196Y-100618227D01*
X104401796Y-100642495D01*
X104403000Y-100666999D01*
X104403000Y-101567001D01*
X104401796Y-101591505D01*
X104398196Y-101615773D01*
X104392235Y-101639572D01*
X104383970Y-101662671D01*
X104373480Y-101684850D01*
X104360868Y-101705893D01*
X104346253Y-101725599D01*
X104329777Y-101743777D01*
X104311599Y-101760253D01*
X104291893Y-101774868D01*
X104270850Y-101787480D01*
X104248671Y-101797970D01*
X104225572Y-101806235D01*
X104201773Y-101812196D01*
X104177505Y-101815796D01*
X104153001Y-101817000D01*
X103502999Y-101817000D01*
X103478495Y-101815796D01*
X103454227Y-101812196D01*
X103430428Y-101806235D01*
X103407329Y-101797970D01*
X103385150Y-101787480D01*
X103364107Y-101774868D01*
X103344401Y-101760253D01*
X103326223Y-101743777D01*
X103309747Y-101725599D01*
X103295132Y-101705893D01*
X103282520Y-101684850D01*
X103272030Y-101662671D01*
X103263765Y-101639572D01*
X103257804Y-101615773D01*
X103254204Y-101591505D01*
X103253000Y-101567001D01*
X103253000Y-100666999D01*
X103254204Y-100642495D01*
X103257804Y-100618227D01*
X103263765Y-100594428D01*
X103272030Y-100571329D01*
X103282520Y-100549150D01*
X103295132Y-100528107D01*
X103309747Y-100508401D01*
X103326223Y-100490223D01*
X103344401Y-100473747D01*
X103364107Y-100459132D01*
X103385150Y-100446520D01*
X103407329Y-100436030D01*
X103430428Y-100427765D01*
X103454227Y-100421804D01*
X103478495Y-100418204D01*
X103502999Y-100417000D01*
X104153001Y-100417000D01*
X104177505Y-100418204D01*
G37*
G04 #@! TD.AperFunction*
G04 #@! TA.AperFunction,SMDPad,CuDef*
G36*
X102127505Y-100418204D02*
G01*
X102151773Y-100421804D01*
X102175572Y-100427765D01*
X102198671Y-100436030D01*
X102220850Y-100446520D01*
X102241893Y-100459132D01*
X102261599Y-100473747D01*
X102279777Y-100490223D01*
X102296253Y-100508401D01*
X102310868Y-100528107D01*
X102323480Y-100549150D01*
X102333970Y-100571329D01*
X102342235Y-100594428D01*
X102348196Y-100618227D01*
X102351796Y-100642495D01*
X102353000Y-100666999D01*
X102353000Y-101567001D01*
X102351796Y-101591505D01*
X102348196Y-101615773D01*
X102342235Y-101639572D01*
X102333970Y-101662671D01*
X102323480Y-101684850D01*
X102310868Y-101705893D01*
X102296253Y-101725599D01*
X102279777Y-101743777D01*
X102261599Y-101760253D01*
X102241893Y-101774868D01*
X102220850Y-101787480D01*
X102198671Y-101797970D01*
X102175572Y-101806235D01*
X102151773Y-101812196D01*
X102127505Y-101815796D01*
X102103001Y-101817000D01*
X101452999Y-101817000D01*
X101428495Y-101815796D01*
X101404227Y-101812196D01*
X101380428Y-101806235D01*
X101357329Y-101797970D01*
X101335150Y-101787480D01*
X101314107Y-101774868D01*
X101294401Y-101760253D01*
X101276223Y-101743777D01*
X101259747Y-101725599D01*
X101245132Y-101705893D01*
X101232520Y-101684850D01*
X101222030Y-101662671D01*
X101213765Y-101639572D01*
X101207804Y-101615773D01*
X101204204Y-101591505D01*
X101203000Y-101567001D01*
X101203000Y-100666999D01*
X101204204Y-100642495D01*
X101207804Y-100618227D01*
X101213765Y-100594428D01*
X101222030Y-100571329D01*
X101232520Y-100549150D01*
X101245132Y-100528107D01*
X101259747Y-100508401D01*
X101276223Y-100490223D01*
X101294401Y-100473747D01*
X101314107Y-100459132D01*
X101335150Y-100446520D01*
X101357329Y-100436030D01*
X101380428Y-100427765D01*
X101404227Y-100421804D01*
X101428495Y-100418204D01*
X101452999Y-100417000D01*
X102103001Y-100417000D01*
X102127505Y-100418204D01*
G37*
G04 #@! TD.AperFunction*
D12*
X104709000Y-115863100D03*
X102037300Y-106231600D03*
X104820500Y-106111200D03*
X104124300Y-117131800D03*
X100710000Y-116174200D03*
X104534000Y-134215800D03*
X101319900Y-119463100D03*
X101333000Y-126770000D03*
D13*
X103828000Y-101117000D02*
X104026000Y-101315000D01*
X104026000Y-101315000D02*
X104026000Y-107106700D01*
X104026000Y-107106700D02*
X104661000Y-107741700D01*
X104661000Y-107741700D02*
X104661000Y-109142000D01*
X104661000Y-109142000D02*
X104709000Y-109190000D01*
X104709000Y-109190000D02*
X104709000Y-115863100D01*
X101333000Y-123175000D02*
X101333000Y-120773600D01*
X101333000Y-120773600D02*
X102750000Y-119356600D01*
X102750000Y-119356600D02*
X102750000Y-118952000D01*
X100851000Y-104192000D02*
X100851000Y-106147700D01*
X100851000Y-106147700D02*
X102750000Y-108046700D01*
X102750000Y-108046700D02*
X102750000Y-118952000D01*
X101778000Y-101117000D02*
X100851000Y-102044000D01*
X100851000Y-102044000D02*
X100851000Y-104192000D01*
X100965000Y-131000000D02*
X100965000Y-133825300D01*
X100965000Y-131000000D02*
X100965000Y-128174700D01*
X100965000Y-128174700D02*
X102401600Y-126738100D01*
X102401600Y-126738100D02*
X102401600Y-124243600D01*
X102401600Y-124243600D02*
X101333000Y-123175000D01*
X104064000Y-125225000D02*
X103394600Y-125894400D01*
X103394600Y-125894400D02*
X103394600Y-133669100D01*
X103394600Y-133669100D02*
X103238400Y-133825300D01*
X103238400Y-133825300D02*
X100965000Y-133825300D01*
X102037300Y-106231600D02*
X102121000Y-106147900D01*
X102121000Y-106147900D02*
X102121000Y-104192000D01*
X104820500Y-106111200D02*
X104661000Y-105951700D01*
X104661000Y-105951700D02*
X104661000Y-104192000D01*
X103391000Y-104192000D02*
X103391000Y-107426700D01*
X103391000Y-107426700D02*
X104026000Y-108061700D01*
X104026000Y-108061700D02*
X104026000Y-115510900D01*
X104026000Y-115510900D02*
X103955900Y-115581000D01*
X103955900Y-115581000D02*
X103955900Y-116963400D01*
X103955900Y-116963400D02*
X104124300Y-117131800D01*
X104534000Y-131000000D02*
X104534000Y-128174700D01*
X104064000Y-123175000D02*
X105127500Y-124238500D01*
X105127500Y-124238500D02*
X105127500Y-127581200D01*
X105127500Y-127581200D02*
X104534000Y-128174700D01*
X104534000Y-131000000D02*
X104534000Y-134215800D01*
X100851000Y-109142000D02*
X100710000Y-109283000D01*
X100710000Y-109283000D02*
X100710000Y-116174200D01*
X101319900Y-119463100D02*
X101319900Y-118207700D01*
X101319900Y-118207700D02*
X102121000Y-117406600D01*
X102121000Y-117406600D02*
X102121000Y-109142000D01*
X101333000Y-125225000D02*
X101333000Y-126770000D01*
X102750000Y-121002000D02*
X103796800Y-119955200D01*
X103796800Y-119955200D02*
X103796800Y-118240400D01*
X103796800Y-118240400D02*
X103391000Y-117834600D01*
X103391000Y-117834600D02*
X103391000Y-109142000D01*
X102750000Y-128174700D02*
X102895200Y-128029500D01*
X102895200Y-128029500D02*
X102895200Y-121147200D01*
X102895200Y-121147200D02*
X102750000Y-121002000D01*
X102750000Y-131000000D02*
X102750000Y-128174700D01*
D14*
G36*
X104840000Y-110645250D02*
G01*
X104840000Y-116383789D01*
X104784074Y-116327863D01*
X104715900Y-116282311D01*
X104715900Y-115832418D01*
X104731546Y-115803147D01*
X104775003Y-115659886D01*
X104786000Y-115548233D01*
X104786000Y-115548223D01*
X104789676Y-115510901D01*
X104786000Y-115473578D01*
X104786000Y-110752000D01*
X104788002Y-110752000D01*
X104788002Y-110593252D01*
X104840000Y-110645250D01*
G37*
X104840000Y-110645250D02*
X104840000Y-116383789D01*
X104784074Y-116327863D01*
X104715900Y-116282311D01*
X104715900Y-115832418D01*
X104731546Y-115803147D01*
X104775003Y-115659886D01*
X104786000Y-115548233D01*
X104786000Y-115548223D01*
X104789676Y-115510901D01*
X104786000Y-115473578D01*
X104786000Y-110752000D01*
X104788002Y-110752000D01*
X104788002Y-110593252D01*
X104840000Y-110645250D01*
G36*
X104788000Y-109015000D02*
G01*
X104808000Y-109015000D01*
X104808000Y-109269000D01*
X104788000Y-109269000D01*
X104788000Y-109289000D01*
X104786000Y-109289000D01*
X104786000Y-108099033D01*
X104788000Y-108078727D01*
X104788000Y-109015000D01*
G37*
X104788000Y-109015000D02*
X104808000Y-109015000D01*
X104808000Y-109269000D01*
X104788000Y-109269000D01*
X104788000Y-109289000D01*
X104786000Y-109289000D01*
X104786000Y-108099033D01*
X104788000Y-108078727D01*
X104788000Y-109015000D01*
G36*
X104160726Y-106915137D02*
G01*
X104330244Y-107028405D01*
X104518602Y-107106426D01*
X104718561Y-107146200D01*
X104840000Y-107146200D01*
X104840000Y-107638750D01*
X104788000Y-107690750D01*
X104788000Y-108044673D01*
X104775003Y-107912714D01*
X104731546Y-107769453D01*
X104660974Y-107637424D01*
X104589799Y-107550697D01*
X104566001Y-107521699D01*
X104537004Y-107497902D01*
X104151000Y-107111899D01*
X104151000Y-106905411D01*
X104160726Y-106915137D01*
G37*
X104160726Y-106915137D02*
X104330244Y-107028405D01*
X104518602Y-107106426D01*
X104718561Y-107146200D01*
X104840000Y-107146200D01*
X104840000Y-107638750D01*
X104788000Y-107690750D01*
X104788000Y-108044673D01*
X104775003Y-107912714D01*
X104731546Y-107769453D01*
X104660974Y-107637424D01*
X104589799Y-107550697D01*
X104566001Y-107521699D01*
X104537004Y-107497902D01*
X104151000Y-107111899D01*
X104151000Y-106905411D01*
X104160726Y-106915137D01*
G36*
X103955000Y-100990000D02*
G01*
X103975000Y-100990000D01*
X103975000Y-101244000D01*
X103955000Y-101244000D01*
X103955000Y-102293250D01*
X104113750Y-102452000D01*
X104403000Y-102455072D01*
X104527482Y-102442812D01*
X104647180Y-102406502D01*
X104757494Y-102347537D01*
X104840000Y-102279826D01*
X104840000Y-102581784D01*
X104811000Y-102578928D01*
X104511000Y-102578928D01*
X104357255Y-102594071D01*
X104209418Y-102638916D01*
X104073171Y-102711742D01*
X104026000Y-102750454D01*
X103978829Y-102711742D01*
X103842582Y-102638916D01*
X103694745Y-102594071D01*
X103541000Y-102578928D01*
X103241000Y-102578928D01*
X103087255Y-102594071D01*
X102939418Y-102638916D01*
X102803171Y-102711742D01*
X102756000Y-102750454D01*
X102708829Y-102711742D01*
X102572582Y-102638916D01*
X102424745Y-102594071D01*
X102271000Y-102578928D01*
X101971000Y-102578928D01*
X101817255Y-102594071D01*
X101669418Y-102638916D01*
X101611000Y-102670141D01*
X101611000Y-102455072D01*
X102103001Y-102455072D01*
X102276255Y-102438008D01*
X102442851Y-102387472D01*
X102596387Y-102305405D01*
X102730962Y-102194962D01*
X102736342Y-102188406D01*
X102801815Y-102268185D01*
X102898506Y-102347537D01*
X103008820Y-102406502D01*
X103128518Y-102442812D01*
X103253000Y-102455072D01*
X103542250Y-102452000D01*
X103701000Y-102293250D01*
X103701000Y-101244000D01*
X103681000Y-101244000D01*
X103681000Y-100990000D01*
X103701000Y-100990000D01*
X103701000Y-100970000D01*
X103955000Y-100970000D01*
X103955000Y-100990000D01*
G37*
X103955000Y-100990000D02*
X103975000Y-100990000D01*
X103975000Y-101244000D01*
X103955000Y-101244000D01*
X103955000Y-102293250D01*
X104113750Y-102452000D01*
X104403000Y-102455072D01*
X104527482Y-102442812D01*
X104647180Y-102406502D01*
X104757494Y-102347537D01*
X104840000Y-102279826D01*
X104840000Y-102581784D01*
X104811000Y-102578928D01*
X104511000Y-102578928D01*
X104357255Y-102594071D01*
X104209418Y-102638916D01*
X104073171Y-102711742D01*
X104026000Y-102750454D01*
X103978829Y-102711742D01*
X103842582Y-102638916D01*
X103694745Y-102594071D01*
X103541000Y-102578928D01*
X103241000Y-102578928D01*
X103087255Y-102594071D01*
X102939418Y-102638916D01*
X102803171Y-102711742D01*
X102756000Y-102750454D01*
X102708829Y-102711742D01*
X102572582Y-102638916D01*
X102424745Y-102594071D01*
X102271000Y-102578928D01*
X101971000Y-102578928D01*
X101817255Y-102594071D01*
X101669418Y-102638916D01*
X101611000Y-102670141D01*
X101611000Y-102455072D01*
X102103001Y-102455072D01*
X102276255Y-102438008D01*
X102442851Y-102387472D01*
X102596387Y-102305405D01*
X102730962Y-102194962D01*
X102736342Y-102188406D01*
X102801815Y-102268185D01*
X102898506Y-102347537D01*
X103008820Y-102406502D01*
X103128518Y-102442812D01*
X103253000Y-102455072D01*
X103542250Y-102452000D01*
X103701000Y-102293250D01*
X103701000Y-101244000D01*
X103681000Y-101244000D01*
X103681000Y-100990000D01*
X103701000Y-100990000D01*
X103701000Y-100970000D01*
X103955000Y-100970000D01*
X103955000Y-100990000D01*
M02*
