G04 #@! TF.GenerationSoftware,KiCad,Pcbnew,5.1.5+dfsg1-2build2*
G04 #@! TF.CreationDate,2022-01-03T21:35:01-05:00*
G04 #@! TF.ProjectId,,58585858-5858-4585-9858-585858585858,rev?*
G04 #@! TF.SameCoordinates,Original*
G04 #@! TF.FileFunction,Profile,NP*
%FSLAX46Y46*%
G04 Gerber Fmt 4.6, Leading zero omitted, Abs format (unit mm)*
G04 Created by KiCad (PCBNEW 5.1.5+dfsg1-2build2) date 2022-01-03 21:35:01*
%MOMM*%
%LPD*%
G04 APERTURE LIST*
%ADD10C,0.050000*%
G04 APERTURE END LIST*
D10*
X176316900Y-123581500D02*
X181816900Y-123581500D01*
X170816900Y-123581500D02*
X176316900Y-123581500D01*
X165316900Y-123581500D02*
X170816900Y-123581500D01*
X159816900Y-123581500D02*
X165316900Y-123581500D01*
X154316900Y-123581500D02*
X159816900Y-123581500D01*
X148816900Y-123581500D02*
X154316900Y-123581500D01*
X143316900Y-123581500D02*
X148816900Y-123581500D01*
X137816900Y-123581500D02*
X143316900Y-123581500D01*
X132316900Y-123581500D02*
X137816900Y-123581500D01*
X126816900Y-123581500D02*
X132316900Y-123581500D01*
X121316900Y-123581500D02*
X126816900Y-123581500D01*
X115816900Y-123581500D02*
X121316900Y-123581500D01*
X110316900Y-123581500D02*
X115816900Y-123581500D01*
X104816900Y-123581500D02*
X110316900Y-123581500D01*
X99316900Y-123581500D02*
X104816900Y-123581500D01*
X93816900Y-123581500D02*
X99316900Y-123581500D01*
X88316900Y-123581500D02*
X93816900Y-123581500D01*
X82816900Y-123581500D02*
X88316900Y-123581500D01*
X176316900Y-88581500D02*
X181816900Y-88581500D01*
X170816900Y-88581500D02*
X176316900Y-88581500D01*
X165316900Y-88581500D02*
X170816900Y-88581500D01*
X159816900Y-88581500D02*
X165316900Y-88581500D01*
X154316900Y-88581500D02*
X159816900Y-88581500D01*
X148816900Y-88581500D02*
X154316900Y-88581500D01*
X143316900Y-88581500D02*
X148816900Y-88581500D01*
X137816900Y-88581500D02*
X143316900Y-88581500D01*
X132316900Y-88581500D02*
X137816900Y-88581500D01*
X126816900Y-88581500D02*
X132316900Y-88581500D01*
X121316900Y-88581500D02*
X126816900Y-88581500D01*
X115816900Y-88581500D02*
X121316900Y-88581500D01*
X110316900Y-88581500D02*
X115816900Y-88581500D01*
X104816900Y-88581500D02*
X110316900Y-88581500D01*
X99316900Y-88581500D02*
X104816900Y-88581500D01*
X93816900Y-88581500D02*
X99316900Y-88581500D01*
X88316900Y-88581500D02*
X93816900Y-88581500D01*
X176316900Y-88581500D02*
X181816900Y-88581500D01*
X170816900Y-88581500D02*
X176316900Y-88581500D01*
X165316900Y-88581500D02*
X170816900Y-88581500D01*
X159816900Y-88581500D02*
X165316900Y-88581500D01*
X154316900Y-88581500D02*
X159816900Y-88581500D01*
X148816900Y-88581500D02*
X154316900Y-88581500D01*
X143316900Y-88581500D02*
X148816900Y-88581500D01*
X137816900Y-88581500D02*
X143316900Y-88581500D01*
X132316900Y-88581500D02*
X137816900Y-88581500D01*
X126816900Y-88581500D02*
X132316900Y-88581500D01*
X121316900Y-88581500D02*
X126816900Y-88581500D01*
X115816900Y-88581500D02*
X121316900Y-88581500D01*
X110316900Y-88581500D02*
X115816900Y-88581500D01*
X104816900Y-88581500D02*
X110316900Y-88581500D01*
X99316900Y-88581500D02*
X104816900Y-88581500D01*
X93816900Y-88581500D02*
X99316900Y-88581500D01*
X88316900Y-88581500D02*
X93816900Y-88581500D01*
X82816900Y-88581500D02*
X88316900Y-88581500D01*
X176316900Y-53581500D02*
X181816900Y-53581500D01*
X170816900Y-53581500D02*
X176316900Y-53581500D01*
X165316900Y-53581500D02*
X170816900Y-53581500D01*
X159816900Y-53581500D02*
X165316900Y-53581500D01*
X154316900Y-53581500D02*
X159816900Y-53581500D01*
X148816900Y-53581500D02*
X154316900Y-53581500D01*
X143316900Y-53581500D02*
X148816900Y-53581500D01*
X137816900Y-53581500D02*
X143316900Y-53581500D01*
X132316900Y-53581500D02*
X137816900Y-53581500D01*
X126816900Y-53581500D02*
X132316900Y-53581500D01*
X121316900Y-53581500D02*
X126816900Y-53581500D01*
X115816900Y-53581500D02*
X121316900Y-53581500D01*
X110316900Y-53581500D02*
X115816900Y-53581500D01*
X104816900Y-53581500D02*
X110316900Y-53581500D01*
X99316900Y-53581500D02*
X104816900Y-53581500D01*
X93816900Y-53581500D02*
X99316900Y-53581500D01*
X88316900Y-53581500D02*
X93816900Y-53581500D01*
X181816900Y-88581500D02*
X181816900Y-123581500D01*
X176316900Y-88581500D02*
X176316900Y-123581500D01*
X170816900Y-88581500D02*
X170816900Y-123581500D01*
X165316900Y-88581500D02*
X165316900Y-123581500D01*
X159816900Y-88581500D02*
X159816900Y-123581500D01*
X154316900Y-88581500D02*
X154316900Y-123581500D01*
X148816900Y-88581500D02*
X148816900Y-123581500D01*
X143316900Y-88581500D02*
X143316900Y-123581500D01*
X137816900Y-88581500D02*
X137816900Y-123581500D01*
X132316900Y-88581500D02*
X132316900Y-123581500D01*
X126816900Y-88581500D02*
X126816900Y-123581500D01*
X121316900Y-88581500D02*
X121316900Y-123581500D01*
X115816900Y-88581500D02*
X115816900Y-123581500D01*
X110316900Y-88581500D02*
X110316900Y-123581500D01*
X104816900Y-88581500D02*
X104816900Y-123581500D01*
X99316900Y-88581500D02*
X99316900Y-123581500D01*
X93816900Y-88581500D02*
X93816900Y-123581500D01*
X88316900Y-88581500D02*
X88316900Y-123581500D01*
X181816900Y-53581500D02*
X181816900Y-88581500D01*
X176316900Y-53581500D02*
X176316900Y-88581500D01*
X170816900Y-53581500D02*
X170816900Y-88581500D01*
X165316900Y-53581500D02*
X165316900Y-88581500D01*
X159816900Y-53581500D02*
X159816900Y-88581500D01*
X154316900Y-53581500D02*
X154316900Y-88581500D01*
X148816900Y-53581500D02*
X148816900Y-88581500D01*
X143316900Y-53581500D02*
X143316900Y-88581500D01*
X137816900Y-53581500D02*
X137816900Y-88581500D01*
X132316900Y-53581500D02*
X132316900Y-88581500D01*
X126816900Y-53581500D02*
X126816900Y-88581500D01*
X121316900Y-53581500D02*
X121316900Y-88581500D01*
X115816900Y-53581500D02*
X115816900Y-88581500D01*
X110316900Y-53581500D02*
X110316900Y-88581500D01*
X104816900Y-53581500D02*
X104816900Y-88581500D01*
X99316900Y-53581500D02*
X99316900Y-88581500D01*
X93816900Y-53581500D02*
X93816900Y-88581500D01*
X176316900Y-88581500D02*
X176316900Y-123581500D01*
X170816900Y-88581500D02*
X170816900Y-123581500D01*
X165316900Y-88581500D02*
X165316900Y-123581500D01*
X159816900Y-88581500D02*
X159816900Y-123581500D01*
X154316900Y-88581500D02*
X154316900Y-123581500D01*
X148816900Y-88581500D02*
X148816900Y-123581500D01*
X143316900Y-88581500D02*
X143316900Y-123581500D01*
X137816900Y-88581500D02*
X137816900Y-123581500D01*
X132316900Y-88581500D02*
X132316900Y-123581500D01*
X126816900Y-88581500D02*
X126816900Y-123581500D01*
X121316900Y-88581500D02*
X121316900Y-123581500D01*
X115816900Y-88581500D02*
X115816900Y-123581500D01*
X110316900Y-88581500D02*
X110316900Y-123581500D01*
X104816900Y-88581500D02*
X104816900Y-123581500D01*
X99316900Y-88581500D02*
X99316900Y-123581500D01*
X93816900Y-88581500D02*
X93816900Y-123581500D01*
X88316900Y-88581500D02*
X88316900Y-123581500D01*
X82816900Y-88581500D02*
X82816900Y-123581500D01*
X176316900Y-53581500D02*
X176316900Y-88581500D01*
X170816900Y-53581500D02*
X170816900Y-88581500D01*
X165316900Y-53581500D02*
X165316900Y-88581500D01*
X159816900Y-53581500D02*
X159816900Y-88581500D01*
X154316900Y-53581500D02*
X154316900Y-88581500D01*
X148816900Y-53581500D02*
X148816900Y-88581500D01*
X143316900Y-53581500D02*
X143316900Y-88581500D01*
X137816900Y-53581500D02*
X137816900Y-88581500D01*
X132316900Y-53581500D02*
X132316900Y-88581500D01*
X126816900Y-53581500D02*
X126816900Y-88581500D01*
X121316900Y-53581500D02*
X121316900Y-88581500D01*
X115816900Y-53581500D02*
X115816900Y-88581500D01*
X110316900Y-53581500D02*
X110316900Y-88581500D01*
X104816900Y-53581500D02*
X104816900Y-88581500D01*
X99316900Y-53581500D02*
X99316900Y-88581500D01*
X93816900Y-53581500D02*
X93816900Y-88581500D01*
X88316900Y-53581500D02*
X88316900Y-88581500D01*
X82816900Y-88581500D02*
X88316900Y-88581500D01*
X82816900Y-53581500D02*
X88316900Y-53581500D01*
X88316900Y-53581500D02*
X88316900Y-88581500D01*
X82816900Y-53581500D02*
X82816900Y-88581500D01*
M02*
