G04 #@! TF.GenerationSoftware,KiCad,Pcbnew,5.1.5+dfsg1-2build2*
G04 #@! TF.CreationDate,2022-01-05T21:46:20-05:00*
G04 #@! TF.ProjectId,PCT2075_PROBE_PCB,50435432-3037-4355-9f50-524f42455f50,rev?*
G04 #@! TF.SameCoordinates,Original*
G04 #@! TF.FileFunction,Soldermask,Top*
G04 #@! TF.FilePolarity,Negative*
%FSLAX46Y46*%
G04 Gerber Fmt 4.6, Leading zero omitted, Abs format (unit mm)*
G04 Created by KiCad (PCBNEW 5.1.5+dfsg1-2build2) date 2022-01-05 21:46:20*
%MOMM*%
%LPD*%
G04 APERTURE LIST*
%ADD10C,0.100000*%
G04 APERTURE END LIST*
D10*
G36*
X100986000Y-133551000D02*
G01*
X100284000Y-133551000D01*
X100284000Y-128449000D01*
X100986000Y-128449000D01*
X100986000Y-133551000D01*
G37*
G36*
X103691000Y-133551000D02*
G01*
X102989000Y-133551000D01*
X102989000Y-128449000D01*
X103691000Y-128449000D01*
X103691000Y-133551000D01*
G37*
G36*
X102351000Y-133551000D02*
G01*
X101649000Y-133551000D01*
X101649000Y-128449000D01*
X102351000Y-128449000D01*
X102351000Y-133551000D01*
G37*
G36*
X102588674Y-124403465D02*
G01*
X102626367Y-124414899D01*
X102661103Y-124433466D01*
X102691548Y-124458452D01*
X102716534Y-124488897D01*
X102735101Y-124523633D01*
X102746535Y-124561326D01*
X102751000Y-124606661D01*
X102751000Y-125443339D01*
X102746535Y-125488674D01*
X102735101Y-125526367D01*
X102716534Y-125561103D01*
X102691548Y-125591548D01*
X102661103Y-125616534D01*
X102626367Y-125635101D01*
X102588674Y-125646535D01*
X102543339Y-125651000D01*
X101456661Y-125651000D01*
X101411326Y-125646535D01*
X101373633Y-125635101D01*
X101338897Y-125616534D01*
X101308452Y-125591548D01*
X101283466Y-125561103D01*
X101264899Y-125526367D01*
X101253465Y-125488674D01*
X101249000Y-125443339D01*
X101249000Y-124606661D01*
X101253465Y-124561326D01*
X101264899Y-124523633D01*
X101283466Y-124488897D01*
X101308452Y-124458452D01*
X101338897Y-124433466D01*
X101373633Y-124414899D01*
X101411326Y-124403465D01*
X101456661Y-124399000D01*
X102543339Y-124399000D01*
X102588674Y-124403465D01*
G37*
G36*
X102588674Y-122353465D02*
G01*
X102626367Y-122364899D01*
X102661103Y-122383466D01*
X102691548Y-122408452D01*
X102716534Y-122438897D01*
X102735101Y-122473633D01*
X102746535Y-122511326D01*
X102751000Y-122556661D01*
X102751000Y-123393339D01*
X102746535Y-123438674D01*
X102735101Y-123476367D01*
X102716534Y-123511103D01*
X102691548Y-123541548D01*
X102661103Y-123566534D01*
X102626367Y-123585101D01*
X102588674Y-123596535D01*
X102543339Y-123601000D01*
X101456661Y-123601000D01*
X101411326Y-123596535D01*
X101373633Y-123585101D01*
X101338897Y-123566534D01*
X101308452Y-123541548D01*
X101283466Y-123511103D01*
X101264899Y-123476367D01*
X101253465Y-123438674D01*
X101249000Y-123393339D01*
X101249000Y-122556661D01*
X101253465Y-122511326D01*
X101264899Y-122473633D01*
X101283466Y-122438897D01*
X101308452Y-122408452D01*
X101338897Y-122383466D01*
X101373633Y-122364899D01*
X101411326Y-122353465D01*
X101456661Y-122349000D01*
X102543339Y-122349000D01*
X102588674Y-122353465D01*
G37*
G36*
X102588674Y-119403465D02*
G01*
X102626367Y-119414899D01*
X102661103Y-119433466D01*
X102691548Y-119458452D01*
X102716534Y-119488897D01*
X102735101Y-119523633D01*
X102746535Y-119561326D01*
X102751000Y-119606661D01*
X102751000Y-120443339D01*
X102746535Y-120488674D01*
X102735101Y-120526367D01*
X102716534Y-120561103D01*
X102691548Y-120591548D01*
X102661103Y-120616534D01*
X102626367Y-120635101D01*
X102588674Y-120646535D01*
X102543339Y-120651000D01*
X101456661Y-120651000D01*
X101411326Y-120646535D01*
X101373633Y-120635101D01*
X101338897Y-120616534D01*
X101308452Y-120591548D01*
X101283466Y-120561103D01*
X101264899Y-120526367D01*
X101253465Y-120488674D01*
X101249000Y-120443339D01*
X101249000Y-119606661D01*
X101253465Y-119561326D01*
X101264899Y-119523633D01*
X101283466Y-119488897D01*
X101308452Y-119458452D01*
X101338897Y-119433466D01*
X101373633Y-119414899D01*
X101411326Y-119403465D01*
X101456661Y-119399000D01*
X102543339Y-119399000D01*
X102588674Y-119403465D01*
G37*
G36*
X102588674Y-117353465D02*
G01*
X102626367Y-117364899D01*
X102661103Y-117383466D01*
X102691548Y-117408452D01*
X102716534Y-117438897D01*
X102735101Y-117473633D01*
X102746535Y-117511326D01*
X102751000Y-117556661D01*
X102751000Y-118393339D01*
X102746535Y-118438674D01*
X102735101Y-118476367D01*
X102716534Y-118511103D01*
X102691548Y-118541548D01*
X102661103Y-118566534D01*
X102626367Y-118585101D01*
X102588674Y-118596535D01*
X102543339Y-118601000D01*
X101456661Y-118601000D01*
X101411326Y-118596535D01*
X101373633Y-118585101D01*
X101338897Y-118566534D01*
X101308452Y-118541548D01*
X101283466Y-118511103D01*
X101264899Y-118476367D01*
X101253465Y-118438674D01*
X101249000Y-118393339D01*
X101249000Y-117556661D01*
X101253465Y-117511326D01*
X101264899Y-117473633D01*
X101283466Y-117438897D01*
X101308452Y-117408452D01*
X101338897Y-117383466D01*
X101373633Y-117364899D01*
X101411326Y-117353465D01*
X101456661Y-117349000D01*
X102543339Y-117349000D01*
X102588674Y-117353465D01*
G37*
G36*
X102588674Y-114403465D02*
G01*
X102626367Y-114414899D01*
X102661103Y-114433466D01*
X102691548Y-114458452D01*
X102716534Y-114488897D01*
X102735101Y-114523633D01*
X102746535Y-114561326D01*
X102751000Y-114606661D01*
X102751000Y-115443339D01*
X102746535Y-115488674D01*
X102735101Y-115526367D01*
X102716534Y-115561103D01*
X102691548Y-115591548D01*
X102661103Y-115616534D01*
X102626367Y-115635101D01*
X102588674Y-115646535D01*
X102543339Y-115651000D01*
X101456661Y-115651000D01*
X101411326Y-115646535D01*
X101373633Y-115635101D01*
X101338897Y-115616534D01*
X101308452Y-115591548D01*
X101283466Y-115561103D01*
X101264899Y-115526367D01*
X101253465Y-115488674D01*
X101249000Y-115443339D01*
X101249000Y-114606661D01*
X101253465Y-114561326D01*
X101264899Y-114523633D01*
X101283466Y-114488897D01*
X101308452Y-114458452D01*
X101338897Y-114433466D01*
X101373633Y-114414899D01*
X101411326Y-114403465D01*
X101456661Y-114399000D01*
X102543339Y-114399000D01*
X102588674Y-114403465D01*
G37*
G36*
X102588674Y-112353465D02*
G01*
X102626367Y-112364899D01*
X102661103Y-112383466D01*
X102691548Y-112408452D01*
X102716534Y-112438897D01*
X102735101Y-112473633D01*
X102746535Y-112511326D01*
X102751000Y-112556661D01*
X102751000Y-113393339D01*
X102746535Y-113438674D01*
X102735101Y-113476367D01*
X102716534Y-113511103D01*
X102691548Y-113541548D01*
X102661103Y-113566534D01*
X102626367Y-113585101D01*
X102588674Y-113596535D01*
X102543339Y-113601000D01*
X101456661Y-113601000D01*
X101411326Y-113596535D01*
X101373633Y-113585101D01*
X101338897Y-113566534D01*
X101308452Y-113541548D01*
X101283466Y-113511103D01*
X101264899Y-113476367D01*
X101253465Y-113438674D01*
X101249000Y-113393339D01*
X101249000Y-112556661D01*
X101253465Y-112511326D01*
X101264899Y-112473633D01*
X101283466Y-112438897D01*
X101308452Y-112408452D01*
X101338897Y-112383466D01*
X101373633Y-112364899D01*
X101411326Y-112353465D01*
X101456661Y-112349000D01*
X102543339Y-112349000D01*
X102588674Y-112353465D01*
G37*
G36*
X101350000Y-106590000D02*
G01*
X100738000Y-106590000D01*
X100738000Y-105788000D01*
X101350000Y-105788000D01*
X101350000Y-106590000D01*
G37*
G36*
X102300000Y-106590000D02*
G01*
X101688000Y-106590000D01*
X101688000Y-105788000D01*
X102300000Y-105788000D01*
X102300000Y-106590000D01*
G37*
G36*
X103250000Y-106590000D02*
G01*
X102638000Y-106590000D01*
X102638000Y-105788000D01*
X103250000Y-105788000D01*
X103250000Y-106590000D01*
G37*
G36*
X102300000Y-104270000D02*
G01*
X101688000Y-104270000D01*
X101688000Y-103468000D01*
X102300000Y-103468000D01*
X102300000Y-104270000D01*
G37*
G36*
X103250000Y-104270000D02*
G01*
X102638000Y-104270000D01*
X102638000Y-103468000D01*
X103250000Y-103468000D01*
X103250000Y-104270000D01*
G37*
G36*
X101350000Y-104270000D02*
G01*
X100738000Y-104270000D01*
X100738000Y-103468000D01*
X101350000Y-103468000D01*
X101350000Y-104270000D01*
G37*
G36*
X101432674Y-100612465D02*
G01*
X101470367Y-100623899D01*
X101505103Y-100642466D01*
X101535548Y-100667452D01*
X101560534Y-100697897D01*
X101579101Y-100732633D01*
X101590535Y-100770326D01*
X101595000Y-100815661D01*
X101595000Y-101902339D01*
X101590535Y-101947674D01*
X101579101Y-101985367D01*
X101560534Y-102020103D01*
X101535548Y-102050548D01*
X101505103Y-102075534D01*
X101470367Y-102094101D01*
X101432674Y-102105535D01*
X101387339Y-102110000D01*
X100550661Y-102110000D01*
X100505326Y-102105535D01*
X100467633Y-102094101D01*
X100432897Y-102075534D01*
X100402452Y-102050548D01*
X100377466Y-102020103D01*
X100358899Y-101985367D01*
X100347465Y-101947674D01*
X100343000Y-101902339D01*
X100343000Y-100815661D01*
X100347465Y-100770326D01*
X100358899Y-100732633D01*
X100377466Y-100697897D01*
X100402452Y-100667452D01*
X100432897Y-100642466D01*
X100467633Y-100623899D01*
X100505326Y-100612465D01*
X100550661Y-100608000D01*
X101387339Y-100608000D01*
X101432674Y-100612465D01*
G37*
G36*
X103482674Y-100612465D02*
G01*
X103520367Y-100623899D01*
X103555103Y-100642466D01*
X103585548Y-100667452D01*
X103610534Y-100697897D01*
X103629101Y-100732633D01*
X103640535Y-100770326D01*
X103645000Y-100815661D01*
X103645000Y-101902339D01*
X103640535Y-101947674D01*
X103629101Y-101985367D01*
X103610534Y-102020103D01*
X103585548Y-102050548D01*
X103555103Y-102075534D01*
X103520367Y-102094101D01*
X103482674Y-102105535D01*
X103437339Y-102110000D01*
X102600661Y-102110000D01*
X102555326Y-102105535D01*
X102517633Y-102094101D01*
X102482897Y-102075534D01*
X102452452Y-102050548D01*
X102427466Y-102020103D01*
X102408899Y-101985367D01*
X102397465Y-101947674D01*
X102393000Y-101902339D01*
X102393000Y-100815661D01*
X102397465Y-100770326D01*
X102408899Y-100732633D01*
X102427466Y-100697897D01*
X102452452Y-100667452D01*
X102482897Y-100642466D01*
X102517633Y-100623899D01*
X102555326Y-100612465D01*
X102600661Y-100608000D01*
X103437339Y-100608000D01*
X103482674Y-100612465D01*
G37*
M02*
