G04 #@! TF.GenerationSoftware,KiCad,Pcbnew,5.1.5+dfsg1-2build2*
G04 #@! TF.CreationDate,2022-01-05T21:46:20-05:00*
G04 #@! TF.ProjectId,PCT2075_PROBE_PCB,50435432-3037-4355-9f50-524f42455f50,rev?*
G04 #@! TF.SameCoordinates,Original*
G04 #@! TF.FileFunction,Soldermask,Bot*
G04 #@! TF.FilePolarity,Negative*
%FSLAX46Y46*%
G04 Gerber Fmt 4.6, Leading zero omitted, Abs format (unit mm)*
G04 Created by KiCad (PCBNEW 5.1.5+dfsg1-2build2) date 2022-01-05 21:46:20*
%MOMM*%
%LPD*%
G04 APERTURE LIST*
%ADD10C,0.100000*%
G04 APERTURE END LIST*
D10*
G36*
X103351000Y-133551000D02*
G01*
X102649000Y-133551000D01*
X102649000Y-128449000D01*
X103351000Y-128449000D01*
X103351000Y-133551000D01*
G37*
G36*
X101351000Y-133551000D02*
G01*
X100649000Y-133551000D01*
X100649000Y-128449000D01*
X101351000Y-128449000D01*
X101351000Y-133551000D01*
G37*
G36*
X102262199Y-107674954D02*
G01*
X102274450Y-107675556D01*
X102292869Y-107675556D01*
X102315149Y-107677750D01*
X102399233Y-107694476D01*
X102420660Y-107700976D01*
X102499858Y-107733780D01*
X102505303Y-107736691D01*
X102505309Y-107736693D01*
X102514169Y-107741429D01*
X102514173Y-107741432D01*
X102519614Y-107744340D01*
X102590899Y-107791971D01*
X102608204Y-107806172D01*
X102668828Y-107866796D01*
X102683029Y-107884101D01*
X102730660Y-107955386D01*
X102733568Y-107960827D01*
X102733571Y-107960831D01*
X102738307Y-107969691D01*
X102738309Y-107969697D01*
X102741220Y-107975142D01*
X102774024Y-108054340D01*
X102780524Y-108075767D01*
X102797250Y-108159851D01*
X102799444Y-108182131D01*
X102799444Y-108200550D01*
X102800046Y-108212801D01*
X102801852Y-108231139D01*
X102801852Y-108768860D01*
X102800263Y-108784999D01*
X102795855Y-108799528D01*
X102790394Y-108812711D01*
X102785612Y-108836745D01*
X102785611Y-108861249D01*
X102790391Y-108885282D01*
X102799768Y-108907921D01*
X102801000Y-108909765D01*
X102801000Y-110141050D01*
X102794525Y-110153164D01*
X102787412Y-110176613D01*
X102785010Y-110200999D01*
X102787412Y-110225385D01*
X102794525Y-110248834D01*
X102796848Y-110253746D01*
X102800263Y-110265001D01*
X102801852Y-110281140D01*
X102801852Y-110818862D01*
X102800046Y-110837199D01*
X102799444Y-110849450D01*
X102799444Y-110867869D01*
X102797250Y-110890149D01*
X102780524Y-110974233D01*
X102774024Y-110995660D01*
X102741220Y-111074858D01*
X102738309Y-111080303D01*
X102738307Y-111080309D01*
X102733571Y-111089169D01*
X102733568Y-111089173D01*
X102730660Y-111094614D01*
X102683029Y-111165899D01*
X102668828Y-111183204D01*
X102608204Y-111243828D01*
X102590899Y-111258029D01*
X102519614Y-111305660D01*
X102514173Y-111308568D01*
X102514169Y-111308571D01*
X102505309Y-111313307D01*
X102505303Y-111313309D01*
X102499858Y-111316220D01*
X102420660Y-111349024D01*
X102399233Y-111355524D01*
X102315149Y-111372250D01*
X102292869Y-111374444D01*
X102274450Y-111374444D01*
X102262199Y-111375046D01*
X102243862Y-111376852D01*
X101756138Y-111376852D01*
X101737801Y-111375046D01*
X101725550Y-111374444D01*
X101707131Y-111374444D01*
X101684851Y-111372250D01*
X101600767Y-111355524D01*
X101579340Y-111349024D01*
X101500142Y-111316220D01*
X101494697Y-111313309D01*
X101494691Y-111313307D01*
X101485831Y-111308571D01*
X101485827Y-111308568D01*
X101480386Y-111305660D01*
X101409101Y-111258029D01*
X101391796Y-111243828D01*
X101331172Y-111183204D01*
X101316971Y-111165899D01*
X101269340Y-111094614D01*
X101266432Y-111089173D01*
X101266429Y-111089169D01*
X101261693Y-111080309D01*
X101261691Y-111080303D01*
X101258780Y-111074858D01*
X101225976Y-110995660D01*
X101219476Y-110974233D01*
X101202750Y-110890149D01*
X101200556Y-110867869D01*
X101200556Y-110849450D01*
X101199954Y-110837199D01*
X101198148Y-110818862D01*
X101198148Y-110281140D01*
X101199737Y-110265001D01*
X101204145Y-110250472D01*
X101209606Y-110237289D01*
X101214388Y-110213255D01*
X101214389Y-110188751D01*
X101209609Y-110164718D01*
X101200232Y-110142079D01*
X101199000Y-110140235D01*
X101199000Y-108908950D01*
X101205475Y-108896836D01*
X101212588Y-108873387D01*
X101214990Y-108849001D01*
X101212588Y-108824615D01*
X101205475Y-108801166D01*
X101203152Y-108796254D01*
X101199737Y-108784999D01*
X101198148Y-108768860D01*
X101198148Y-108231138D01*
X101199954Y-108212801D01*
X101200556Y-108200550D01*
X101200556Y-108182131D01*
X101202750Y-108159851D01*
X101219476Y-108075767D01*
X101225976Y-108054340D01*
X101258780Y-107975142D01*
X101261691Y-107969697D01*
X101261693Y-107969691D01*
X101266429Y-107960831D01*
X101266432Y-107960827D01*
X101269340Y-107955386D01*
X101316971Y-107884101D01*
X101331172Y-107866796D01*
X101391796Y-107806172D01*
X101409101Y-107791971D01*
X101480386Y-107744340D01*
X101485827Y-107741432D01*
X101485831Y-107741429D01*
X101494691Y-107736693D01*
X101494697Y-107736691D01*
X101500142Y-107733780D01*
X101579340Y-107700976D01*
X101600767Y-107694476D01*
X101684851Y-107677750D01*
X101707131Y-107675556D01*
X101725550Y-107675556D01*
X101737801Y-107674954D01*
X101756139Y-107673148D01*
X102243861Y-107673148D01*
X102262199Y-107674954D01*
G37*
M02*
