G04 #@! TF.GenerationSoftware,KiCad,Pcbnew,5.1.5+dfsg1-2build2*
G04 #@! TF.CreationDate,2022-01-05T21:46:20-05:00*
G04 #@! TF.ProjectId,PCT2075_PROBE_PCB,50435432-3037-4355-9f50-524f42455f50,rev?*
G04 #@! TF.SameCoordinates,Original*
G04 #@! TF.FileFunction,Copper,L2,Bot*
G04 #@! TF.FilePolarity,Positive*
%FSLAX46Y46*%
G04 Gerber Fmt 4.6, Leading zero omitted, Abs format (unit mm)*
G04 Created by KiCad (PCBNEW 5.1.5+dfsg1-2build2) date 2022-01-05 21:46:20*
%MOMM*%
%LPD*%
G04 APERTURE LIST*
%ADD10R,0.600000X5.000000*%
%ADD11R,1.500000X1.000000*%
%ADD12C,0.100000*%
%ADD13C,0.800000*%
%ADD14C,0.250000*%
%ADD15C,0.254000*%
G04 APERTURE END LIST*
D10*
X101000000Y-131000000D03*
X103000000Y-131000000D03*
D11*
X102000000Y-109525000D03*
G04 #@! TA.AperFunction,SMDPad,CuDef*
D12*
G36*
X101250602Y-108225000D02*
G01*
X101250602Y-108200466D01*
X101255412Y-108151635D01*
X101264984Y-108103510D01*
X101279228Y-108056555D01*
X101298005Y-108011222D01*
X101321136Y-107967949D01*
X101348396Y-107927150D01*
X101379524Y-107889221D01*
X101414221Y-107854524D01*
X101452150Y-107823396D01*
X101492949Y-107796136D01*
X101536222Y-107773005D01*
X101581555Y-107754228D01*
X101628510Y-107739984D01*
X101676635Y-107730412D01*
X101725466Y-107725602D01*
X101750000Y-107725602D01*
X101750000Y-107725000D01*
X102250000Y-107725000D01*
X102250000Y-107725602D01*
X102274534Y-107725602D01*
X102323365Y-107730412D01*
X102371490Y-107739984D01*
X102418445Y-107754228D01*
X102463778Y-107773005D01*
X102507051Y-107796136D01*
X102547850Y-107823396D01*
X102585779Y-107854524D01*
X102620476Y-107889221D01*
X102651604Y-107927150D01*
X102678864Y-107967949D01*
X102701995Y-108011222D01*
X102720772Y-108056555D01*
X102735016Y-108103510D01*
X102744588Y-108151635D01*
X102749398Y-108200466D01*
X102749398Y-108225000D01*
X102750000Y-108225000D01*
X102750000Y-108775000D01*
X101250000Y-108775000D01*
X101250000Y-108225000D01*
X101250602Y-108225000D01*
G37*
G04 #@! TD.AperFunction*
G04 #@! TA.AperFunction,SMDPad,CuDef*
G36*
X102750000Y-110275000D02*
G01*
X102750000Y-110825000D01*
X102749398Y-110825000D01*
X102749398Y-110849534D01*
X102744588Y-110898365D01*
X102735016Y-110946490D01*
X102720772Y-110993445D01*
X102701995Y-111038778D01*
X102678864Y-111082051D01*
X102651604Y-111122850D01*
X102620476Y-111160779D01*
X102585779Y-111195476D01*
X102547850Y-111226604D01*
X102507051Y-111253864D01*
X102463778Y-111276995D01*
X102418445Y-111295772D01*
X102371490Y-111310016D01*
X102323365Y-111319588D01*
X102274534Y-111324398D01*
X102250000Y-111324398D01*
X102250000Y-111325000D01*
X101750000Y-111325000D01*
X101750000Y-111324398D01*
X101725466Y-111324398D01*
X101676635Y-111319588D01*
X101628510Y-111310016D01*
X101581555Y-111295772D01*
X101536222Y-111276995D01*
X101492949Y-111253864D01*
X101452150Y-111226604D01*
X101414221Y-111195476D01*
X101379524Y-111160779D01*
X101348396Y-111122850D01*
X101321136Y-111082051D01*
X101298005Y-111038778D01*
X101279228Y-110993445D01*
X101264984Y-110946490D01*
X101255412Y-110898365D01*
X101250602Y-110849534D01*
X101250602Y-110825000D01*
X101250000Y-110825000D01*
X101250000Y-110275000D01*
X102750000Y-110275000D01*
G37*
G04 #@! TD.AperFunction*
D13*
X101994000Y-104840000D03*
X100630000Y-110641400D03*
X102944000Y-102915200D03*
X103340000Y-134147500D03*
X102000000Y-116214200D03*
X103004000Y-105152100D03*
X101562500Y-126439300D03*
D14*
X102000000Y-108225000D02*
X102461900Y-108225000D01*
X102461900Y-108225000D02*
X103091500Y-108854600D01*
X103091500Y-108854600D02*
X103091500Y-121674600D01*
X103091500Y-121674600D02*
X100831100Y-123935000D01*
X100831100Y-123935000D02*
X100831100Y-128005800D01*
X100831100Y-128005800D02*
X101000000Y-128174700D01*
X101994000Y-104840000D02*
X102000000Y-104846000D01*
X102000000Y-104846000D02*
X102000000Y-108225000D01*
X101000000Y-131000000D02*
X101000000Y-128174700D01*
X102000000Y-110825000D02*
X100813600Y-110825000D01*
X100813600Y-110825000D02*
X100630000Y-110641400D01*
X100924700Y-109525000D02*
X100924700Y-104865700D01*
X100924700Y-104865700D02*
X102875200Y-102915200D01*
X102875200Y-102915200D02*
X102944000Y-102915200D01*
X102000000Y-109525000D02*
X100924700Y-109525000D01*
X103340000Y-134147500D02*
X100887400Y-134147500D01*
X100887400Y-134147500D02*
X100374600Y-133634700D01*
X100374600Y-133634700D02*
X100374600Y-117839600D01*
X100374600Y-117839600D02*
X102000000Y-116214200D01*
X101562500Y-126439300D02*
X103541900Y-124459900D01*
X103541900Y-124459900D02*
X103541900Y-105690000D01*
X103541900Y-105690000D02*
X103004000Y-105152100D01*
X101562500Y-126439300D02*
X103000000Y-127876800D01*
X103000000Y-127876800D02*
X103000000Y-131000000D01*
D15*
G36*
X101969000Y-105050161D02*
G01*
X101969000Y-105254039D01*
X102008774Y-105453998D01*
X102086795Y-105642356D01*
X102200063Y-105811874D01*
X102344226Y-105956037D01*
X102513744Y-106069305D01*
X102702102Y-106147326D01*
X102781901Y-106163199D01*
X102781901Y-108390070D01*
X102750000Y-108386928D01*
X101684700Y-108386928D01*
X101684700Y-105180501D01*
X102007228Y-104857973D01*
X101969000Y-105050161D01*
G37*
X101969000Y-105050161D02*
X101969000Y-105254039D01*
X102008774Y-105453998D01*
X102086795Y-105642356D01*
X102200063Y-105811874D01*
X102344226Y-105956037D01*
X102513744Y-106069305D01*
X102702102Y-106147326D01*
X102781901Y-106163199D01*
X102781901Y-108390070D01*
X102750000Y-108386928D01*
X101684700Y-108386928D01*
X101684700Y-105180501D01*
X102007228Y-104857973D01*
X101969000Y-105050161D01*
M02*
