G04 #@! TF.GenerationSoftware,KiCad,Pcbnew,5.1.5+dfsg1-2build2*
G04 #@! TF.CreationDate,2022-01-05T21:46:20-05:00*
G04 #@! TF.ProjectId,PCT2075_PROBE_PCB,50435432-3037-4355-9f50-524f42455f50,rev?*
G04 #@! TF.SameCoordinates,Original*
G04 #@! TF.FileFunction,Legend,Top*
G04 #@! TF.FilePolarity,Positive*
%FSLAX46Y46*%
G04 Gerber Fmt 4.6, Leading zero omitted, Abs format (unit mm)*
G04 Created by KiCad (PCBNEW 5.1.5+dfsg1-2build2) date 2022-01-05 21:46:20*
%MOMM*%
%LPD*%
G04 APERTURE LIST*
%ADD10C,0.150000*%
%ADD11C,0.120000*%
G04 APERTURE END LIST*
D10*
X101861957Y-134789828D02*
X101861957Y-134189828D01*
X102004814Y-134189828D01*
X102090528Y-134218400D01*
X102147671Y-134275542D01*
X102176242Y-134332685D01*
X102204814Y-134446971D01*
X102204814Y-134532685D01*
X102176242Y-134646971D01*
X102147671Y-134704114D01*
X102090528Y-134761257D01*
X102004814Y-134789828D01*
X101861957Y-134789828D01*
X103830414Y-134796185D02*
X103801842Y-134824757D01*
X103716128Y-134853328D01*
X103658985Y-134853328D01*
X103573271Y-134824757D01*
X103516128Y-134767614D01*
X103487557Y-134710471D01*
X103458985Y-134596185D01*
X103458985Y-134510471D01*
X103487557Y-134396185D01*
X103516128Y-134339042D01*
X103573271Y-134281900D01*
X103658985Y-134253328D01*
X103716128Y-134253328D01*
X103801842Y-134281900D01*
X103830414Y-134310471D01*
X100139528Y-134535857D02*
X100596671Y-134535857D01*
X100368100Y-134764428D02*
X100368100Y-134307285D01*
D11*
X102840000Y-133700000D02*
X102840000Y-128300000D01*
X103840000Y-133700000D02*
X102840000Y-133700000D01*
X103840000Y-128300000D02*
X103840000Y-133700000D01*
X102840000Y-128300000D02*
X103840000Y-128300000D01*
X101500000Y-133700000D02*
X101500000Y-128300000D01*
X102500000Y-133700000D02*
X101500000Y-133700000D01*
X102500000Y-128300000D02*
X102500000Y-133700000D01*
X101500000Y-128300000D02*
X102500000Y-128300000D01*
X100135000Y-133700000D02*
X100135000Y-128300000D01*
X101135000Y-133700000D02*
X100135000Y-133700000D01*
X101135000Y-128300000D02*
X101135000Y-133700000D01*
X100135000Y-128300000D02*
X101135000Y-128300000D01*
X103594000Y-105829000D02*
X103594000Y-103529000D01*
X100394000Y-104229000D02*
X100394000Y-105829000D01*
X101290000Y-123738748D02*
X101290000Y-124261252D01*
X102710000Y-123738748D02*
X102710000Y-124261252D01*
X101290000Y-113738748D02*
X101290000Y-114261252D01*
X102710000Y-113738748D02*
X102710000Y-114261252D01*
X102710000Y-119261252D02*
X102710000Y-118738748D01*
X101290000Y-119261252D02*
X101290000Y-118738748D01*
X101732748Y-102069000D02*
X102255252Y-102069000D01*
X101732748Y-100649000D02*
X102255252Y-100649000D01*
D10*
X102881180Y-127409533D02*
X103595466Y-127409533D01*
X103738323Y-127457152D01*
X103833561Y-127552390D01*
X103881180Y-127695247D01*
X103881180Y-127790485D01*
X102881180Y-127028580D02*
X102881180Y-126409533D01*
X103262133Y-126742866D01*
X103262133Y-126600009D01*
X103309752Y-126504771D01*
X103357371Y-126457152D01*
X103452609Y-126409533D01*
X103690704Y-126409533D01*
X103785942Y-126457152D01*
X103833561Y-126504771D01*
X103881180Y-126600009D01*
X103881180Y-126885723D01*
X103833561Y-126980961D01*
X103785942Y-127028580D01*
X101598480Y-127409533D02*
X102312766Y-127409533D01*
X102455623Y-127457152D01*
X102550861Y-127552390D01*
X102598480Y-127695247D01*
X102598480Y-127790485D01*
X101693719Y-126980961D02*
X101646100Y-126933342D01*
X101598480Y-126838104D01*
X101598480Y-126600009D01*
X101646100Y-126504771D01*
X101693719Y-126457152D01*
X101788957Y-126409533D01*
X101884195Y-126409533D01*
X102027052Y-126457152D01*
X102598480Y-127028580D01*
X102598480Y-126409533D01*
X100137980Y-127358733D02*
X100852266Y-127358733D01*
X100995123Y-127406352D01*
X101090361Y-127501590D01*
X101137980Y-127644447D01*
X101137980Y-127739685D01*
X101137980Y-126358733D02*
X101137980Y-126930161D01*
X101137980Y-126644447D02*
X100137980Y-126644447D01*
X100280838Y-126739685D01*
X100376076Y-126834923D01*
X100423695Y-126930161D01*
X101484180Y-108534104D02*
X102293704Y-108534104D01*
X102388942Y-108486485D01*
X102436561Y-108438866D01*
X102484180Y-108343628D01*
X102484180Y-108153152D01*
X102436561Y-108057914D01*
X102388942Y-108010295D01*
X102293704Y-107962676D01*
X101484180Y-107962676D01*
X102484180Y-106962676D02*
X102484180Y-107534104D01*
X102484180Y-107248390D02*
X101484180Y-107248390D01*
X101627038Y-107343628D01*
X101722276Y-107438866D01*
X101769895Y-107534104D01*
X101074480Y-124029766D02*
X100598290Y-124363100D01*
X101074480Y-124601195D02*
X100074480Y-124601195D01*
X100074480Y-124220242D01*
X100122100Y-124125004D01*
X100169719Y-124077385D01*
X100264957Y-124029766D01*
X100407814Y-124029766D01*
X100503052Y-124077385D01*
X100550671Y-124125004D01*
X100598290Y-124220242D01*
X100598290Y-124601195D01*
X100074480Y-123696433D02*
X100074480Y-123077385D01*
X100455433Y-123410719D01*
X100455433Y-123267861D01*
X100503052Y-123172623D01*
X100550671Y-123125004D01*
X100645909Y-123077385D01*
X100884004Y-123077385D01*
X100979242Y-123125004D01*
X101026861Y-123172623D01*
X101074480Y-123267861D01*
X101074480Y-123553576D01*
X101026861Y-123648814D01*
X100979242Y-123696433D01*
X101125280Y-114072966D02*
X100649090Y-114406300D01*
X101125280Y-114644395D02*
X100125280Y-114644395D01*
X100125280Y-114263442D01*
X100172900Y-114168204D01*
X100220519Y-114120585D01*
X100315757Y-114072966D01*
X100458614Y-114072966D01*
X100553852Y-114120585D01*
X100601471Y-114168204D01*
X100649090Y-114263442D01*
X100649090Y-114644395D01*
X100220519Y-113692014D02*
X100172900Y-113644395D01*
X100125280Y-113549157D01*
X100125280Y-113311061D01*
X100172900Y-113215823D01*
X100220519Y-113168204D01*
X100315757Y-113120585D01*
X100410995Y-113120585D01*
X100553852Y-113168204D01*
X101125280Y-113739633D01*
X101125280Y-113120585D01*
X101087180Y-119064066D02*
X100610990Y-119397400D01*
X101087180Y-119635495D02*
X100087180Y-119635495D01*
X100087180Y-119254542D01*
X100134800Y-119159304D01*
X100182419Y-119111685D01*
X100277657Y-119064066D01*
X100420514Y-119064066D01*
X100515752Y-119111685D01*
X100563371Y-119159304D01*
X100610990Y-119254542D01*
X100610990Y-119635495D01*
X101087180Y-118111685D02*
X101087180Y-118683114D01*
X101087180Y-118397400D02*
X100087180Y-118397400D01*
X100230038Y-118492638D01*
X100325276Y-118587876D01*
X100372895Y-118683114D01*
X101204733Y-103189042D02*
X101157114Y-103236661D01*
X101014257Y-103284280D01*
X100919019Y-103284280D01*
X100776161Y-103236661D01*
X100680923Y-103141423D01*
X100633304Y-103046185D01*
X100585685Y-102855709D01*
X100585685Y-102712852D01*
X100633304Y-102522376D01*
X100680923Y-102427138D01*
X100776161Y-102331900D01*
X100919019Y-102284280D01*
X101014257Y-102284280D01*
X101157114Y-102331900D01*
X101204733Y-102379519D01*
X102157114Y-103284280D02*
X101585685Y-103284280D01*
X101871400Y-103284280D02*
X101871400Y-102284280D01*
X101776161Y-102427138D01*
X101680923Y-102522376D01*
X101585685Y-102569995D01*
M02*
