<?xml version="1.0" standalone="no"?>
 <!DOCTYPE svg PUBLIC "-//W3C//DTD SVG 1.1//EN" 
 "http://www.w3.org/Graphics/SVG/1.1/DTD/svg11.dtd"> 
<svg xmlns="http://www.w3.org/2000/svg" version="1.1" 
    width="29.7002cm" height="21.0007cm" viewBox="0 0 116930 82680 ">
<title>SVG Picture created as PCT2075_PROBE_PCB-B_Cu.svg date 2022/02/14 15:35:02 </title>
  <desc>Picture generated by PCBNEW </desc>
<g style="fill:#000000; fill-opacity:1;stroke:#000000; stroke-opacity:1;
stroke-linecap:round; stroke-linejoin:round; "
 transform="translate(0 0) scale(1 1)">
</g>
<g style="fill:#000000; fill-opacity:0.0; 
stroke:#000000; stroke-width:-0.000393701; stroke-opacity:1; 
stroke-linecap:round; stroke-linejoin:round;">
</g>
<g style="fill:#000000; fill-opacity:0.0; 
stroke:#000000; stroke-width:19.685; stroke-opacity:1; 
stroke-linecap:round; stroke-linejoin:round;">
<path d="M39370 53149
L40944 53149
" />
<path d="M39370 39370
L40944 39370
" />
<path d="M40944 39370
L40944 53149
" />
<path d="M39370 39370
L39370 53149
" />
<g >
</g>
<g style="fill:#000000; fill-opacity:0.0; 
stroke:#000000; stroke-width:0; stroke-opacity:1; 
stroke-linecap:round; stroke-linejoin:round;">
</g>
<g style="fill:#000000; fill-opacity:1.0; 
stroke:#000000; stroke-width:0; stroke-opacity:1; 
stroke-linecap:round; stroke-linejoin:round;">
<path style="fill:#000000; fill-opacity:1.0; 
stroke:#000000; stroke-width:0; stroke-opacity:1; 
stroke-linecap:round; stroke-linejoin:round;fill-rule:evenodd;"
d="M 39645.7,52559.1
39645.7,50590.6
39881.9,50590.6
39881.9,52559.1
Z" /> 
</g>
<g >
</g>
<g style="fill:#000000; fill-opacity:1.0; 
stroke:#000000; stroke-width:0; stroke-opacity:1; 
stroke-linecap:round; stroke-linejoin:round;">
<path style="fill:#000000; fill-opacity:1.0; 
stroke:#000000; stroke-width:0; stroke-opacity:1; 
stroke-linecap:round; stroke-linejoin:round;fill-rule:evenodd;"
d="M 40433.1,52559.1
40433.1,50590.6
40669.3,50590.6
40669.3,52559.1
Z" /> 
</g>
<g >
</g>
<g >
</g>
<g >
</g>
<g >
</g>
<g >
</g>
<g >
</g>
<g >
</g>
<g >
</g>
<g style="fill:#000000; fill-opacity:1.0; 
stroke:#000000; stroke-width:0; stroke-opacity:1; 
stroke-linecap:round; stroke-linejoin:round;">
<path style="fill:#000000; fill-opacity:1.0; 
stroke:#000000; stroke-width:0; stroke-opacity:1; 
stroke-linecap:round; stroke-linejoin:round;fill-rule:evenodd;"
d="M 40452.8,43316.9
39862.2,43316.9
39862.2,42923.2
40452.8,42923.2
Z" /> 
<path style="fill:#000000; fill-opacity:1.0; 
stroke:#000000; stroke-width:0; stroke-opacity:1; 
stroke-linecap:round; stroke-linejoin:round;fill-rule:evenodd;"
d="M 39862.4,42608.3
39862.4,42598.6
39864.3,42579.4
39868.1,42560.4
39873.7,42542
39881.1,42524.1
39890.2,42507.1
39900.9,42491
39913.2,42476.1
39926.9,42462.4
39941.8,42450.2
39957.9,42439.4
39974.9,42430.3
39992.7,42422.9
40011.2,42417.3
40030.2,42413.5
40049.4,42411.7
40059.1,42411.7
40059.1,42411.4
40255.9,42411.4
40255.9,42411.7
40265.6,42411.7
40284.8,42413.5
40303.7,42417.3
40322.2,42422.9
40340.1,42430.3
40357.1,42439.4
40373.2,42450.2
40388.1,42462.4
40401.8,42476.1
40414,42491
40424.7,42507.1
40433.9,42524.1
40441.2,42542
40446.9,42560.4
40450.6,42579.4
40452.5,42598.6
40452.5,42608.3
40452.8,42608.3
40452.8,42824.8
39862.2,42824.8
39862.2,42608.3
Z" /> 
<path style="fill:#000000; fill-opacity:1.0; 
stroke:#000000; stroke-width:0; stroke-opacity:1; 
stroke-linecap:round; stroke-linejoin:round;fill-rule:evenodd;"
d="M 40452.8,43415.4
40452.8,43631.9
40452.5,43631.9
40452.5,43641.5
40450.6,43660.8
40446.9,43679.7
40441.2,43698.2
40433.9,43716.1
40424.7,43733.1
40414,43749.2
40401.8,43764.1
40388.1,43777.7
40373.2,43790
40357.1,43800.7
40340.1,43809.8
40322.2,43817.2
40303.7,43822.8
40284.8,43826.6
40265.6,43828.5
40255.9,43828.5
40255.9,43828.7
40059.1,43828.7
40059.1,43828.5
40049.4,43828.5
40030.2,43826.6
40011.2,43822.8
39992.7,43817.2
39974.9,43809.8
39957.9,43800.7
39941.8,43790
39926.9,43777.7
39913.2,43764.1
39900.9,43749.2
39890.2,43733.1
39881.1,43716.1
39873.7,43698.2
39868.1,43679.7
39864.3,43660.8
39862.4,43641.5
39862.4,43631.9
39862.2,43631.9
39862.2,43415.4
Z" /> 
</g>
<g >
</g>
<g >
</g>
<g style="fill:#000000; fill-opacity:1.0; 
stroke:#000000; stroke-width:0; stroke-opacity:1; 
stroke-linecap:round; stroke-linejoin:round;">
<circle cx="40155.1" cy="41275.6" r="157.48" /> 
</g>
<g style="fill:#000000; fill-opacity:1.0; 
stroke:#000000; stroke-width:39.3701; stroke-opacity:1; 
stroke-linecap:round; stroke-linejoin:round;">
</g>
<g style="fill:#000000; fill-opacity:1.0; 
stroke:#000000; stroke-width:0; stroke-opacity:1; 
stroke-linecap:round; stroke-linejoin:round;">
<circle cx="39618.1" cy="43559.6" r="157.48" /> 
</g>
<g style="fill:#000000; fill-opacity:1.0; 
stroke:#000000; stroke-width:39.3701; stroke-opacity:1; 
stroke-linecap:round; stroke-linejoin:round;">
</g>
<g style="fill:#000000; fill-opacity:1.0; 
stroke:#000000; stroke-width:0; stroke-opacity:1; 
stroke-linecap:round; stroke-linejoin:round;">
<circle cx="40529.1" cy="40517.8" r="157.48" /> 
</g>
<g style="fill:#000000; fill-opacity:1.0; 
stroke:#000000; stroke-width:39.3701; stroke-opacity:1; 
stroke-linecap:round; stroke-linejoin:round;">
</g>
<g style="fill:#000000; fill-opacity:1.0; 
stroke:#000000; stroke-width:0; stroke-opacity:1; 
stroke-linecap:round; stroke-linejoin:round;">
<circle cx="40685" cy="52814" r="157.48" /> 
</g>
<g style="fill:#000000; fill-opacity:1.0; 
stroke:#000000; stroke-width:39.3701; stroke-opacity:1; 
stroke-linecap:round; stroke-linejoin:round;">
</g>
<g style="fill:#000000; fill-opacity:1.0; 
stroke:#000000; stroke-width:0; stroke-opacity:1; 
stroke-linecap:round; stroke-linejoin:round;">
<circle cx="40157.5" cy="45753.6" r="157.48" /> 
</g>
<g style="fill:#000000; fill-opacity:1.0; 
stroke:#000000; stroke-width:39.3701; stroke-opacity:1; 
stroke-linecap:round; stroke-linejoin:round;">
</g>
<g style="fill:#000000; fill-opacity:1.0; 
stroke:#000000; stroke-width:0; stroke-opacity:1; 
stroke-linecap:round; stroke-linejoin:round;">
<circle cx="40552.8" cy="41398.5" r="157.48" /> 
</g>
<g style="fill:#000000; fill-opacity:1.0; 
stroke:#000000; stroke-width:39.3701; stroke-opacity:1; 
stroke-linecap:round; stroke-linejoin:round;">
</g>
<g style="fill:#000000; fill-opacity:1.0; 
stroke:#000000; stroke-width:0; stroke-opacity:1; 
stroke-linecap:round; stroke-linejoin:round;">
<circle cx="39985.2" cy="49779.3" r="157.48" /> 
</g>
<g style="fill:#000000; fill-opacity:1.0; 
stroke:#000000; stroke-width:39.3701; stroke-opacity:1; 
stroke-linecap:round; stroke-linejoin:round;">
</g>
<g >
</g>
<g style="fill:#000000; fill-opacity:1.0; 
stroke:#000000; stroke-width:39.3701; stroke-opacity:1; 
stroke-linecap:round; stroke-linejoin:round;">
</g>
<g style="fill:#000000; fill-opacity:1.0; 
stroke:#000000; stroke-width:98.4252; stroke-opacity:1; 
stroke-linecap:round; stroke-linejoin:round;">
</g>
<g style="fill:#000000; fill-opacity:0.0; 
stroke:#000000; stroke-width:98.4252; stroke-opacity:1; 
stroke-linecap:round; stroke-linejoin:round;">
<path d="M40157 42608
L40339 42608
" />
<path d="M40339 42608
L40587 42856
" />
<path d="M40587 42856
L40587 47903
" />
<path d="M40587 47903
L39697 48793
" />
<path d="M39697 48793
L39697 50395
" />
<path d="M39697 50395
L39763 50462
" />
<path d="M40155 41275
L40157 41277
" />
<path d="M40157 41277
L40157 42608
" />
<path d="M39763 51574
L39763 50462
" />
<path d="M40157 43631
L39690 43631
" />
<path d="M39690 43631
L39618 43559
" />
<path d="M39734 43120
L39734 41285
" />
<path d="M39734 41285
L40502 40517
" />
<path d="M40502 40517
L40529 40517
" />
<path d="M40157 43120
L39734 43120
" />
<path d="M40685 52813
L39719 52813
" />
<path d="M39719 52813
L39517 52612
" />
<path d="M39517 52612
L39517 46393
" />
<path d="M39517 46393
L40157 45753
" />
<path d="M39985 49779
L40764 48999
" />
<path d="M40764 48999
L40764 41610
" />
<path d="M40764 41610
L40552 41398
" />
<path d="M39985 49779
L40551 50345
" />
<path d="M40551 50345
L40551 51574
" />
</g>
<g >
</g>
<g style="fill:#000000; fill-opacity:0.0; 
stroke:#000000; stroke-width:98.4252; stroke-opacity:1; 
stroke-linecap:round; stroke-linejoin:round;">
</g>
<g style="fill:#000000; fill-opacity:1.0; 
stroke:#000000; stroke-width:100; stroke-opacity:1; 
stroke-linecap:round; stroke-linejoin:round;">
<path style="fill:#000000; fill-opacity:1.0; 
stroke:#000000; stroke-width:100; stroke-opacity:1; 
stroke-linecap:round; stroke-linejoin:round;fill-rule:evenodd;"
d="M 40145.3,41358.3
40145.3,41438.6
40160.9,41517.3
40191.7,41591.5
40236.2,41658.2
40293,41715
40359.7,41759.6
40433.9,41790.3
40465.3,41796.5
40465.3,42673.3
40452.8,42672
40033.3,42672
40033.3,41409.6
40160.3,41282.7
Z" /> 
</g>
</g>
<g style="fill:#FFFFFF; fill-opacity:1.0; 
stroke:#FFFFFF; stroke-width:100; stroke-opacity:1; 
stroke-linecap:round; stroke-linejoin:round;">
</g>
<g style="fill:#FFFFFF; fill-opacity:1.0; 
stroke:#FFFFFF; stroke-width:0; stroke-opacity:1; 
stroke-linecap:round; stroke-linejoin:round;">
<circle cx="40155.1" cy="41275.6" r="68.8976" /> 
</g>
<g style="fill:#FFFFFF; fill-opacity:1.0; 
stroke:#FFFFFF; stroke-width:39.3701; stroke-opacity:1; 
stroke-linecap:round; stroke-linejoin:round;">
</g>
<g style="fill:#FFFFFF; fill-opacity:1.0; 
stroke:#FFFFFF; stroke-width:0; stroke-opacity:1; 
stroke-linecap:round; stroke-linejoin:round;">
<circle cx="39618.1" cy="43559.6" r="68.8976" /> 
</g>
<g style="fill:#FFFFFF; fill-opacity:1.0; 
stroke:#FFFFFF; stroke-width:39.3701; stroke-opacity:1; 
stroke-linecap:round; stroke-linejoin:round;">
</g>
<g style="fill:#FFFFFF; fill-opacity:1.0; 
stroke:#FFFFFF; stroke-width:0; stroke-opacity:1; 
stroke-linecap:round; stroke-linejoin:round;">
<circle cx="40529.1" cy="40517.8" r="68.8976" /> 
</g>
<g style="fill:#FFFFFF; fill-opacity:1.0; 
stroke:#FFFFFF; stroke-width:39.3701; stroke-opacity:1; 
stroke-linecap:round; stroke-linejoin:round;">
</g>
<g style="fill:#FFFFFF; fill-opacity:1.0; 
stroke:#FFFFFF; stroke-width:0; stroke-opacity:1; 
stroke-linecap:round; stroke-linejoin:round;">
<circle cx="40685" cy="52814" r="68.8976" /> 
</g>
<g style="fill:#FFFFFF; fill-opacity:1.0; 
stroke:#FFFFFF; stroke-width:39.3701; stroke-opacity:1; 
stroke-linecap:round; stroke-linejoin:round;">
</g>
<g style="fill:#FFFFFF; fill-opacity:1.0; 
stroke:#FFFFFF; stroke-width:0; stroke-opacity:1; 
stroke-linecap:round; stroke-linejoin:round;">
<circle cx="40157.5" cy="45753.6" r="68.8976" /> 
</g>
<g style="fill:#FFFFFF; fill-opacity:1.0; 
stroke:#FFFFFF; stroke-width:39.3701; stroke-opacity:1; 
stroke-linecap:round; stroke-linejoin:round;">
</g>
<g style="fill:#FFFFFF; fill-opacity:1.0; 
stroke:#FFFFFF; stroke-width:0; stroke-opacity:1; 
stroke-linecap:round; stroke-linejoin:round;">
<circle cx="40552.8" cy="41398.5" r="68.8976" /> 
</g>
<g style="fill:#FFFFFF; fill-opacity:1.0; 
stroke:#FFFFFF; stroke-width:39.3701; stroke-opacity:1; 
stroke-linecap:round; stroke-linejoin:round;">
</g>
<g style="fill:#FFFFFF; fill-opacity:1.0; 
stroke:#FFFFFF; stroke-width:0; stroke-opacity:1; 
stroke-linecap:round; stroke-linejoin:round;">
<circle cx="39985.2" cy="49779.3" r="68.8976" /> 
</g>
<g style="fill:#FFFFFF; fill-opacity:1.0; 
stroke:#FFFFFF; stroke-width:39.3701; stroke-opacity:1; 
stroke-linecap:round; stroke-linejoin:round;">
</g>
<g style="fill:#000000; fill-opacity:1.0; 
stroke:#000000; stroke-width:39.3701; stroke-opacity:1; 
stroke-linecap:round; stroke-linejoin:round;">
</g> 
</svg>
