<?xml version="1.0" standalone="no"?>
 <!DOCTYPE svg PUBLIC "-//W3C//DTD SVG 1.1//EN" 
 "http://www.w3.org/Graphics/SVG/1.1/DTD/svg11.dtd"> 
<svg xmlns="http://www.w3.org/2000/svg" version="1.1" 
    width="29.7002cm" height="21.0007cm" viewBox="0 0 116930 82680 ">
<title>SVG Picture created as PCT2075_PROBE_PCB-F_SilkS.svg date 2022/02/14 15:35:02 </title>
  <desc>Picture generated by PCBNEW </desc>
<g style="fill:#000000; fill-opacity:1;stroke:#000000; stroke-opacity:1;
stroke-linecap:round; stroke-linejoin:round; "
 transform="translate(0 0) scale(1 1)">
</g>
<g style="fill:#000000; fill-opacity:0.0; 
stroke:#000000; stroke-width:-0.000393701; stroke-opacity:1; 
stroke-linecap:round; stroke-linejoin:round;">
</g>
<g style="fill:#000000; fill-opacity:0.0; 
stroke:#000000; stroke-width:59.0551; stroke-opacity:1; 
stroke-linecap:round; stroke-linejoin:round;">
<text x="40165" y="53078.1"
textLength="236.221" font-size="314.961" lengthAdjust="spacingAndGlyphs"
text-anchor="middle" opacity="0">D</text>
<path d="M40103 53066
L40103 52830
L40159 52830
L40193 52841
L40215 52864
L40226 52886
L40238 52931
L40238 52965
L40226 53010
L40215 53033
L40193 53055
L40159 53066
L40103 53066
" />
<text x="40805" y="53103.1"
textLength="312.992" font-size="314.961" lengthAdjust="spacingAndGlyphs"
text-anchor="middle" opacity="0">C</text>
<path d="M40878 53069
L40866 53080
L40833 53091
L40810 53091
L40776 53080
L40754 53058
L40743 53035
L40731 52990
L40731 52956
L40743 52911
L40754 52889
L40776 52866
L40810 52855
L40833 52855
L40866 52866
L40878 52878
" />
<text x="39515" y="53068.1"
textLength="369.235" font-size="314.961" lengthAdjust="spacingAndGlyphs"
text-anchor="middle" opacity="0">+</text>
<path d="M39425 52966
L39604 52966
" />
<path d="M39515 53056
L39515 52876
" />
</g>
<g style="fill:#000000; fill-opacity:0.0; 
stroke:#000000; stroke-width:19.685; stroke-opacity:1; 
stroke-linecap:round; stroke-linejoin:round;">
<path d="M39370 53149
L40944 53149
" />
<path d="M39370 39370
L40944 39370
" />
<path d="M40944 39370
L40944 53149
" />
<path d="M39370 39370
L39370 53149
" />
</g>
<g style="fill:#000000; fill-opacity:0.0; 
stroke:#000000; stroke-width:47.2441; stroke-opacity:1; 
stroke-linecap:round; stroke-linejoin:round;">
<path d="M40488 52637
L40488 50511
" />
<path d="M40881 52637
L40488 52637
" />
<path d="M40881 50511
L40881 52637
" />
<path d="M40488 50511
L40881 50511
" />
<path d="M39960 52637
L39960 50511
" />
<path d="M40354 52637
L39960 52637
" />
<path d="M40354 50511
L40354 52637
" />
<path d="M39960 50511
L40354 50511
" />
<path d="M39423 52637
L39423 50511
" />
<path d="M39816 52637
L39423 52637
" />
<path d="M39816 50511
L39816 52637
" />
<path d="M39423 50511
L39816 50511
" />
<path d="M40785 41664
L40785 40759
" />
<path d="M39525 41035
L39525 41664
" />
<path d="M39877 48716
L39877 48921
" />
<path d="M40437 48716
L40437 48921
" />
<path d="M39877 44779
L39877 44984
" />
<path d="M40437 44779
L40437 44984
" />
<path d="M40437 46953
L40437 46747
" />
<path d="M39877 46953
L39877 46747
" />
<path d="M40052 40184
L40257 40184
" />
<path d="M40052 39625
L40257 39625
" />
<g >
</g>
<g >
</g>
<g >
</g>
<g >
</g>
<g >
</g>
<g >
</g>
<g >
</g>
<g >
</g>
<g >
</g>
<g >
</g>
<g >
</g>
</g>
<g style="fill:#000000; fill-opacity:0.0; 
stroke:#000000; stroke-width:47.2441; stroke-opacity:1; 
stroke-linecap:round; stroke-linejoin:round;">
</g>
<g style="fill:#000000; fill-opacity:0.0; 
stroke:#000000; stroke-width:59.0551; stroke-opacity:1; 
stroke-linecap:round; stroke-linejoin:round;">
<g transform="rotate(-90 40720 50030)">
<text x="40720" y="50226.9"
textLength="751.687" font-size="524.934" lengthAdjust="spacingAndGlyphs"
text-anchor="middle" opacity="0">J3</text>
</g>
<path d="M40504 50161
L40785 50161
L40841 50179
L40879 50217
L40898 50273
L40898 50311
" />
<path d="M40504 50011
L40504 49767
L40654 49898
L40654 49842
L40673 49805
L40691 49786
L40729 49767
L40823 49767
L40860 49786
L40879 49805
L40898 49842
L40898 49955
L40879 49992
L40860 50011
" />
<g transform="rotate(-90 40215 50030)">
<text x="40215" y="50226.9"
textLength="751.687" font-size="524.934" lengthAdjust="spacingAndGlyphs"
text-anchor="middle" opacity="0">J2</text>
</g>
<path d="M39999 50161
L40280 50161
L40336 50179
L40374 50217
L40393 50273
L40393 50311
" />
<path d="M40036 49992
L40018 49973
L39999 49936
L39999 49842
L40018 49805
L40036 49786
L40074 49767
L40111 49767
L40168 49786
L40393 50011
L40393 49767
" />
<g transform="rotate(-90 39640 50010)">
<text x="39640" y="50206.9"
textLength="751.687" font-size="524.934" lengthAdjust="spacingAndGlyphs"
text-anchor="middle" opacity="0">J1</text>
</g>
<path d="M39424 50141
L39705 50141
L39761 50159
L39799 50197
L39818 50253
L39818 50291
" />
<path d="M39818 49747
L39818 49972
" />
<path d="M39818 49860
L39424 49860
L39480 49897
L39518 49935
L39536 49972
" />
<g transform="rotate(-90 40170 42430)">
<text x="40170" y="42626.9"
textLength="864.173" font-size="524.934" lengthAdjust="spacingAndGlyphs"
text-anchor="middle" opacity="0">U1</text>
</g>
<path d="M39954 42729
L40273 42729
L40310 42711
L40329 42692
L40348 42654
L40348 42579
L40329 42542
L40310 42523
L40273 42504
L39954 42504
" />
<path d="M40348 42111
L40348 42336
" />
<path d="M40348 42223
L39954 42223
L40010 42261
L40048 42298
L40066 42336
" />
<g transform="rotate(-90 39615 48765)">
<text x="39615" y="48961.9"
textLength="845.426" font-size="524.934" lengthAdjust="spacingAndGlyphs"
text-anchor="middle" opacity="0">R3</text>
</g>
<path d="M39793 48830
L39605 48961
" />
<path d="M39793 49055
L39399 49055
L39399 48905
L39418 48868
L39436 48849
L39474 48830
L39530 48830
L39568 48849
L39586 48868
L39605 48905
L39605 49055
" />
<path d="M39399 48699
L39399 48455
L39549 48586
L39549 48530
L39568 48493
L39586 48474
L39624 48455
L39718 48455
L39755 48474
L39774 48493
L39793 48530
L39793 48643
L39774 48680
L39755 48699
" />
<g transform="rotate(-90 39635 44845)">
<text x="39635" y="45041.9"
textLength="845.426" font-size="524.934" lengthAdjust="spacingAndGlyphs"
text-anchor="middle" opacity="0">R2</text>
</g>
<path d="M39813 44910
L39625 45041
" />
<path d="M39813 45135
L39419 45135
L39419 44985
L39438 44948
L39456 44929
L39494 44910
L39550 44910
L39588 44929
L39606 44948
L39625 44985
L39625 45135
" />
<path d="M39456 44760
L39438 44741
L39419 44704
L39419 44610
L39438 44573
L39456 44554
L39494 44535
L39531 44535
L39588 44554
L39813 44779
L39813 44535
" />
<g transform="rotate(-90 39620 46810)">
<text x="39620" y="47006.9"
textLength="845.426" font-size="524.934" lengthAdjust="spacingAndGlyphs"
text-anchor="middle" opacity="0">R1</text>
</g>
<path d="M39798 46875
L39610 47006
" />
<path d="M39798 47100
L39404 47100
L39404 46950
L39423 46913
L39441 46894
L39479 46875
L39535 46875
L39573 46894
L39591 46913
L39610 46950
L39610 47100
" />
<path d="M39798 46500
L39798 46725
" />
<path d="M39798 46613
L39404 46613
L39460 46650
L39498 46688
L39516 46725
" />
<text x="39910" y="40681.9"
textLength="845.426" font-size="524.934" lengthAdjust="spacingAndGlyphs"
text-anchor="middle" opacity="0">C1</text>
<path d="M39844 40625
L39825 40644
L39769 40663
L39731 40663
L39675 40644
L39638 40606
L39619 40569
L39600 40494
L39600 40438
L39619 40363
L39638 40325
L39675 40288
L39731 40269
L39769 40269
L39825 40288
L39844 40306
" />
<path d="M40219 40663
L39994 40663
" />
<path d="M40106 40663
L40106 40269
L40069 40325
L40031 40363
L39994 40381
" />
<g >
</g>
</g> 
</svg>
