<?xml version="1.0" standalone="no"?>
 <!DOCTYPE svg PUBLIC "-//W3C//DTD SVG 1.1//EN" 
 "http://www.w3.org/Graphics/SVG/1.1/DTD/svg11.dtd"> 
<svg xmlns="http://www.w3.org/2000/svg" version="1.1" 
    width="29.7002cm" height="21.0007cm" viewBox="0 0 116930 82680 ">
<title>SVG Picture created as PCT2075_PROBE_PCB-F_Cu.svg date 2022/02/14 15:35:02 </title>
  <desc>Picture generated by PCBNEW </desc>
<g style="fill:#000000; fill-opacity:1;stroke:#000000; stroke-opacity:1;
stroke-linecap:round; stroke-linejoin:round; "
 transform="translate(0 0) scale(1 1)">
</g>
<g style="fill:#000000; fill-opacity:0.0; 
stroke:#000000; stroke-width:-0.000393701; stroke-opacity:1; 
stroke-linecap:round; stroke-linejoin:round;">
</g>
<g style="fill:#000000; fill-opacity:0.0; 
stroke:#000000; stroke-width:19.685; stroke-opacity:1; 
stroke-linecap:round; stroke-linejoin:round;">
<path d="M39370 53149
L40944 53149
" />
<path d="M39370 39370
L40944 39370
" />
<path d="M40944 39370
L40944 53149
" />
<path d="M39370 39370
L39370 53149
" />
<g >
</g>
<g >
</g>
<g >
</g>
<g style="fill:#000000; fill-opacity:0.0; 
stroke:#000000; stroke-width:19.685; stroke-opacity:1; 
stroke-linecap:round; stroke-linejoin:round;">
</g>
<g style="fill:#000000; fill-opacity:0.0; 
stroke:#000000; stroke-width:0; stroke-opacity:1; 
stroke-linecap:round; stroke-linejoin:round;">
</g>
<g style="fill:#000000; fill-opacity:1.0; 
stroke:#000000; stroke-width:0; stroke-opacity:1; 
stroke-linecap:round; stroke-linejoin:round;">
<path style="fill:#000000; fill-opacity:1.0; 
stroke:#000000; stroke-width:0; stroke-opacity:1; 
stroke-linecap:round; stroke-linejoin:round;fill-rule:evenodd;"
d="M 40566.9,52559.1
40566.9,50590.6
40803.1,50590.6
40803.1,52559.1
Z" /> 
</g>
<g >
</g>
<g style="fill:#000000; fill-opacity:1.0; 
stroke:#000000; stroke-width:0; stroke-opacity:1; 
stroke-linecap:round; stroke-linejoin:round;">
<path style="fill:#000000; fill-opacity:1.0; 
stroke:#000000; stroke-width:0; stroke-opacity:1; 
stroke-linecap:round; stroke-linejoin:round;fill-rule:evenodd;"
d="M 40039.4,52559.1
40039.4,50590.6
40275.6,50590.6
40275.6,52559.1
Z" /> 
</g>
<g >
</g>
<g style="fill:#000000; fill-opacity:1.0; 
stroke:#000000; stroke-width:0; stroke-opacity:1; 
stroke-linecap:round; stroke-linejoin:round;">
<path style="fill:#000000; fill-opacity:1.0; 
stroke:#000000; stroke-width:0; stroke-opacity:1; 
stroke-linecap:round; stroke-linejoin:round;fill-rule:evenodd;"
d="M 39502,52559.1
39502,50590.6
39738.2,50590.6
39738.2,52559.1
Z" /> 
</g>
<g >
</g>
<g style="fill:#000000; fill-opacity:1.0; 
stroke:#000000; stroke-width:0; stroke-opacity:1; 
stroke-linecap:round; stroke-linejoin:round;">
<path style="fill:#000000; fill-opacity:1.0; 
stroke:#000000; stroke-width:0; stroke-opacity:1; 
stroke-linecap:round; stroke-linejoin:round;fill-rule:evenodd;"
d="M 40428.7,41668.9
40629.5,41668.9
40629.5,41944.5
40428.7,41944.5
Z" /> 
<path style="fill:#000000; fill-opacity:1.0; 
stroke:#000000; stroke-width:0; stroke-opacity:1; 
stroke-linecap:round; stroke-linejoin:round;fill-rule:evenodd;"
d="M 40054.7,41668.9
40255.5,41668.9
40255.5,41944.5
40054.7,41944.5
Z" /> 
<path style="fill:#000000; fill-opacity:1.0; 
stroke:#000000; stroke-width:0; stroke-opacity:1; 
stroke-linecap:round; stroke-linejoin:round;fill-rule:evenodd;"
d="M 39680.7,41668.9
39881.5,41668.9
39881.5,41944.5
39680.7,41944.5
Z" /> 
<path style="fill:#000000; fill-opacity:1.0; 
stroke:#000000; stroke-width:0; stroke-opacity:1; 
stroke-linecap:round; stroke-linejoin:round;fill-rule:evenodd;"
d="M 39680.7,40755.5
39881.5,40755.5
39881.5,41031.1
39680.7,41031.1
Z" /> 
<path style="fill:#000000; fill-opacity:1.0; 
stroke:#000000; stroke-width:0; stroke-opacity:1; 
stroke-linecap:round; stroke-linejoin:round;fill-rule:evenodd;"
d="M 40054.7,40755.5
40255.5,40755.5
40255.5,41031.1
40054.7,41031.1
Z" /> 
<path style="fill:#000000; fill-opacity:1.0; 
stroke:#000000; stroke-width:0; stroke-opacity:1; 
stroke-linecap:round; stroke-linejoin:round;fill-rule:evenodd;"
d="M 40428.7,40755.5
40629.5,40755.5
40629.5,41031.1
40428.7,41031.1
Z" /> 
</g>
<g >
</g>
<g style="fill:#000000; fill-opacity:1.0; 
stroke:#000000; stroke-width:0; stroke-opacity:1; 
stroke-linecap:round; stroke-linejoin:round;">
<path style="fill:#000000; fill-opacity:1.0; 
stroke:#000000; stroke-width:0; stroke-opacity:1; 
stroke-linecap:round; stroke-linejoin:round;fill-rule:evenodd;"
d="M 40344.3,48996.5
40353.8,48998
40363.2,49000.3
40372.3,49003.6
40381,49007.7
40389.3,49012.7
40397.1,49018.4
40404.2,49024.9
40410.7,49032
40416.5,49039.8
40421.4,49048.1
40425.6,49056.8
40428.8,49065.9
40431.2,49075.3
40432.6,49084.8
40433.1,49094.5
40433.1,49350.4
40432.6,49360
40431.2,49369.6
40428.8,49379
40425.6,49388.1
40421.4,49396.8
40416.5,49405.1
40410.7,49412.8
40404.2,49420
40397.1,49426.5
40389.3,49432.2
40381,49437.2
40372.3,49441.3
40363.2,49444.6
40353.8,49446.9
40344.3,49448.3
40334.6,49448.8
39980.3,49448.8
39970.7,49448.3
39961.1,49446.9
39951.7,49444.6
39942.6,49441.3
39933.9,49437.2
39925.6,49432.2
39917.9,49426.5
39910.7,49420
39904.2,49412.8
39898.5,49405.1
39893.5,49396.8
39889.4,49388.1
39886.1,49379
39883.8,49369.6
39882.4,49360
39881.9,49350.4
39881.9,49094.5
39882.4,49084.8
39883.8,49075.3
39886.1,49065.9
39889.4,49056.8
39893.5,49048.1
39898.5,49039.8
39904.2,49032
39910.7,49024.9
39917.9,49018.4
39925.6,49012.7
39933.9,49007.7
39942.6,49003.6
39951.7,49000.3
39961.1,48998
39970.7,48996.5
39980.3,48996.1
40334.6,48996.1
Z" /> 
<path style="fill:#000000; fill-opacity:1.0; 
stroke:#000000; stroke-width:0; stroke-opacity:1; 
stroke-linecap:round; stroke-linejoin:round;fill-rule:evenodd;"
d="M 40344.3,48189.5
40353.8,48190.9
40363.2,48193.2
40372.3,48196.5
40381,48200.6
40389.3,48205.6
40397.1,48211.3
40404.2,48217.8
40410.7,48225
40416.5,48232.7
40421.4,48241
40425.6,48249.7
40428.8,48258.8
40431.2,48268.2
40432.6,48277.8
40433.1,48287.4
40433.1,48543.3
40432.6,48553
40431.2,48562.5
40428.8,48571.9
40425.6,48581
40421.4,48589.7
40416.5,48598
40410.7,48605.7
40404.2,48612.9
40397.1,48619.4
40389.3,48625.1
40381,48630.1
40372.3,48634.2
40363.2,48637.5
40353.8,48639.8
40344.3,48641.3
40334.6,48641.7
39980.3,48641.7
39970.7,48641.3
39961.1,48639.8
39951.7,48637.5
39942.6,48634.2
39933.9,48630.1
39925.6,48625.1
39917.9,48619.4
39910.7,48612.9
39904.2,48605.7
39898.5,48598
39893.5,48589.7
39889.4,48581
39886.1,48571.9
39883.8,48562.5
39882.4,48553
39881.9,48543.3
39881.9,48287.4
39882.4,48277.8
39883.8,48268.2
39886.1,48258.8
39889.4,48249.7
39893.5,48241
39898.5,48232.7
39904.2,48225
39910.7,48217.8
39917.9,48211.3
39925.6,48205.6
39933.9,48200.6
39942.6,48196.5
39951.7,48193.2
39961.1,48190.9
39970.7,48189.5
39980.3,48189
40334.6,48189
Z" /> 
</g>
<g >
</g>
<g style="fill:#000000; fill-opacity:1.0; 
stroke:#000000; stroke-width:0; stroke-opacity:1; 
stroke-linecap:round; stroke-linejoin:round;">
<path style="fill:#000000; fill-opacity:1.0; 
stroke:#000000; stroke-width:0; stroke-opacity:1; 
stroke-linecap:round; stroke-linejoin:round;fill-rule:evenodd;"
d="M 40344.3,45059.5
40353.8,45060.9
40363.2,45063.3
40372.3,45066.5
40381,45070.7
40389.3,45075.6
40397.1,45081.4
40404.2,45087.9
40410.7,45095
40416.5,45102.8
40421.4,45111.1
40425.6,45119.8
40428.8,45128.9
40431.2,45138.3
40432.6,45147.8
40433.1,45157.5
40433.1,45413.4
40432.6,45423
40431.2,45432.6
40428.8,45442
40425.6,45451.1
40421.4,45459.8
40416.5,45468.1
40410.7,45475.8
40404.2,45483
40397.1,45489.5
40389.3,45495.2
40381,45500.2
40372.3,45504.3
40363.2,45507.6
40353.8,45509.9
40344.3,45511.3
40334.6,45511.8
39980.3,45511.8
39970.7,45511.3
39961.1,45509.9
39951.7,45507.6
39942.6,45504.3
39933.9,45500.2
39925.6,45495.2
39917.9,45489.5
39910.7,45483
39904.2,45475.8
39898.5,45468.1
39893.5,45459.8
39889.4,45451.1
39886.1,45442
39883.8,45432.6
39882.4,45423
39881.9,45413.4
39881.9,45157.5
39882.4,45147.8
39883.8,45138.3
39886.1,45128.9
39889.4,45119.8
39893.5,45111.1
39898.5,45102.8
39904.2,45095
39910.7,45087.9
39917.9,45081.4
39925.6,45075.6
39933.9,45070.7
39942.6,45066.5
39951.7,45063.3
39961.1,45060.9
39970.7,45059.5
39980.3,45059.1
40334.6,45059.1
Z" /> 
<path style="fill:#000000; fill-opacity:1.0; 
stroke:#000000; stroke-width:0; stroke-opacity:1; 
stroke-linecap:round; stroke-linejoin:round;fill-rule:evenodd;"
d="M 40344.3,44252.4
40353.8,44253.9
40363.2,44256.2
40372.3,44259.5
40381,44263.6
40389.3,44268.6
40397.1,44274.3
40404.2,44280.8
40410.7,44288
40416.5,44295.7
40421.4,44304
40425.6,44312.7
40428.8,44321.8
40431.2,44331.2
40432.6,44340.7
40433.1,44350.4
40433.1,44606.3
40432.6,44615.9
40431.2,44625.5
40428.8,44634.9
40425.6,44644
40421.4,44652.7
40416.5,44661
40410.7,44668.7
40404.2,44675.9
40397.1,44682.4
40389.3,44688.1
40381,44693.1
40372.3,44697.2
40363.2,44700.5
40353.8,44702.8
40344.3,44704.3
40334.6,44704.7
39980.3,44704.7
39970.7,44704.3
39961.1,44702.8
39951.7,44700.5
39942.6,44697.2
39933.9,44693.1
39925.6,44688.1
39917.9,44682.4
39910.7,44675.9
39904.2,44668.7
39898.5,44661
39893.5,44652.7
39889.4,44644
39886.1,44634.9
39883.8,44625.5
39882.4,44615.9
39881.9,44606.3
39881.9,44350.4
39882.4,44340.7
39883.8,44331.2
39886.1,44321.8
39889.4,44312.7
39893.5,44304
39898.5,44295.7
39904.2,44288
39910.7,44280.8
39917.9,44274.3
39925.6,44268.6
39933.9,44263.6
39942.6,44259.5
39951.7,44256.2
39961.1,44253.9
39970.7,44252.4
39980.3,44252
40334.6,44252
Z" /> 
</g>
<g >
</g>
<g style="fill:#000000; fill-opacity:1.0; 
stroke:#000000; stroke-width:0; stroke-opacity:1; 
stroke-linecap:round; stroke-linejoin:round;">
<path style="fill:#000000; fill-opacity:1.0; 
stroke:#000000; stroke-width:0; stroke-opacity:1; 
stroke-linecap:round; stroke-linejoin:round;fill-rule:evenodd;"
d="M 40344.3,46220.9
40353.8,46222.4
40363.2,46224.7
40372.3,46228
40381,46232.1
40389.3,46237.1
40397.1,46242.8
40404.2,46249.3
40410.7,46256.5
40416.5,46264.2
40421.4,46272.5
40425.6,46281.2
40428.8,46290.3
40431.2,46299.7
40432.6,46309.2
40433.1,46318.9
40433.1,46574.8
40432.6,46584.5
40431.2,46594
40428.8,46603.4
40425.6,46612.5
40421.4,46621.2
40416.5,46629.5
40410.7,46637.2
40404.2,46644.4
40397.1,46650.9
40389.3,46656.6
40381,46661.6
40372.3,46665.7
40363.2,46669
40353.8,46671.3
40344.3,46672.8
40334.6,46673.2
39980.3,46673.2
39970.7,46672.8
39961.1,46671.3
39951.7,46669
39942.6,46665.7
39933.9,46661.6
39925.6,46656.6
39917.9,46650.9
39910.7,46644.4
39904.2,46637.2
39898.5,46629.5
39893.5,46621.2
39889.4,46612.5
39886.1,46603.4
39883.8,46594
39882.4,46584.5
39881.9,46574.8
39881.9,46318.9
39882.4,46309.2
39883.8,46299.7
39886.1,46290.3
39889.4,46281.2
39893.5,46272.5
39898.5,46264.2
39904.2,46256.5
39910.7,46249.3
39917.9,46242.8
39925.6,46237.1
39933.9,46232.1
39942.6,46228
39951.7,46224.7
39961.1,46222.4
39970.7,46220.9
39980.3,46220.5
40334.6,46220.5
Z" /> 
<path style="fill:#000000; fill-opacity:1.0; 
stroke:#000000; stroke-width:0; stroke-opacity:1; 
stroke-linecap:round; stroke-linejoin:round;fill-rule:evenodd;"
d="M 40344.3,47028
40353.8,47029.5
40363.2,47031.8
40372.3,47035.1
40381,47039.2
40389.3,47044.1
40397.1,47049.9
40404.2,47056.4
40410.7,47063.5
40416.5,47071.3
40421.4,47079.6
40425.6,47088.3
40428.8,47097.4
40431.2,47106.8
40432.6,47116.3
40433.1,47126
40433.1,47381.9
40432.6,47391.5
40431.2,47401.1
40428.8,47410.5
40425.6,47419.6
40421.4,47428.3
40416.5,47436.6
40410.7,47444.3
40404.2,47451.5
40397.1,47458
40389.3,47463.7
40381,47468.7
40372.3,47472.8
40363.2,47476.1
40353.8,47478.4
40344.3,47479.8
40334.6,47480.3
39980.3,47480.3
39970.7,47479.8
39961.1,47478.4
39951.7,47476.1
39942.6,47472.8
39933.9,47468.7
39925.6,47463.7
39917.9,47458
39910.7,47451.5
39904.2,47444.3
39898.5,47436.6
39893.5,47428.3
39889.4,47419.6
39886.1,47410.5
39883.8,47401.1
39882.4,47391.5
39881.9,47381.9
39881.9,47126
39882.4,47116.3
39883.8,47106.8
39886.1,47097.4
39889.4,47088.3
39893.5,47079.6
39898.5,47071.3
39904.2,47063.5
39910.7,47056.4
39917.9,47049.9
39925.6,47044.1
39933.9,47039.2
39942.6,47035.1
39951.7,47031.8
39961.1,47029.5
39970.7,47028
39980.3,47027.6
40334.6,47027.6
Z" /> 
</g>
<g >
</g>
<g >
</g>
<g style="fill:#000000; fill-opacity:1.0; 
stroke:#000000; stroke-width:0; stroke-opacity:1; 
stroke-linecap:round; stroke-linejoin:round;">
<path style="fill:#000000; fill-opacity:1.0; 
stroke:#000000; stroke-width:0; stroke-opacity:1; 
stroke-linecap:round; stroke-linejoin:round;fill-rule:evenodd;"
d="M 40696.3,39630
40705.8,39631.4
40715.2,39633.8
40724.3,39637
40733,39641.1
40741.3,39646.1
40749.1,39651.9
40756.2,39658.4
40762.7,39665.5
40768.5,39673.3
40773.4,39681.6
40777.5,39690.3
40780.8,39699.4
40783.1,39708.8
40784.6,39718.3
40785,39728
40785,40082.3
40784.6,40091.9
40783.1,40101.5
40780.8,40110.9
40777.5,40119.9
40773.4,40128.7
40768.5,40137
40762.7,40144.7
40756.2,40151.9
40749.1,40158.4
40741.3,40164.1
40733,40169.1
40724.3,40173.2
40715.2,40176.5
40705.8,40178.8
40696.3,40180.2
40686.6,40180.7
40430.7,40180.7
40421.1,40180.2
40411.5,40178.8
40402.1,40176.5
40393,40173.2
40384.3,40169.1
40376,40164.1
40368.3,40158.4
40361.1,40151.9
40354.6,40144.7
40348.9,40137
40343.9,40128.7
40339.8,40119.9
40336.5,40110.9
40334.2,40101.5
40332.8,40091.9
40332.3,40082.3
40332.3,39728
40332.8,39718.3
40334.2,39708.8
40336.5,39699.4
40339.8,39690.3
40343.9,39681.6
40348.9,39673.3
40354.6,39665.5
40361.1,39658.4
40368.3,39651.9
40376,39646.1
40384.3,39641.1
40393,39637
40402.1,39633.8
40411.5,39631.4
40421.1,39630
40430.7,39629.5
40686.6,39629.5
Z" /> 
<path style="fill:#000000; fill-opacity:1.0; 
stroke:#000000; stroke-width:0; stroke-opacity:1; 
stroke-linecap:round; stroke-linejoin:round;fill-rule:evenodd;"
d="M 39889.2,39630
39898.7,39631.4
39908.1,39633.8
39917.2,39637
39925.9,39641.1
39934.2,39646.1
39942,39651.9
39949.1,39658.4
39955.6,39665.5
39961.4,39673.3
39966.3,39681.6
39970.5,39690.3
39973.7,39699.4
39976.1,39708.8
39977.5,39718.3
39978,39728
39978,40082.3
39977.5,40091.9
39976.1,40101.5
39973.7,40110.9
39970.5,40119.9
39966.3,40128.7
39961.4,40137
39955.6,40144.7
39949.1,40151.9
39942,40158.4
39934.2,40164.1
39925.9,40169.1
39917.2,40173.2
39908.1,40176.5
39898.7,40178.8
39889.2,40180.2
39879.5,40180.7
39623.6,40180.7
39614,40180.2
39604.4,40178.8
39595.1,40176.5
39586,40173.2
39577.2,40169.1
39568.9,40164.1
39561.2,40158.4
39554,40151.9
39547.5,40144.7
39541.8,40137
39536.8,40128.7
39532.7,40119.9
39529.4,40110.9
39527.1,40101.5
39525.7,40091.9
39525.2,40082.3
39525.2,39728
39525.7,39718.3
39527.1,39708.8
39529.4,39699.4
39532.7,39690.3
39536.8,39681.6
39541.8,39673.3
39547.5,39665.5
39554,39658.4
39561.2,39651.9
39568.9,39646.1
39577.2,39641.1
39586,39637
39595.1,39633.8
39604.4,39631.4
39614,39630
39623.6,39629.5
39879.5,39629.5
Z" /> 
</g>
<g >
</g>
<g style="fill:#000000; fill-opacity:1.0; 
stroke:#000000; stroke-width:0; stroke-opacity:1; 
stroke-linecap:round; stroke-linejoin:round;">
<circle cx="40155.1" cy="41275.6" r="157.48" /> 
</g>
<g style="fill:#000000; fill-opacity:1.0; 
stroke:#000000; stroke-width:39.3701; stroke-opacity:1; 
stroke-linecap:round; stroke-linejoin:round;">
</g>
<g style="fill:#000000; fill-opacity:1.0; 
stroke:#000000; stroke-width:0; stroke-opacity:1; 
stroke-linecap:round; stroke-linejoin:round;">
<circle cx="39618.1" cy="43559.6" r="157.48" /> 
</g>
<g style="fill:#000000; fill-opacity:1.0; 
stroke:#000000; stroke-width:39.3701; stroke-opacity:1; 
stroke-linecap:round; stroke-linejoin:round;">
</g>
<g style="fill:#000000; fill-opacity:1.0; 
stroke:#000000; stroke-width:0; stroke-opacity:1; 
stroke-linecap:round; stroke-linejoin:round;">
<circle cx="40529.1" cy="40517.8" r="157.48" /> 
</g>
<g style="fill:#000000; fill-opacity:1.0; 
stroke:#000000; stroke-width:39.3701; stroke-opacity:1; 
stroke-linecap:round; stroke-linejoin:round;">
</g>
<g style="fill:#000000; fill-opacity:1.0; 
stroke:#000000; stroke-width:0; stroke-opacity:1; 
stroke-linecap:round; stroke-linejoin:round;">
<circle cx="40685" cy="52814" r="157.48" /> 
</g>
<g style="fill:#000000; fill-opacity:1.0; 
stroke:#000000; stroke-width:39.3701; stroke-opacity:1; 
stroke-linecap:round; stroke-linejoin:round;">
</g>
<g style="fill:#000000; fill-opacity:1.0; 
stroke:#000000; stroke-width:0; stroke-opacity:1; 
stroke-linecap:round; stroke-linejoin:round;">
<circle cx="40157.5" cy="45753.6" r="157.48" /> 
</g>
<g style="fill:#000000; fill-opacity:1.0; 
stroke:#000000; stroke-width:39.3701; stroke-opacity:1; 
stroke-linecap:round; stroke-linejoin:round;">
</g>
<g style="fill:#000000; fill-opacity:1.0; 
stroke:#000000; stroke-width:0; stroke-opacity:1; 
stroke-linecap:round; stroke-linejoin:round;">
<circle cx="40552.8" cy="41398.5" r="157.48" /> 
</g>
<g style="fill:#000000; fill-opacity:1.0; 
stroke:#000000; stroke-width:39.3701; stroke-opacity:1; 
stroke-linecap:round; stroke-linejoin:round;">
</g>
<g style="fill:#000000; fill-opacity:1.0; 
stroke:#000000; stroke-width:0; stroke-opacity:1; 
stroke-linecap:round; stroke-linejoin:round;">
<circle cx="39985.2" cy="49779.3" r="157.48" /> 
</g>
<g style="fill:#000000; fill-opacity:1.0; 
stroke:#000000; stroke-width:39.3701; stroke-opacity:1; 
stroke-linecap:round; stroke-linejoin:round;">
</g>
<g >
</g>
<g style="fill:#000000; fill-opacity:1.0; 
stroke:#000000; stroke-width:39.3701; stroke-opacity:1; 
stroke-linecap:round; stroke-linejoin:round;">
</g>
<g style="fill:#000000; fill-opacity:1.0; 
stroke:#000000; stroke-width:98.4252; stroke-opacity:1; 
stroke-linecap:round; stroke-linejoin:round;">
</g>
<g style="fill:#000000; fill-opacity:0.0; 
stroke:#000000; stroke-width:98.4252; stroke-opacity:1; 
stroke-linecap:round; stroke-linejoin:round;">
<path d="M40155 41159
L40155 41275
" />
<path d="M40155 40893
L40155 41159
" />
<path d="M40558 39905
L40155 40308
" />
<path d="M40155 40308
L40155 40893
" />
<path d="M40157 44478
L39618 43938
" />
<path d="M39618 43938
L39618 43559
" />
<path d="M40157 44478
L39741 44894
" />
<path d="M39741 44894
L39741 46838
" />
<path d="M39741 46838
L40157 47253
" />
<path d="M40157 48415
L40157 47253
" />
<path d="M39552 40893
L39552 43494
" />
<path d="M39552 43494
L39618 43559
" />
<path d="M39781 40893
L39552 40893
" />
<path d="M39751 39905
L39781 39934
" />
<path d="M39781 39934
L39781 40893
" />
<path d="M39620 51574
L39620 48952
" />
<path d="M39620 48952
L40157 48415
" />
<path d="M40529 40893
L40529 40517
" />
<path d="M40157 46446
L40750 45854
" />
<path d="M40750 45854
L40750 42293
" />
<path d="M40750 42293
L40529 42072
" />
<path d="M40529 41806
L40529 42072
" />
<path d="M40157 50462
L40561 50058
" />
<path d="M40561 50058
L40561 46850
" />
<path d="M40561 46850
L40157 46446
" />
<path d="M40157 51574
L40157 50462
" />
<path d="M40157 45285
L40157 45753
" />
<path d="M40157 45285
L40564 44878
" />
<path d="M40564 44878
L40564 43393
" />
<path d="M40564 43393
L39781 42610
" />
<path d="M39781 42610
L39781 41806
" />
<path d="M40685 51574
L40685 52813
" />
<path d="M40552 41398
L40513 41398
" />
<path d="M40513 41398
L40155 41756
" />
<path d="M40155 41756
L40155 41806
" />
<path d="M40157 49222
L39985 49394
" />
<path d="M39985 49394
L39985 49779
" />
</g>
<g >
</g>
<g style="fill:#000000; fill-opacity:0.0; 
stroke:#000000; stroke-width:98.4252; stroke-opacity:1; 
stroke-linecap:round; stroke-linejoin:round;">
</g>
<g style="fill:#000000; fill-opacity:1.0; 
stroke:#000000; stroke-width:100; stroke-opacity:1; 
stroke-linecap:round; stroke-linejoin:round;">
<path style="fill:#000000; fill-opacity:1.0; 
stroke:#000000; stroke-width:100; stroke-opacity:1; 
stroke-linecap:round; stroke-linejoin:round;fill-rule:evenodd;"
d="M 40177.5,41031.1
40182.4,41080.1
40196.7,41127.2
40205.1,41143.1
40205.1,41185.3
40191.7,41205.5
40160.9,41279.6
40149,41339.7
40071,41417.7
40054.7,41417.7
40005.7,41422.5
39968.1,41433.9
39930.5,41422.5
39881.5,41417.7
39851.9,41417.7
39851.9,41282.3
39881.5,41282.3
39930.5,41277.5
39968.6,41265.9
40000.1,41276.3
40042.6,41281.1
40105.1,41218.6
40105.1,41143.1
40113.6,41127.2
40127.9,41080.1
40132.7,41031.1
40132.7,40835.4
40177.5,40835.4
Z" /> 
<path style="fill:#000000; fill-opacity:1.0; 
stroke:#000000; stroke-width:100; stroke-opacity:1; 
stroke-linecap:round; stroke-linejoin:round;fill-rule:evenodd;"
d="M 40154.3,40357.9
40137.3,40398.9
40121.7,40477.7
40121.7,40505.5
40105.1,40505.5
40105.1,40568
40080.3,40543.2
40080.3,40367.6
40126.8,40329.5
40128.9,40326.9
Z" /> 
<path style="fill:#000000; fill-opacity:1.0; 
stroke:#000000; stroke-width:100; stroke-opacity:1; 
stroke-linecap:round; stroke-linejoin:round;fill-rule:evenodd;"
d="M 40608.7,39855.1
40616.5,39855.1
40616.5,39955.1
40608.7,39955.1
40608.7,39963
40508.7,39963
40508.7,39955.1
40500.8,39955.1
40500.8,39855.1
40508.7,39855.1
40508.7,39847.2
40608.7,39847.2
Z" /> 
</g>
</g>
<g style="fill:#FFFFFF; fill-opacity:1.0; 
stroke:#FFFFFF; stroke-width:100; stroke-opacity:1; 
stroke-linecap:round; stroke-linejoin:round;">
</g>
<g style="fill:#FFFFFF; fill-opacity:1.0; 
stroke:#FFFFFF; stroke-width:0; stroke-opacity:1; 
stroke-linecap:round; stroke-linejoin:round;">
<circle cx="40155.1" cy="41275.6" r="68.8976" /> 
</g>
<g style="fill:#FFFFFF; fill-opacity:1.0; 
stroke:#FFFFFF; stroke-width:39.3701; stroke-opacity:1; 
stroke-linecap:round; stroke-linejoin:round;">
</g>
<g style="fill:#FFFFFF; fill-opacity:1.0; 
stroke:#FFFFFF; stroke-width:0; stroke-opacity:1; 
stroke-linecap:round; stroke-linejoin:round;">
<circle cx="39618.1" cy="43559.6" r="68.8976" /> 
</g>
<g style="fill:#FFFFFF; fill-opacity:1.0; 
stroke:#FFFFFF; stroke-width:39.3701; stroke-opacity:1; 
stroke-linecap:round; stroke-linejoin:round;">
</g>
<g style="fill:#FFFFFF; fill-opacity:1.0; 
stroke:#FFFFFF; stroke-width:0; stroke-opacity:1; 
stroke-linecap:round; stroke-linejoin:round;">
<circle cx="40529.1" cy="40517.8" r="68.8976" /> 
</g>
<g style="fill:#FFFFFF; fill-opacity:1.0; 
stroke:#FFFFFF; stroke-width:39.3701; stroke-opacity:1; 
stroke-linecap:round; stroke-linejoin:round;">
</g>
<g style="fill:#FFFFFF; fill-opacity:1.0; 
stroke:#FFFFFF; stroke-width:0; stroke-opacity:1; 
stroke-linecap:round; stroke-linejoin:round;">
<circle cx="40685" cy="52814" r="68.8976" /> 
</g>
<g style="fill:#FFFFFF; fill-opacity:1.0; 
stroke:#FFFFFF; stroke-width:39.3701; stroke-opacity:1; 
stroke-linecap:round; stroke-linejoin:round;">
</g>
<g style="fill:#FFFFFF; fill-opacity:1.0; 
stroke:#FFFFFF; stroke-width:0; stroke-opacity:1; 
stroke-linecap:round; stroke-linejoin:round;">
<circle cx="40157.5" cy="45753.6" r="68.8976" /> 
</g>
<g style="fill:#FFFFFF; fill-opacity:1.0; 
stroke:#FFFFFF; stroke-width:39.3701; stroke-opacity:1; 
stroke-linecap:round; stroke-linejoin:round;">
</g>
<g style="fill:#FFFFFF; fill-opacity:1.0; 
stroke:#FFFFFF; stroke-width:0; stroke-opacity:1; 
stroke-linecap:round; stroke-linejoin:round;">
<circle cx="40552.8" cy="41398.5" r="68.8976" /> 
</g>
<g style="fill:#FFFFFF; fill-opacity:1.0; 
stroke:#FFFFFF; stroke-width:39.3701; stroke-opacity:1; 
stroke-linecap:round; stroke-linejoin:round;">
</g>
<g style="fill:#FFFFFF; fill-opacity:1.0; 
stroke:#FFFFFF; stroke-width:0; stroke-opacity:1; 
stroke-linecap:round; stroke-linejoin:round;">
<circle cx="39985.2" cy="49779.3" r="68.8976" /> 
</g>
<g style="fill:#FFFFFF; fill-opacity:1.0; 
stroke:#FFFFFF; stroke-width:39.3701; stroke-opacity:1; 
stroke-linecap:round; stroke-linejoin:round;">
</g>
<g style="fill:#000000; fill-opacity:1.0; 
stroke:#000000; stroke-width:39.3701; stroke-opacity:1; 
stroke-linecap:round; stroke-linejoin:round;">
</g> 
</svg>
