<?xml version="1.0" standalone="no"?>
 <!DOCTYPE svg PUBLIC "-//W3C//DTD SVG 1.1//EN" 
 "http://www.w3.org/Graphics/SVG/1.1/DTD/svg11.dtd"> 
<svg xmlns="http://www.w3.org/2000/svg" version="1.1" 
    width="29.7002cm" height="21.0007cm" viewBox="0 0 116930 82680 ">
<title>SVG Picture created as PCT2075_PROBE_PCB-B_Mask.svg date 2022/02/14 15:35:02 </title>
  <desc>Picture generated by PCBNEW </desc>
<g style="fill:#000000; fill-opacity:1;stroke:#000000; stroke-opacity:1;
stroke-linecap:round; stroke-linejoin:round; "
 transform="translate(0 0) scale(1 1)">
</g>
<g style="fill:#000000; fill-opacity:0.0; 
stroke:#000000; stroke-width:-0.000393701; stroke-opacity:1; 
stroke-linecap:round; stroke-linejoin:round;">
</g>
<g style="fill:#000000; fill-opacity:0.0; 
stroke:#000000; stroke-width:19.685; stroke-opacity:1; 
stroke-linecap:round; stroke-linejoin:round;">
<path d="M39370 53149
L40944 53149
" />
<path d="M39370 39370
L40944 39370
" />
<path d="M40944 39370
L40944 53149
" />
<path d="M39370 39370
L39370 53149
" />
</g>
<g style="fill:#000000; fill-opacity:1.0; 
stroke:#000000; stroke-width:0; stroke-opacity:1; 
stroke-linecap:round; stroke-linejoin:round;">
<path style="fill:#000000; fill-opacity:1.0; 
stroke:#000000; stroke-width:0; stroke-opacity:1; 
stroke-linecap:round; stroke-linejoin:round;fill-rule:evenodd;"
d="M 40689.4,52579.1
40413,52579.1
40413,50570.5
40689.4,50570.5
Z" /> 
<path style="fill:#000000; fill-opacity:1.0; 
stroke:#000000; stroke-width:0; stroke-opacity:1; 
stroke-linecap:round; stroke-linejoin:round;fill-rule:evenodd;"
d="M 39902,52579.1
39625.6,52579.1
39625.6,50570.5
39902,50570.5
Z" /> 
<path style="fill:#000000; fill-opacity:1.0; 
stroke:#000000; stroke-width:0; stroke-opacity:1; 
stroke-linecap:round; stroke-linejoin:round;fill-rule:evenodd;"
d="M 40260.7,42391.7
40265.5,42392
40272.8,42392
40281.6,42392.8
40314.7,42399.4
40323.1,42402
40354.3,42414.9
40356.4,42416
40356.4,42416
40359.9,42417.9
40359.9,42417.9
40362.1,42419
40390.1,42437.8
40396.9,42443.4
40420.8,42467.2
40426.4,42474.1
40445.1,42502.1
40446.3,42504.3
40446.3,42504.3
40448.2,42507.8
40448.2,42507.8
40449.3,42509.9
40462.2,42541.1
40464.8,42549.5
40471.4,42582.6
40472.2,42591.4
40472.2,42598.6
40472.5,42603.5
40473.2,42610.7
40473.2,42822.4
40472.5,42828.7
40470.8,42834.5
40468.7,42839.7
40466.8,42849.1
40466.8,42858.8
40468.7,42868.2
40472.3,42877.1
40472.8,42877.9
40472.8,43362.6
40470.3,43367.4
40467.5,43376.6
40466.5,43386.2
40467.5,43395.8
40470.3,43405.1
40471.2,43407
40472.5,43411.4
40473.2,43417.8
40473.2,43629.5
40472.5,43636.7
40472.2,43641.5
40472.2,43648.8
40471.4,43657.5
40464.8,43690.6
40462.2,43699.1
40449.3,43730.3
40448.2,43732.4
40448.2,43732.4
40446.3,43735.9
40446.3,43735.9
40445.1,43738
40426.4,43766.1
40420.8,43772.9
40396.9,43796.8
40390.1,43802.4
40362.1,43821.1
40359.9,43822.3
40359.9,43822.3
40356.4,43824.1
40356.4,43824.1
40354.3,43825.3
40323.1,43838.2
40314.7,43840.8
40281.6,43847.3
40272.8,43848.2
40265.5,43848.2
40260.7,43848.4
40253.5,43849.2
40061.5,43849.2
40054.3,43848.4
40049.4,43848.2
40042.2,43848.2
40033.4,43847.3
40000.3,43840.8
39991.9,43838.2
39960.7,43825.3
39958.5,43824.1
39958.5,43824.1
39955.1,43822.3
39955.1,43822.3
39952.9,43821.1
39924.8,43802.4
39918,43796.8
39894.2,43772.9
39888.6,43766.1
39869.8,43738
39868.7,43735.9
39868.7,43735.9
39866.8,43732.4
39866.8,43732.4
39865.7,43730.3
39852.7,43699.1
39850.2,43690.6
39843.6,43657.5
39842.7,43648.8
39842.7,43641.5
39842.5,43636.7
39841.8,43629.5
39841.8,43417.8
39842.4,43411.4
39844.2,43405.7
39846.3,43400.5
39848.2,43391
39848.2,43381.4
39846.3,43371.9
39842.6,43363
39842.1,43362.3
39842.1,42877.5
39844.7,42872.8
39847.5,42863.5
39848.4,42853.9
39847.5,42844.3
39844.7,42835.1
39843.8,42833.2
39842.4,42828.7
39841.8,42822.4
39841.8,42610.7
39842.5,42603.5
39842.7,42598.6
39842.7,42591.4
39843.6,42582.6
39850.2,42549.5
39852.7,42541.1
39865.7,42509.9
39866.8,42507.8
39866.8,42507.8
39868.7,42504.3
39868.7,42504.3
39869.8,42502.1
39888.6,42474.1
39894.2,42467.2
39918,42443.4
39924.8,42437.8
39952.9,42419
39955.1,42417.9
39955.1,42417.9
39958.5,42416
39958.5,42416
39960.7,42414.9
39991.9,42402
40000.3,42399.4
40033.4,42392.8
40042.2,42392
40049.4,42392
40054.3,42391.7
40061.5,42391
40253.5,42391
Z" /> 
</g> 
</svg>
