<?xml version="1.0" standalone="no"?>
 <!DOCTYPE svg PUBLIC "-//W3C//DTD SVG 1.1//EN" 
 "http://www.w3.org/Graphics/SVG/1.1/DTD/svg11.dtd"> 
<svg xmlns="http://www.w3.org/2000/svg" version="1.1" 
    width="29.7002cm" height="21.0007cm" viewBox="0 0 116930 82680 ">
<title>SVG Picture created as PCT2075_PROBE_PCB-F_Mask.svg date 2022/02/14 15:35:02 </title>
  <desc>Picture generated by PCBNEW </desc>
<g style="fill:#000000; fill-opacity:1;stroke:#000000; stroke-opacity:1;
stroke-linecap:round; stroke-linejoin:round; "
 transform="translate(0 0) scale(1 1)">
</g>
<g style="fill:#000000; fill-opacity:0.0; 
stroke:#000000; stroke-width:-0.000393701; stroke-opacity:1; 
stroke-linecap:round; stroke-linejoin:round;">
</g>
<g style="fill:#000000; fill-opacity:0.0; 
stroke:#000000; stroke-width:19.685; stroke-opacity:1; 
stroke-linecap:round; stroke-linejoin:round;">
<path d="M39370 53149
L40944 53149
" />
<path d="M39370 39370
L40944 39370
" />
<path d="M40944 39370
L40944 53149
" />
<path d="M39370 39370
L39370 53149
" />
</g>
<g style="fill:#000000; fill-opacity:1.0; 
stroke:#000000; stroke-width:0; stroke-opacity:1; 
stroke-linecap:round; stroke-linejoin:round;">
<path style="fill:#000000; fill-opacity:1.0; 
stroke:#000000; stroke-width:0; stroke-opacity:1; 
stroke-linecap:round; stroke-linejoin:round;fill-rule:evenodd;"
d="M 39758.3,52579.1
39481.9,52579.1
39481.9,50570.5
39758.3,50570.5
Z" /> 
<path style="fill:#000000; fill-opacity:1.0; 
stroke:#000000; stroke-width:0; stroke-opacity:1; 
stroke-linecap:round; stroke-linejoin:round;fill-rule:evenodd;"
d="M 40823.2,52579.1
40546.9,52579.1
40546.9,50570.5
40823.2,50570.5
Z" /> 
<path style="fill:#000000; fill-opacity:1.0; 
stroke:#000000; stroke-width:0; stroke-opacity:1; 
stroke-linecap:round; stroke-linejoin:round;fill-rule:evenodd;"
d="M 40295.7,52579.1
40019.3,52579.1
40019.3,50570.5
40295.7,50570.5
Z" /> 
<path style="fill:#000000; fill-opacity:1.0; 
stroke:#000000; stroke-width:0; stroke-opacity:1; 
stroke-linecap:round; stroke-linejoin:round;fill-rule:evenodd;"
d="M 40389.2,48977.7
40404.1,48982.2
40417.8,48989.6
40429.7,48999.4
40439.6,49011.4
40446.9,49025.1
40451.4,49039.9
40453.1,49057.7
40453.1,49387.1
40451.4,49405
40446.9,49419.8
40439.6,49433.5
40429.7,49445.5
40417.8,49455.3
40404.1,49462.6
40389.2,49467.1
40371.4,49468.9
39943.6,49468.9
39925.7,49467.1
39910.9,49462.6
39897.2,49455.3
39885.2,49445.5
39875.4,49433.5
39868.1,49419.8
39863.6,49405
39861.8,49387.1
39861.8,49057.7
39863.6,49039.9
39868.1,49025.1
39875.4,49011.4
39885.2,48999.4
39897.2,48989.6
39910.9,48982.2
39925.7,48977.7
39943.6,48976
40371.4,48976
Z" /> 
<path style="fill:#000000; fill-opacity:1.0; 
stroke:#000000; stroke-width:0; stroke-opacity:1; 
stroke-linecap:round; stroke-linejoin:round;fill-rule:evenodd;"
d="M 40389.2,48170.7
40404.1,48175.2
40417.8,48182.5
40429.7,48192.3
40439.6,48204.3
40446.9,48218
40451.4,48232.8
40453.1,48250.7
40453.1,48580.1
40451.4,48597.9
40446.9,48612.7
40439.6,48626.4
40429.7,48638.4
40417.8,48648.2
40404.1,48655.6
40389.2,48660.1
40371.4,48661.8
39943.6,48661.8
39925.7,48660.1
39910.9,48655.6
39897.2,48648.2
39885.2,48638.4
39875.4,48626.4
39868.1,48612.7
39863.6,48597.9
39861.8,48580.1
39861.8,48250.7
39863.6,48232.8
39868.1,48218
39875.4,48204.3
39885.2,48192.3
39897.2,48182.5
39910.9,48175.2
39925.7,48170.7
39943.6,48168.9
40371.4,48168.9
Z" /> 
<path style="fill:#000000; fill-opacity:1.0; 
stroke:#000000; stroke-width:0; stroke-opacity:1; 
stroke-linecap:round; stroke-linejoin:round;fill-rule:evenodd;"
d="M 40389.2,47009.2
40404.1,47013.7
40417.8,47021
40429.7,47030.9
40439.6,47042.9
40446.9,47056.5
40451.4,47071.4
40453.1,47089.2
40453.1,47418.6
40451.4,47436.5
40446.9,47451.3
40439.6,47465
40429.7,47477
40417.8,47486.8
40404.1,47494.1
40389.2,47498.6
40371.4,47500.4
39943.6,47500.4
39925.7,47498.6
39910.9,47494.1
39897.2,47486.8
39885.2,47477
39875.4,47465
39868.1,47451.3
39863.6,47436.5
39861.8,47418.6
39861.8,47089.2
39863.6,47071.4
39868.1,47056.5
39875.4,47042.9
39885.2,47030.9
39897.2,47021
39910.9,47013.7
39925.7,47009.2
39943.6,47007.5
40371.4,47007.5
Z" /> 
<path style="fill:#000000; fill-opacity:1.0; 
stroke:#000000; stroke-width:0; stroke-opacity:1; 
stroke-linecap:round; stroke-linejoin:round;fill-rule:evenodd;"
d="M 40389.2,46202.2
40404.1,46206.7
40417.8,46214
40429.7,46223.8
40439.6,46235.8
40446.9,46249.5
40451.4,46264.3
40453.1,46282.2
40453.1,46611.6
40451.4,46629.4
40446.9,46644.2
40439.6,46657.9
40429.7,46669.9
40417.8,46679.7
40404.1,46687
40389.2,46691.5
40371.4,46693.3
39943.6,46693.3
39925.7,46691.5
39910.9,46687
39897.2,46679.7
39885.2,46669.9
39875.4,46657.9
39868.1,46644.2
39863.6,46629.4
39861.8,46611.6
39861.8,46282.2
39863.6,46264.3
39868.1,46249.5
39875.4,46235.8
39885.2,46223.8
39897.2,46214
39910.9,46206.7
39925.7,46202.2
39943.6,46200.4
40371.4,46200.4
Z" /> 
<path style="fill:#000000; fill-opacity:1.0; 
stroke:#000000; stroke-width:0; stroke-opacity:1; 
stroke-linecap:round; stroke-linejoin:round;fill-rule:evenodd;"
d="M 40389.2,45040.7
40404.1,45045.2
40417.8,45052.5
40429.7,45062.4
40439.6,45074.4
40446.9,45088
40451.4,45102.9
40453.1,45120.7
40453.1,45450.1
40451.4,45468
40446.9,45482.8
40439.6,45496.5
40429.7,45508.5
40417.8,45518.3
40404.1,45525.6
40389.2,45530.1
40371.4,45531.9
39943.6,45531.9
39925.7,45530.1
39910.9,45525.6
39897.2,45518.3
39885.2,45508.5
39875.4,45496.5
39868.1,45482.8
39863.6,45468
39861.8,45450.1
39861.8,45120.7
39863.6,45102.9
39868.1,45088
39875.4,45074.4
39885.2,45062.4
39897.2,45052.5
39910.9,45045.2
39925.7,45040.7
39943.6,45039
40371.4,45039
Z" /> 
<path style="fill:#000000; fill-opacity:1.0; 
stroke:#000000; stroke-width:0; stroke-opacity:1; 
stroke-linecap:round; stroke-linejoin:round;fill-rule:evenodd;"
d="M 40389.2,44233.6
40404.1,44238.1
40417.8,44245.5
40429.7,44255.3
40439.6,44267.3
40446.9,44281
40451.4,44295.8
40453.1,44313.6
40453.1,44643
40451.4,44660.9
40446.9,44675.7
40439.6,44689.4
40429.7,44701.4
40417.8,44711.2
40404.1,44718.5
40389.2,44723
40371.4,44724.8
39943.6,44724.8
39925.7,44723
39910.9,44718.5
39897.2,44711.2
39885.2,44701.4
39875.4,44689.4
39868.1,44675.7
39863.6,44660.9
39861.8,44643
39861.8,44313.6
39863.6,44295.8
39868.1,44281
39875.4,44267.3
39885.2,44255.3
39897.2,44245.5
39910.9,44238.1
39925.7,44233.6
39943.6,44231.9
40371.4,44231.9
Z" /> 
<path style="fill:#000000; fill-opacity:1.0; 
stroke:#000000; stroke-width:0; stroke-opacity:1; 
stroke-linecap:round; stroke-linejoin:round;fill-rule:evenodd;"
d="M 39901.6,41964.6
39660.6,41964.6
39660.6,41648.8
39901.6,41648.8
Z" /> 
<path style="fill:#000000; fill-opacity:1.0; 
stroke:#000000; stroke-width:0; stroke-opacity:1; 
stroke-linecap:round; stroke-linejoin:round;fill-rule:evenodd;"
d="M 40275.6,41964.6
40034.6,41964.6
40034.6,41648.8
40275.6,41648.8
Z" /> 
<path style="fill:#000000; fill-opacity:1.0; 
stroke:#000000; stroke-width:0; stroke-opacity:1; 
stroke-linecap:round; stroke-linejoin:round;fill-rule:evenodd;"
d="M 40649.6,41964.6
40408.7,41964.6
40408.7,41648.8
40649.6,41648.8
Z" /> 
<path style="fill:#000000; fill-opacity:1.0; 
stroke:#000000; stroke-width:0; stroke-opacity:1; 
stroke-linecap:round; stroke-linejoin:round;fill-rule:evenodd;"
d="M 40275.6,41051.2
40034.6,41051.2
40034.6,40735.4
40275.6,40735.4
Z" /> 
<path style="fill:#000000; fill-opacity:1.0; 
stroke:#000000; stroke-width:0; stroke-opacity:1; 
stroke-linecap:round; stroke-linejoin:round;fill-rule:evenodd;"
d="M 40649.6,41051.2
40408.7,41051.2
40408.7,40735.4
40649.6,40735.4
Z" /> 
<path style="fill:#000000; fill-opacity:1.0; 
stroke:#000000; stroke-width:0; stroke-opacity:1; 
stroke-linecap:round; stroke-linejoin:round;fill-rule:evenodd;"
d="M 39901.6,41051.2
39660.6,41051.2
39660.6,40735.4
39901.6,40735.4
Z" /> 
<path style="fill:#000000; fill-opacity:1.0; 
stroke:#000000; stroke-width:0; stroke-opacity:1; 
stroke-linecap:round; stroke-linejoin:round;fill-rule:evenodd;"
d="M 39934.1,39611.2
39949,39615.7
39962.6,39623
39974.6,39632.9
39984.5,39644.8
39991.8,39658.5
39996.3,39673.4
39998,39691.2
39998,40119
39996.3,40136.9
39991.8,40151.7
39984.5,40165.4
39974.6,40177.4
39962.6,40187.2
39949,40194.5
39934.1,40199
39916.3,40200.8
39586.9,40200.8
39569,40199
39554.2,40194.5
39540.5,40187.2
39528.5,40177.4
39518.7,40165.4
39511.4,40151.7
39506.9,40136.9
39505.1,40119
39505.1,39691.2
39506.9,39673.4
39511.4,39658.5
39518.7,39644.8
39528.5,39632.9
39540.5,39623
39554.2,39615.7
39569,39611.2
39586.9,39609.4
39916.3,39609.4
Z" /> 
<path style="fill:#000000; fill-opacity:1.0; 
stroke:#000000; stroke-width:0; stroke-opacity:1; 
stroke-linecap:round; stroke-linejoin:round;fill-rule:evenodd;"
d="M 40741.2,39611.2
40756.1,39615.7
40769.7,39623
40781.7,39632.9
40791.5,39644.8
40798.9,39658.5
40803.4,39673.4
40805.1,39691.2
40805.1,40119
40803.4,40136.9
40798.9,40151.7
40791.5,40165.4
40781.7,40177.4
40769.7,40187.2
40756.1,40194.5
40741.2,40199
40723.4,40200.8
40394,40200.8
40376.1,40199
40361.3,40194.5
40347.6,40187.2
40335.6,40177.4
40325.8,40165.4
40318.5,40151.7
40314,40136.9
40312.2,40119
40312.2,39691.2
40314,39673.4
40318.5,39658.5
40325.8,39644.8
40335.6,39632.9
40347.6,39623
40361.3,39615.7
40376.1,39611.2
40394,39609.4
40723.4,39609.4
Z" /> 
</g> 
</svg>
