<?xml version="1.0" standalone="no"?>
 <!DOCTYPE svg PUBLIC "-//W3C//DTD SVG 1.1//EN" 
 "http://www.w3.org/Graphics/SVG/1.1/DTD/svg11.dtd"> 
<svg xmlns="http://www.w3.org/2000/svg" version="1.1" 
    width="29.7002cm" height="21.0007cm" viewBox="0 0 116930 82680 ">
<title>SVG Picture created as PCT2075_PROBE_PCB-B_SilkS.svg date 2022/02/14 15:35:02 </title>
  <desc>Picture generated by PCBNEW </desc>
<g style="fill:#000000; fill-opacity:1;stroke:#000000; stroke-opacity:1;
stroke-linecap:round; stroke-linejoin:round; "
 transform="translate(0 0) scale(1 1)">
</g>
<g style="fill:#000000; fill-opacity:0.0; 
stroke:#000000; stroke-width:-0.000393701; stroke-opacity:1; 
stroke-linecap:round; stroke-linejoin:round;">
</g>
<g style="fill:#000000; fill-opacity:0.0; 
stroke:#000000; stroke-width:59.0551; stroke-opacity:1; 
stroke-linecap:round; stroke-linejoin:round;">
<text x="40140" y="44193.1"
textLength="-215.692" font-size="-314.961" lengthAdjust="spacingAndGlyphs"
text-anchor="middle" opacity="0">+</text>
<path d="M40229 44091
L40050 44091
" />
<path d="M40140 44181
L40140 44001
" />
<text x="40140" y="42228.1"
textLength="-215.692" font-size="-314.961" lengthAdjust="spacingAndGlyphs"
text-anchor="middle" opacity="0">-</text>
<path d="M40229 42126
L40050 42126
" />
<text x="40410" y="53098.1"
textLength="-170.697" font-size="-314.961" lengthAdjust="spacingAndGlyphs"
text-anchor="middle" opacity="0">O</text>
<path d="M40432 52850
L40387 52850
L40365 52861
L40342 52884
L40331 52929
L40331 53008
L40342 53053
L40365 53075
L40387 53086
L40432 53086
L40454 53075
L40477 53053
L40488 53008
L40488 52929
L40477 52884
L40454 52861
L40432 52850
" />
<text x="39745" y="53098.1"
textLength="-215.692" font-size="-314.961" lengthAdjust="spacingAndGlyphs"
text-anchor="middle" opacity="0">-</text>
<path d="M39834 52996
L39655 52996
" />
</g>
<g style="fill:#000000; fill-opacity:0.0; 
stroke:#000000; stroke-width:19.685; stroke-opacity:1; 
stroke-linecap:round; stroke-linejoin:round;">
<path d="M39370 53149
L40944 53149
" />
<path d="M39370 39370
L40944 39370
" />
<path d="M40944 39370
L40944 53149
" />
<path d="M39370 39370
L39370 53149
" />
</g>
<g style="fill:#000000; fill-opacity:0.0; 
stroke:#000000; stroke-width:47.2441; stroke-opacity:1; 
stroke-linecap:round; stroke-linejoin:round;">
<path d="M39566 50511
L39566 52637
" />
<path d="M39960 50511
L39566 50511
" />
<path d="M39960 52637
L39960 50511
" />
<path d="M39566 52637
L39960 52637
" />
<path d="M40354 50511
L40354 52637
" />
<path d="M40748 50511
L40354 50511
" />
<path d="M40748 52637
L40748 50511
" />
<path d="M40354 52637
L40748 52637
" />
<path d="M40275.6 43927.2 A275.591 275.591 0.0 0 0 40551.2 43651.6 " />
<path d="M39763.8 43651.6 A275.591 275.591 0.0 0 0 40039.4 43927.2 " />
<path d="M40039.4 42313 A275.591 275.591 0.0 0 0 39763.8 42588.6 " />
<path d="M40551.2 42588.6 A275.591 275.591 0.0 0 0 40275.6 42313 " />
<path d="M40551 43671
L40551 42568
" />
<path d="M40275 42312
L40039 42312
" />
<path d="M39763 42568
L39763 43671
" />
<path d="M40039 43927
L40275 43927
" />
<path d="M39685 43592
L39566 43710
" />
<path d="M39566 43710
L39566 43474
" />
<path d="M39685 43592
L39566 43474
" />
<g >
</g>
<g >
</g>
<g >
</g>
<g >
</g>
<g >
</g>
<g >
</g>
<g >
</g>
<g >
</g>
<g >
</g>
<g >
</g>
<g >
</g>
</g>
<g style="fill:#000000; fill-opacity:0.0; 
stroke:#000000; stroke-width:47.2441; stroke-opacity:1; 
stroke-linecap:round; stroke-linejoin:round;">
</g>
<g style="fill:#000000; fill-opacity:0.0; 
stroke:#000000; stroke-width:59.0551; stroke-opacity:1; 
stroke-linecap:round; stroke-linejoin:round;">
<g transform="rotate(90 39855 50035)">
<text x="39855" y="50231.9"
textLength="-598.144" font-size="-524.934" lengthAdjust="spacingAndGlyphs"
text-anchor="middle" opacity="0">J5</text>
</g>
<path d="M40070 50166
L39789 50166
L39733 50184
L39695 50222
L39676 50278
L39676 50316
" />
<path d="M40070 49791
L40070 49978
L39883 49997
L39901 49978
L39920 49941
L39920 49847
L39901 49810
L39883 49791
L39845 49772
L39751 49772
L39714 49791
L39695 49810
L39676 49847
L39676 49941
L39695 49978
L39714 49997
" />
<g transform="rotate(90 40410 50025)">
<text x="40410" y="50221.9"
textLength="-598.144" font-size="-524.934" lengthAdjust="spacingAndGlyphs"
text-anchor="middle" opacity="0">J4</text>
</g>
<path d="M40625 50156
L40344 50156
L40288 50174
L40250 50212
L40231 50268
L40231 50306
" />
<path d="M40494 49800
L40231 49800
" />
<path d="M40644 49893
L40363 49987
L40363 49743
" />
<g transform="rotate(-90 40077.6 44839.4)">
<text x="40077.6" y="45036.2"
textLength="-991.845" font-size="-524.934" lengthAdjust="spacingAndGlyphs"
text-anchor="middle" opacity="0">JP0</text>
</g>
<path d="M39861 44511
L40143 44511
L40199 44492
L40236 44455
L40255 44398
L40255 44361
" />
<path d="M40255 44698
L39861 44698
L39861 44848
L39880 44886
L39899 44904
L39936 44923
L39993 44923
L40030 44904
L40049 44886
L40068 44848
L40068 44698
" />
<path d="M39861 45167
L39861 45204
L39880 45242
L39899 45261
L39936 45279
L40011 45298
L40105 45298
L40180 45279
L40218 45261
L40236 45242
L40255 45204
L40255 45167
L40236 45129
L40218 45111
L40180 45092
L40105 45073
L40011 45073
L39936 45092
L39899 45111
L39880 45129
L39861 45167
" />
<g >
</g>
</g> 
</svg>
