G04 #@! TF.GenerationSoftware,KiCad,Pcbnew,5.1.5+dfsg1-2build2*
G04 #@! TF.CreationDate,2022-01-05T21:46:20-05:00*
G04 #@! TF.ProjectId,PCT2075_PROBE_PCB,50435432-3037-4355-9f50-524f42455f50,rev?*
G04 #@! TF.SameCoordinates,Original*
G04 #@! TF.FileFunction,Legend,Bot*
G04 #@! TF.FilePolarity,Positive*
%FSLAX46Y46*%
G04 Gerber Fmt 4.6, Leading zero omitted, Abs format (unit mm)*
G04 Created by KiCad (PCBNEW 5.1.5+dfsg1-2build2) date 2022-01-05 21:46:20*
%MOMM*%
%LPD*%
G04 APERTURE LIST*
%ADD10C,0.150000*%
%ADD11C,0.120000*%
G04 APERTURE END LIST*
D10*
X102184171Y-111993357D02*
X101727028Y-111993357D01*
X101955600Y-112221928D02*
X101955600Y-111764785D01*
X102184171Y-107002257D02*
X101727028Y-107002257D01*
X102698542Y-134240628D02*
X102584257Y-134240628D01*
X102527114Y-134269200D01*
X102469971Y-134326342D01*
X102441400Y-134440628D01*
X102441400Y-134640628D01*
X102469971Y-134754914D01*
X102527114Y-134812057D01*
X102584257Y-134840628D01*
X102698542Y-134840628D01*
X102755685Y-134812057D01*
X102812828Y-134754914D01*
X102841400Y-134640628D01*
X102841400Y-134440628D01*
X102812828Y-134326342D01*
X102755685Y-134269200D01*
X102698542Y-134240628D01*
X101180871Y-134612057D02*
X100723728Y-134612057D01*
D11*
X100500000Y-128300000D02*
X100500000Y-133700000D01*
X101500000Y-128300000D02*
X100500000Y-128300000D01*
X101500000Y-133700000D02*
X101500000Y-128300000D01*
X100500000Y-133700000D02*
X101500000Y-133700000D01*
X102500000Y-128300000D02*
X102500000Y-133700000D01*
X103500000Y-128300000D02*
X102500000Y-128300000D01*
X103500000Y-133700000D02*
X103500000Y-128300000D01*
X102500000Y-133700000D02*
X103500000Y-133700000D01*
X102300000Y-111575000D02*
G75*
G03X103000000Y-110875000I0J700000D01*
G01*
X101000000Y-110875000D02*
G75*
G03X101700000Y-111575000I700000J0D01*
G01*
X101700000Y-107475000D02*
G75*
G03X101000000Y-108175000I0J-700000D01*
G01*
X103000000Y-108175000D02*
G75*
G03X102300000Y-107475000I-700000J0D01*
G01*
X103000000Y-110925000D02*
X103000000Y-108125000D01*
X102300000Y-107475000D02*
X101700000Y-107475000D01*
X101000000Y-108125000D02*
X101000000Y-110925000D01*
X101700000Y-111575000D02*
X102300000Y-111575000D01*
X100800000Y-110725000D02*
X100500000Y-111025000D01*
X100500000Y-111025000D02*
X100500000Y-110425000D01*
X100800000Y-110725000D02*
X100500000Y-110425000D01*
D10*
X101779319Y-127422233D02*
X101065033Y-127422233D01*
X100922176Y-127469852D01*
X100826938Y-127565090D01*
X100779319Y-127707947D01*
X100779319Y-127803185D01*
X101779319Y-126469852D02*
X101779319Y-126946042D01*
X101303128Y-126993661D01*
X101350747Y-126946042D01*
X101398366Y-126850804D01*
X101398366Y-126612709D01*
X101350747Y-126517471D01*
X101303128Y-126469852D01*
X101207890Y-126422233D01*
X100969795Y-126422233D01*
X100874557Y-126469852D01*
X100826938Y-126517471D01*
X100779319Y-126612709D01*
X100779319Y-126850804D01*
X100826938Y-126946042D01*
X100874557Y-126993661D01*
X103189019Y-127396833D02*
X102474733Y-127396833D01*
X102331876Y-127444452D01*
X102236638Y-127539690D01*
X102189019Y-127682547D01*
X102189019Y-127777785D01*
X102855685Y-126492071D02*
X102189019Y-126492071D01*
X103236638Y-126730166D02*
X102522352Y-126968261D01*
X102522352Y-126349214D01*
X101249380Y-113058666D02*
X101963666Y-113058666D01*
X102106523Y-113011047D01*
X102201761Y-112915809D01*
X102249380Y-112772952D01*
X102249380Y-112677714D01*
X102249380Y-113534857D02*
X101249380Y-113534857D01*
X101249380Y-113915809D01*
X101297000Y-114011047D01*
X101344619Y-114058666D01*
X101439857Y-114106285D01*
X101582714Y-114106285D01*
X101677952Y-114058666D01*
X101725571Y-114011047D01*
X101773190Y-113915809D01*
X101773190Y-113534857D01*
X101249380Y-114725333D02*
X101249380Y-114820571D01*
X101297000Y-114915809D01*
X101344619Y-114963428D01*
X101439857Y-115011047D01*
X101630333Y-115058666D01*
X101868428Y-115058666D01*
X102058904Y-115011047D01*
X102154142Y-114963428D01*
X102201761Y-114915809D01*
X102249380Y-114820571D01*
X102249380Y-114725333D01*
X102201761Y-114630095D01*
X102154142Y-114582476D01*
X102058904Y-114534857D01*
X101868428Y-114487238D01*
X101630333Y-114487238D01*
X101439857Y-114534857D01*
X101344619Y-114582476D01*
X101297000Y-114630095D01*
X101249380Y-114725333D01*
M02*
