M48
; DRILL file {KiCad 5.1.5+dfsg1-2build2} date lun 03 ene 2022 21:34:51
; FORMAT={-:-/ absolute / metric / decimal}
; #@! TF.CreationDate,2022-01-03T21:34:51-05:00
; #@! TF.GenerationSoftware,Kicad,Pcbnew,5.1.5+dfsg1-2build2
; #@! TF.FileFunction,Plated,1,2,PTH
FMAT,2
METRIC
T1C0.400
%
G90
G05
T1
X83.527Y-69.756
X83.527Y-104.756
X84.137Y-73.045
X84.137Y-108.045
X84.15Y-80.352
X84.15Y-115.352
X84.854Y-59.813
X84.854Y-94.813
X86.941Y-70.713
X86.941Y-105.713
X87.351Y-87.797
X87.351Y-122.797
X87.526Y-69.445
X87.526Y-104.445
X87.637Y-59.693
X87.637Y-94.693
X89.027Y-69.756
X89.027Y-104.756
X89.637Y-73.045
X89.637Y-108.045
X89.65Y-80.352
X89.65Y-115.352
X90.354Y-59.813
X90.354Y-94.813
X92.441Y-70.713
X92.441Y-105.713
X92.851Y-87.797
X92.851Y-122.797
X93.026Y-69.445
X93.026Y-104.445
X93.137Y-59.693
X93.137Y-94.693
X94.527Y-69.756
X94.527Y-104.756
X95.137Y-73.045
X95.137Y-108.045
X95.15Y-80.352
X95.15Y-115.352
X95.854Y-59.813
X95.854Y-94.813
X97.941Y-70.713
X97.941Y-105.713
X98.351Y-87.797
X98.351Y-122.797
X98.526Y-69.445
X98.526Y-104.445
X98.637Y-59.693
X98.637Y-94.693
X100.027Y-69.756
X100.027Y-104.756
X100.637Y-73.045
X100.637Y-108.045
X100.65Y-80.352
X100.65Y-115.352
X101.354Y-59.813
X101.354Y-94.813
X103.441Y-70.713
X103.441Y-105.713
X103.851Y-87.797
X103.851Y-122.797
X104.026Y-69.445
X104.026Y-104.445
X104.137Y-59.693
X104.137Y-94.693
X105.527Y-69.756
X105.527Y-104.756
X106.137Y-73.045
X106.137Y-108.045
X106.15Y-80.352
X106.15Y-115.352
X106.854Y-59.813
X106.854Y-94.813
X108.941Y-70.713
X108.941Y-105.713
X109.351Y-87.797
X109.351Y-122.797
X109.526Y-69.445
X109.526Y-104.445
X109.637Y-59.693
X109.637Y-94.693
X111.027Y-69.756
X111.027Y-104.756
X111.637Y-73.045
X111.637Y-108.045
X111.65Y-80.352
X111.65Y-115.352
X112.354Y-59.813
X112.354Y-94.813
X114.441Y-70.713
X114.441Y-105.713
X114.851Y-87.797
X114.851Y-122.797
X115.026Y-69.445
X115.026Y-104.445
X115.137Y-59.693
X115.137Y-94.693
X116.527Y-69.756
X116.527Y-104.756
X117.137Y-73.045
X117.137Y-108.045
X117.15Y-80.352
X117.15Y-115.352
X117.854Y-59.813
X117.854Y-94.813
X119.941Y-70.713
X119.941Y-105.713
X120.351Y-87.797
X120.351Y-122.797
X120.526Y-69.445
X120.526Y-104.445
X120.637Y-59.693
X120.637Y-94.693
X122.027Y-69.756
X122.027Y-104.756
X122.637Y-73.045
X122.637Y-108.045
X122.65Y-80.352
X122.65Y-115.352
X123.354Y-59.813
X123.354Y-94.813
X125.441Y-70.713
X125.441Y-105.713
X125.851Y-87.797
X125.851Y-122.797
X126.026Y-69.445
X126.026Y-104.445
X126.137Y-59.693
X126.137Y-94.693
X127.527Y-69.756
X127.527Y-104.756
X128.137Y-73.045
X128.137Y-108.045
X128.15Y-80.352
X128.15Y-115.352
X128.854Y-59.813
X128.854Y-94.813
X130.941Y-70.713
X130.941Y-105.713
X131.351Y-87.797
X131.351Y-122.797
X131.526Y-69.445
X131.526Y-104.445
X131.637Y-59.693
X131.637Y-94.693
X133.027Y-69.756
X133.027Y-104.756
X133.637Y-73.045
X133.637Y-108.045
X133.65Y-80.352
X133.65Y-115.352
X134.354Y-59.813
X134.354Y-94.813
X136.441Y-70.713
X136.441Y-105.713
X136.851Y-87.797
X136.851Y-122.797
X137.026Y-69.445
X137.026Y-104.445
X137.137Y-59.693
X137.137Y-94.693
X138.527Y-69.756
X138.527Y-104.756
X139.137Y-73.045
X139.137Y-108.045
X139.15Y-80.352
X139.15Y-115.352
X139.854Y-59.813
X139.854Y-94.813
X141.941Y-70.713
X141.941Y-105.713
X142.351Y-87.797
X142.351Y-122.797
X142.526Y-69.445
X142.526Y-104.445
X142.637Y-59.693
X142.637Y-94.693
X144.027Y-69.756
X144.027Y-104.756
X144.637Y-73.045
X144.637Y-108.045
X144.65Y-80.352
X144.65Y-115.352
X145.354Y-59.813
X145.354Y-94.813
X147.441Y-70.713
X147.441Y-105.713
X147.851Y-87.797
X147.851Y-122.797
X148.026Y-69.445
X148.026Y-104.445
X148.137Y-59.693
X148.137Y-94.693
X149.527Y-69.756
X149.527Y-104.756
X150.137Y-73.045
X150.137Y-108.045
X150.15Y-80.352
X150.15Y-115.352
X150.854Y-59.813
X150.854Y-94.813
X152.941Y-70.713
X152.941Y-105.713
X153.351Y-87.797
X153.351Y-122.797
X153.526Y-69.445
X153.526Y-104.445
X153.637Y-59.693
X153.637Y-94.693
X155.027Y-69.756
X155.027Y-104.756
X155.637Y-73.045
X155.637Y-108.045
X155.65Y-80.352
X155.65Y-115.352
X156.354Y-59.813
X156.354Y-94.813
X158.441Y-70.713
X158.441Y-105.713
X158.851Y-87.797
X158.851Y-122.797
X159.026Y-69.445
X159.026Y-104.445
X159.137Y-59.693
X159.137Y-94.693
X160.527Y-69.756
X160.527Y-104.756
X161.137Y-73.045
X161.137Y-108.045
X161.15Y-80.352
X161.15Y-115.352
X161.854Y-59.813
X161.854Y-94.813
X163.941Y-70.713
X163.941Y-105.713
X164.351Y-87.797
X164.351Y-122.797
X164.526Y-69.445
X164.526Y-104.445
X164.637Y-59.693
X164.637Y-94.693
X166.027Y-69.756
X166.027Y-104.756
X166.637Y-73.045
X166.637Y-108.045
X166.65Y-80.352
X166.65Y-115.352
X167.354Y-59.813
X167.354Y-94.813
X169.441Y-70.713
X169.441Y-105.713
X169.851Y-87.797
X169.851Y-122.797
X170.026Y-69.445
X170.026Y-104.445
X170.137Y-59.693
X170.137Y-94.693
X171.527Y-69.756
X171.527Y-104.756
X172.137Y-73.045
X172.137Y-108.045
X172.15Y-80.352
X172.15Y-115.352
X172.854Y-59.813
X172.854Y-94.813
X174.941Y-70.713
X174.941Y-105.713
X175.351Y-87.797
X175.351Y-122.797
X175.526Y-69.445
X175.526Y-104.445
X175.637Y-59.693
X175.637Y-94.693
X177.027Y-69.756
X177.027Y-104.756
X177.637Y-73.045
X177.637Y-108.045
X177.65Y-80.352
X177.65Y-115.352
X178.354Y-59.813
X178.354Y-94.813
X180.441Y-70.713
X180.441Y-105.713
X180.851Y-87.797
X180.851Y-122.797
X181.026Y-69.445
X181.026Y-104.445
X181.137Y-59.693
X181.137Y-94.693
T0
M30
