G04 #@! TF.GenerationSoftware,KiCad,Pcbnew,5.1.5+dfsg1-2build2*
G04 #@! TF.CreationDate,2022-01-05T22:10:48-05:00*
G04 #@! TF.ProjectId,,58585858-5858-4585-9858-585858585858,rev?*
G04 #@! TF.SameCoordinates,Original*
G04 #@! TF.FileFunction,Profile,NP*
%FSLAX46Y46*%
G04 Gerber Fmt 4.6, Leading zero omitted, Abs format (unit mm)*
G04 Created by KiCad (PCBNEW 5.1.5+dfsg1-2build2) date 2022-01-05 22:10:48*
%MOMM*%
%LPD*%
G04 APERTURE LIST*
%ADD10C,0.050000*%
G04 APERTURE END LIST*
D10*
X158332300Y-107058800D02*
X162332300Y-107058800D01*
X154332300Y-107058800D02*
X158332300Y-107058800D01*
X150332300Y-107058800D02*
X154332300Y-107058800D01*
X146332300Y-107058800D02*
X150332300Y-107058800D01*
X142332300Y-107058800D02*
X146332300Y-107058800D01*
X138332300Y-107058800D02*
X142332300Y-107058800D01*
X134332300Y-107058800D02*
X138332300Y-107058800D01*
X130332300Y-107058800D02*
X134332300Y-107058800D01*
X126332300Y-107058800D02*
X130332300Y-107058800D01*
X122332300Y-107058800D02*
X126332300Y-107058800D01*
X118332300Y-107058800D02*
X122332300Y-107058800D01*
X114332300Y-107058800D02*
X118332300Y-107058800D01*
X110332300Y-107058800D02*
X114332300Y-107058800D01*
X106332300Y-107058800D02*
X110332300Y-107058800D01*
X102332300Y-107058800D02*
X106332300Y-107058800D01*
X98332300Y-107058800D02*
X102332300Y-107058800D01*
X94332300Y-107058800D02*
X98332300Y-107058800D01*
X90332300Y-107058800D02*
X94332300Y-107058800D01*
X86332300Y-107058800D02*
X90332300Y-107058800D01*
X82332300Y-107058800D02*
X86332300Y-107058800D01*
X78332300Y-107058800D02*
X82332300Y-107058800D01*
X74332300Y-107058800D02*
X78332300Y-107058800D01*
X70332300Y-107058800D02*
X74332300Y-107058800D01*
X66332300Y-107058800D02*
X70332300Y-107058800D01*
X158332300Y-72058800D02*
X162332300Y-72058800D01*
X154332300Y-72058800D02*
X158332300Y-72058800D01*
X150332300Y-72058800D02*
X154332300Y-72058800D01*
X146332300Y-72058800D02*
X150332300Y-72058800D01*
X142332300Y-72058800D02*
X146332300Y-72058800D01*
X138332300Y-72058800D02*
X142332300Y-72058800D01*
X134332300Y-72058800D02*
X138332300Y-72058800D01*
X130332300Y-72058800D02*
X134332300Y-72058800D01*
X126332300Y-72058800D02*
X130332300Y-72058800D01*
X122332300Y-72058800D02*
X126332300Y-72058800D01*
X118332300Y-72058800D02*
X122332300Y-72058800D01*
X114332300Y-72058800D02*
X118332300Y-72058800D01*
X110332300Y-72058800D02*
X114332300Y-72058800D01*
X106332300Y-72058800D02*
X110332300Y-72058800D01*
X102332300Y-72058800D02*
X106332300Y-72058800D01*
X98332300Y-72058800D02*
X102332300Y-72058800D01*
X94332300Y-72058800D02*
X98332300Y-72058800D01*
X90332300Y-72058800D02*
X94332300Y-72058800D01*
X86332300Y-72058800D02*
X90332300Y-72058800D01*
X82332300Y-72058800D02*
X86332300Y-72058800D01*
X78332300Y-72058800D02*
X82332300Y-72058800D01*
X74332300Y-72058800D02*
X78332300Y-72058800D01*
X70332300Y-72058800D02*
X74332300Y-72058800D01*
X158332300Y-72058800D02*
X162332300Y-72058800D01*
X154332300Y-72058800D02*
X158332300Y-72058800D01*
X150332300Y-72058800D02*
X154332300Y-72058800D01*
X146332300Y-72058800D02*
X150332300Y-72058800D01*
X142332300Y-72058800D02*
X146332300Y-72058800D01*
X138332300Y-72058800D02*
X142332300Y-72058800D01*
X134332300Y-72058800D02*
X138332300Y-72058800D01*
X130332300Y-72058800D02*
X134332300Y-72058800D01*
X126332300Y-72058800D02*
X130332300Y-72058800D01*
X122332300Y-72058800D02*
X126332300Y-72058800D01*
X118332300Y-72058800D02*
X122332300Y-72058800D01*
X114332300Y-72058800D02*
X118332300Y-72058800D01*
X110332300Y-72058800D02*
X114332300Y-72058800D01*
X106332300Y-72058800D02*
X110332300Y-72058800D01*
X102332300Y-72058800D02*
X106332300Y-72058800D01*
X98332300Y-72058800D02*
X102332300Y-72058800D01*
X94332300Y-72058800D02*
X98332300Y-72058800D01*
X90332300Y-72058800D02*
X94332300Y-72058800D01*
X86332300Y-72058800D02*
X90332300Y-72058800D01*
X82332300Y-72058800D02*
X86332300Y-72058800D01*
X78332300Y-72058800D02*
X82332300Y-72058800D01*
X74332300Y-72058800D02*
X78332300Y-72058800D01*
X70332300Y-72058800D02*
X74332300Y-72058800D01*
X66332300Y-72058800D02*
X70332300Y-72058800D01*
X158332300Y-37058800D02*
X162332300Y-37058800D01*
X154332300Y-37058800D02*
X158332300Y-37058800D01*
X150332300Y-37058800D02*
X154332300Y-37058800D01*
X146332300Y-37058800D02*
X150332300Y-37058800D01*
X142332300Y-37058800D02*
X146332300Y-37058800D01*
X138332300Y-37058800D02*
X142332300Y-37058800D01*
X134332300Y-37058800D02*
X138332300Y-37058800D01*
X130332300Y-37058800D02*
X134332300Y-37058800D01*
X126332300Y-37058800D02*
X130332300Y-37058800D01*
X122332300Y-37058800D02*
X126332300Y-37058800D01*
X118332300Y-37058800D02*
X122332300Y-37058800D01*
X114332300Y-37058800D02*
X118332300Y-37058800D01*
X110332300Y-37058800D02*
X114332300Y-37058800D01*
X106332300Y-37058800D02*
X110332300Y-37058800D01*
X102332300Y-37058800D02*
X106332300Y-37058800D01*
X98332300Y-37058800D02*
X102332300Y-37058800D01*
X94332300Y-37058800D02*
X98332300Y-37058800D01*
X90332300Y-37058800D02*
X94332300Y-37058800D01*
X86332300Y-37058800D02*
X90332300Y-37058800D01*
X82332300Y-37058800D02*
X86332300Y-37058800D01*
X78332300Y-37058800D02*
X82332300Y-37058800D01*
X74332300Y-37058800D02*
X78332300Y-37058800D01*
X70332300Y-37058800D02*
X74332300Y-37058800D01*
X162332300Y-72058800D02*
X162332300Y-107058800D01*
X158332300Y-72058800D02*
X158332300Y-107058800D01*
X154332300Y-72058800D02*
X154332300Y-107058800D01*
X150332300Y-72058800D02*
X150332300Y-107058800D01*
X146332300Y-72058800D02*
X146332300Y-107058800D01*
X142332300Y-72058800D02*
X142332300Y-107058800D01*
X138332300Y-72058800D02*
X138332300Y-107058800D01*
X134332300Y-72058800D02*
X134332300Y-107058800D01*
X130332300Y-72058800D02*
X130332300Y-107058800D01*
X126332300Y-72058800D02*
X126332300Y-107058800D01*
X122332300Y-72058800D02*
X122332300Y-107058800D01*
X118332300Y-72058800D02*
X118332300Y-107058800D01*
X114332300Y-72058800D02*
X114332300Y-107058800D01*
X110332300Y-72058800D02*
X110332300Y-107058800D01*
X106332300Y-72058800D02*
X106332300Y-107058800D01*
X102332300Y-72058800D02*
X102332300Y-107058800D01*
X98332300Y-72058800D02*
X98332300Y-107058800D01*
X94332300Y-72058800D02*
X94332300Y-107058800D01*
X90332300Y-72058800D02*
X90332300Y-107058800D01*
X86332300Y-72058800D02*
X86332300Y-107058800D01*
X82332300Y-72058800D02*
X82332300Y-107058800D01*
X78332300Y-72058800D02*
X78332300Y-107058800D01*
X74332300Y-72058800D02*
X74332300Y-107058800D01*
X70332300Y-72058800D02*
X70332300Y-107058800D01*
X162332300Y-37058800D02*
X162332300Y-72058800D01*
X158332300Y-37058800D02*
X158332300Y-72058800D01*
X154332300Y-37058800D02*
X154332300Y-72058800D01*
X150332300Y-37058800D02*
X150332300Y-72058800D01*
X146332300Y-37058800D02*
X146332300Y-72058800D01*
X142332300Y-37058800D02*
X142332300Y-72058800D01*
X138332300Y-37058800D02*
X138332300Y-72058800D01*
X134332300Y-37058800D02*
X134332300Y-72058800D01*
X130332300Y-37058800D02*
X130332300Y-72058800D01*
X126332300Y-37058800D02*
X126332300Y-72058800D01*
X122332300Y-37058800D02*
X122332300Y-72058800D01*
X118332300Y-37058800D02*
X118332300Y-72058800D01*
X114332300Y-37058800D02*
X114332300Y-72058800D01*
X110332300Y-37058800D02*
X110332300Y-72058800D01*
X106332300Y-37058800D02*
X106332300Y-72058800D01*
X102332300Y-37058800D02*
X102332300Y-72058800D01*
X98332300Y-37058800D02*
X98332300Y-72058800D01*
X94332300Y-37058800D02*
X94332300Y-72058800D01*
X90332300Y-37058800D02*
X90332300Y-72058800D01*
X86332300Y-37058800D02*
X86332300Y-72058800D01*
X82332300Y-37058800D02*
X82332300Y-72058800D01*
X78332300Y-37058800D02*
X78332300Y-72058800D01*
X74332300Y-37058800D02*
X74332300Y-72058800D01*
X158332300Y-72058800D02*
X158332300Y-107058800D01*
X154332300Y-72058800D02*
X154332300Y-107058800D01*
X150332300Y-72058800D02*
X150332300Y-107058800D01*
X146332300Y-72058800D02*
X146332300Y-107058800D01*
X142332300Y-72058800D02*
X142332300Y-107058800D01*
X138332300Y-72058800D02*
X138332300Y-107058800D01*
X134332300Y-72058800D02*
X134332300Y-107058800D01*
X130332300Y-72058800D02*
X130332300Y-107058800D01*
X126332300Y-72058800D02*
X126332300Y-107058800D01*
X122332300Y-72058800D02*
X122332300Y-107058800D01*
X118332300Y-72058800D02*
X118332300Y-107058800D01*
X114332300Y-72058800D02*
X114332300Y-107058800D01*
X110332300Y-72058800D02*
X110332300Y-107058800D01*
X106332300Y-72058800D02*
X106332300Y-107058800D01*
X102332300Y-72058800D02*
X102332300Y-107058800D01*
X98332300Y-72058800D02*
X98332300Y-107058800D01*
X94332300Y-72058800D02*
X94332300Y-107058800D01*
X90332300Y-72058800D02*
X90332300Y-107058800D01*
X86332300Y-72058800D02*
X86332300Y-107058800D01*
X82332300Y-72058800D02*
X82332300Y-107058800D01*
X78332300Y-72058800D02*
X78332300Y-107058800D01*
X74332300Y-72058800D02*
X74332300Y-107058800D01*
X70332300Y-72058800D02*
X70332300Y-107058800D01*
X66332300Y-72058800D02*
X66332300Y-107058800D01*
X158332300Y-37058800D02*
X158332300Y-72058800D01*
X154332300Y-37058800D02*
X154332300Y-72058800D01*
X150332300Y-37058800D02*
X150332300Y-72058800D01*
X146332300Y-37058800D02*
X146332300Y-72058800D01*
X142332300Y-37058800D02*
X142332300Y-72058800D01*
X138332300Y-37058800D02*
X138332300Y-72058800D01*
X134332300Y-37058800D02*
X134332300Y-72058800D01*
X130332300Y-37058800D02*
X130332300Y-72058800D01*
X126332300Y-37058800D02*
X126332300Y-72058800D01*
X122332300Y-37058800D02*
X122332300Y-72058800D01*
X118332300Y-37058800D02*
X118332300Y-72058800D01*
X114332300Y-37058800D02*
X114332300Y-72058800D01*
X110332300Y-37058800D02*
X110332300Y-72058800D01*
X106332300Y-37058800D02*
X106332300Y-72058800D01*
X102332300Y-37058800D02*
X102332300Y-72058800D01*
X98332300Y-37058800D02*
X98332300Y-72058800D01*
X94332300Y-37058800D02*
X94332300Y-72058800D01*
X90332300Y-37058800D02*
X90332300Y-72058800D01*
X86332300Y-37058800D02*
X86332300Y-72058800D01*
X82332300Y-37058800D02*
X82332300Y-72058800D01*
X78332300Y-37058800D02*
X78332300Y-72058800D01*
X74332300Y-37058800D02*
X74332300Y-72058800D01*
X70332300Y-37058800D02*
X70332300Y-72058800D01*
X66332300Y-72058800D02*
X70332300Y-72058800D01*
X66332300Y-37058800D02*
X70332300Y-37058800D01*
X70332300Y-37058800D02*
X70332300Y-72058800D01*
X66332300Y-37058800D02*
X66332300Y-72058800D01*
M02*
