G04 #@! TF.GenerationSoftware,KiCad,Pcbnew,5.1.5+dfsg1-2build2*
G04 #@! TF.CreationDate,2022-01-03T21:16:55-05:00*
G04 #@! TF.ProjectId,LM75A_PROBE_PCB,4c4d3735-415f-4505-924f-42455f504342,rev?*
G04 #@! TF.SameCoordinates,Original*
G04 #@! TF.FileFunction,Legend,Bot*
G04 #@! TF.FilePolarity,Positive*
%FSLAX46Y46*%
G04 Gerber Fmt 4.6, Leading zero omitted, Abs format (unit mm)*
G04 Created by KiCad (PCBNEW 5.1.5+dfsg1-2build2) date 2022-01-03 21:16:55*
%MOMM*%
%LPD*%
G04 APERTURE LIST*
%ADD10C,0.150000*%
%ADD11C,0.120000*%
G04 APERTURE END LIST*
D10*
X102996971Y-115523957D02*
X102539828Y-115523957D01*
X102768400Y-115752528D02*
X102768400Y-115295385D01*
X104355871Y-110875757D02*
X103898728Y-110875757D01*
X104127300Y-111104328D02*
X104127300Y-110647185D01*
X101765071Y-110863057D02*
X101307928Y-110863057D01*
X101536500Y-111091628D02*
X101536500Y-110634485D01*
X101638071Y-115854157D02*
X101180928Y-115854157D01*
X104279671Y-115854157D02*
X103822528Y-115854157D01*
X102933471Y-120515057D02*
X102476328Y-120515057D01*
X101693685Y-134707285D02*
X101722257Y-134735857D01*
X101807971Y-134764428D01*
X101865114Y-134764428D01*
X101950828Y-134735857D01*
X102007971Y-134678714D01*
X102036542Y-134621571D01*
X102065114Y-134507285D01*
X102065114Y-134421571D01*
X102036542Y-134307285D01*
X102007971Y-134250142D01*
X101950828Y-134193000D01*
X101865114Y-134164428D01*
X101807971Y-134164428D01*
X101722257Y-134193000D01*
X101693685Y-134221571D01*
X103746271Y-134497757D02*
X103289128Y-134497757D01*
D11*
X103132000Y-128300000D02*
X103132000Y-133700000D01*
X104132000Y-128300000D02*
X103132000Y-128300000D01*
X104132000Y-133700000D02*
X104132000Y-128300000D01*
X103132000Y-133700000D02*
X104132000Y-133700000D01*
X101392000Y-128300000D02*
X101392000Y-133700000D01*
X102392000Y-128300000D02*
X101392000Y-128300000D01*
X102392000Y-133700000D02*
X102392000Y-128300000D01*
X101392000Y-133700000D02*
X102392000Y-133700000D01*
X103950000Y-116846000D02*
X104250000Y-117146000D01*
X104250000Y-116546000D02*
X104250000Y-117146000D01*
X103950000Y-116846000D02*
X104250000Y-116546000D01*
X103050000Y-115996000D02*
X102450000Y-115996000D01*
X103750000Y-119446000D02*
X103750000Y-116646000D01*
X102450000Y-120096000D02*
X103050000Y-120096000D01*
X101750000Y-116646000D02*
X101750000Y-119446000D01*
X101750000Y-119396000D02*
G75*
G03X102450000Y-120096000I700000J0D01*
G01*
X103050000Y-120096000D02*
G75*
G03X103750000Y-119396000I0J700000D01*
G01*
X103750000Y-116696000D02*
G75*
G03X103050000Y-115996000I-700000J0D01*
G01*
X102450000Y-115996000D02*
G75*
G03X101750000Y-116696000I0J-700000D01*
G01*
X105264000Y-112200000D02*
X105564000Y-112500000D01*
X105564000Y-111900000D02*
X105564000Y-112500000D01*
X105264000Y-112200000D02*
X105564000Y-111900000D01*
X104364000Y-111350000D02*
X103764000Y-111350000D01*
X105064000Y-114800000D02*
X105064000Y-112000000D01*
X103764000Y-115450000D02*
X104364000Y-115450000D01*
X103064000Y-112000000D02*
X103064000Y-114800000D01*
X103064000Y-114750000D02*
G75*
G03X103764000Y-115450000I700000J0D01*
G01*
X104364000Y-115450000D02*
G75*
G03X105064000Y-114750000I0J700000D01*
G01*
X105064000Y-112050000D02*
G75*
G03X104364000Y-111350000I-700000J0D01*
G01*
X103764000Y-111350000D02*
G75*
G03X103064000Y-112050000I0J-700000D01*
G01*
X102648000Y-112200000D02*
X102948000Y-112500000D01*
X102948000Y-111900000D02*
X102948000Y-112500000D01*
X102648000Y-112200000D02*
X102948000Y-111900000D01*
X101748000Y-111350000D02*
X101148000Y-111350000D01*
X102448000Y-114800000D02*
X102448000Y-112000000D01*
X101148000Y-115450000D02*
X101748000Y-115450000D01*
X100448000Y-112000000D02*
X100448000Y-114800000D01*
X100448000Y-114750000D02*
G75*
G03X101148000Y-115450000I700000J0D01*
G01*
X101748000Y-115450000D02*
G75*
G03X102448000Y-114750000I0J700000D01*
G01*
X102448000Y-112050000D02*
G75*
G03X101748000Y-111350000I-700000J0D01*
G01*
X101148000Y-111350000D02*
G75*
G03X100448000Y-112050000I0J-700000D01*
G01*
D10*
X104105033Y-126884180D02*
X104105033Y-127598466D01*
X104152652Y-127741323D01*
X104247890Y-127836561D01*
X104390747Y-127884180D01*
X104485985Y-127884180D01*
X103152652Y-126884180D02*
X103628842Y-126884180D01*
X103676461Y-127360371D01*
X103628842Y-127312752D01*
X103533604Y-127265133D01*
X103295509Y-127265133D01*
X103200271Y-127312752D01*
X103152652Y-127360371D01*
X103105033Y-127455609D01*
X103105033Y-127693704D01*
X103152652Y-127788942D01*
X103200271Y-127836561D01*
X103295509Y-127884180D01*
X103533604Y-127884180D01*
X103628842Y-127836561D01*
X103676461Y-127788942D01*
X102314233Y-126922280D02*
X102314233Y-127636566D01*
X102361852Y-127779423D01*
X102457090Y-127874661D01*
X102599947Y-127922280D01*
X102695185Y-127922280D01*
X101933280Y-126922280D02*
X101314233Y-126922280D01*
X101647566Y-127303233D01*
X101504709Y-127303233D01*
X101409471Y-127350852D01*
X101361852Y-127398471D01*
X101314233Y-127493709D01*
X101314233Y-127731804D01*
X101361852Y-127827042D01*
X101409471Y-127874661D01*
X101504709Y-127922280D01*
X101790423Y-127922280D01*
X101885661Y-127874661D01*
X101933280Y-127827042D01*
X102093780Y-121771966D02*
X102808066Y-121771966D01*
X102950923Y-121724347D01*
X103046161Y-121629109D01*
X103093780Y-121486252D01*
X103093780Y-121391014D01*
X103093780Y-122248157D02*
X102093780Y-122248157D01*
X102093780Y-122629109D01*
X102141400Y-122724347D01*
X102189019Y-122771966D01*
X102284257Y-122819585D01*
X102427114Y-122819585D01*
X102522352Y-122771966D01*
X102569971Y-122724347D01*
X102617590Y-122629109D01*
X102617590Y-122248157D01*
X102189019Y-123200538D02*
X102141400Y-123248157D01*
X102093780Y-123343395D01*
X102093780Y-123581490D01*
X102141400Y-123676728D01*
X102189019Y-123724347D01*
X102284257Y-123771966D01*
X102379495Y-123771966D01*
X102522352Y-123724347D01*
X103093780Y-123152919D01*
X103093780Y-123771966D01*
X103452680Y-108136166D02*
X104166966Y-108136166D01*
X104309823Y-108088547D01*
X104405061Y-107993309D01*
X104452680Y-107850452D01*
X104452680Y-107755214D01*
X104452680Y-108612357D02*
X103452680Y-108612357D01*
X103452680Y-108993309D01*
X103500300Y-109088547D01*
X103547919Y-109136166D01*
X103643157Y-109183785D01*
X103786014Y-109183785D01*
X103881252Y-109136166D01*
X103928871Y-109088547D01*
X103976490Y-108993309D01*
X103976490Y-108612357D01*
X104452680Y-110136166D02*
X104452680Y-109564738D01*
X104452680Y-109850452D02*
X103452680Y-109850452D01*
X103595538Y-109755214D01*
X103690776Y-109659976D01*
X103738395Y-109564738D01*
X101103380Y-108199666D02*
X101817666Y-108199666D01*
X101960523Y-108152047D01*
X102055761Y-108056809D01*
X102103380Y-107913952D01*
X102103380Y-107818714D01*
X102103380Y-108675857D02*
X101103380Y-108675857D01*
X101103380Y-109056809D01*
X101151000Y-109152047D01*
X101198619Y-109199666D01*
X101293857Y-109247285D01*
X101436714Y-109247285D01*
X101531952Y-109199666D01*
X101579571Y-109152047D01*
X101627190Y-109056809D01*
X101627190Y-108675857D01*
X101103380Y-109866333D02*
X101103380Y-109961571D01*
X101151000Y-110056809D01*
X101198619Y-110104428D01*
X101293857Y-110152047D01*
X101484333Y-110199666D01*
X101722428Y-110199666D01*
X101912904Y-110152047D01*
X102008142Y-110104428D01*
X102055761Y-110056809D01*
X102103380Y-109961571D01*
X102103380Y-109866333D01*
X102055761Y-109771095D01*
X102008142Y-109723476D01*
X101912904Y-109675857D01*
X101722428Y-109628238D01*
X101484333Y-109628238D01*
X101293857Y-109675857D01*
X101198619Y-109723476D01*
X101151000Y-109771095D01*
X101103380Y-109866333D01*
M02*
