G04 #@! TF.GenerationSoftware,KiCad,Pcbnew,5.1.5+dfsg1-2build2*
G04 #@! TF.CreationDate,2022-01-03T21:16:55-05:00*
G04 #@! TF.ProjectId,LM75A_PROBE_PCB,4c4d3735-415f-4505-924f-42455f504342,rev?*
G04 #@! TF.SameCoordinates,Original*
G04 #@! TF.FileFunction,Soldermask,Bot*
G04 #@! TF.FilePolarity,Negative*
%FSLAX46Y46*%
G04 Gerber Fmt 4.6, Leading zero omitted, Abs format (unit mm)*
G04 Created by KiCad (PCBNEW 5.1.5+dfsg1-2build2) date 2022-01-03 21:16:55*
%MOMM*%
%LPD*%
G04 APERTURE LIST*
%ADD10C,0.100000*%
G04 APERTURE END LIST*
D10*
G36*
X103983000Y-133551000D02*
G01*
X103281000Y-133551000D01*
X103281000Y-128449000D01*
X103983000Y-128449000D01*
X103983000Y-133551000D01*
G37*
G36*
X102243000Y-133551000D02*
G01*
X101541000Y-133551000D01*
X101541000Y-128449000D01*
X102243000Y-128449000D01*
X102243000Y-133551000D01*
G37*
G36*
X103012199Y-116195954D02*
G01*
X103024450Y-116196556D01*
X103042869Y-116196556D01*
X103065149Y-116198750D01*
X103149233Y-116215476D01*
X103170660Y-116221976D01*
X103249858Y-116254780D01*
X103255303Y-116257691D01*
X103255309Y-116257693D01*
X103264169Y-116262429D01*
X103264173Y-116262432D01*
X103269614Y-116265340D01*
X103340899Y-116312971D01*
X103358204Y-116327172D01*
X103418828Y-116387796D01*
X103433029Y-116405101D01*
X103480660Y-116476386D01*
X103483568Y-116481827D01*
X103483571Y-116481831D01*
X103488307Y-116490691D01*
X103488309Y-116490697D01*
X103491220Y-116496142D01*
X103524024Y-116575340D01*
X103530524Y-116596767D01*
X103547250Y-116680851D01*
X103549444Y-116703131D01*
X103549444Y-116721550D01*
X103550046Y-116733801D01*
X103551852Y-116752139D01*
X103551852Y-117289860D01*
X103550263Y-117305999D01*
X103545855Y-117320528D01*
X103540394Y-117333711D01*
X103535612Y-117357745D01*
X103535611Y-117382249D01*
X103540391Y-117406282D01*
X103549768Y-117428921D01*
X103551000Y-117430765D01*
X103551000Y-118662050D01*
X103544525Y-118674164D01*
X103537412Y-118697613D01*
X103535010Y-118721999D01*
X103537412Y-118746385D01*
X103544525Y-118769834D01*
X103546848Y-118774746D01*
X103550263Y-118786001D01*
X103551852Y-118802140D01*
X103551852Y-119339861D01*
X103550046Y-119358199D01*
X103549444Y-119370450D01*
X103549444Y-119388869D01*
X103547250Y-119411149D01*
X103530524Y-119495233D01*
X103524024Y-119516660D01*
X103491220Y-119595858D01*
X103488309Y-119601303D01*
X103488307Y-119601309D01*
X103483571Y-119610169D01*
X103483568Y-119610173D01*
X103480660Y-119615614D01*
X103433029Y-119686899D01*
X103418828Y-119704204D01*
X103358204Y-119764828D01*
X103340899Y-119779029D01*
X103269614Y-119826660D01*
X103264173Y-119829568D01*
X103264169Y-119829571D01*
X103255309Y-119834307D01*
X103255303Y-119834309D01*
X103249858Y-119837220D01*
X103170660Y-119870024D01*
X103149233Y-119876524D01*
X103065149Y-119893250D01*
X103042869Y-119895444D01*
X103024450Y-119895444D01*
X103012199Y-119896046D01*
X102993862Y-119897852D01*
X102506138Y-119897852D01*
X102487801Y-119896046D01*
X102475550Y-119895444D01*
X102457131Y-119895444D01*
X102434851Y-119893250D01*
X102350767Y-119876524D01*
X102329340Y-119870024D01*
X102250142Y-119837220D01*
X102244697Y-119834309D01*
X102244691Y-119834307D01*
X102235831Y-119829571D01*
X102235827Y-119829568D01*
X102230386Y-119826660D01*
X102159101Y-119779029D01*
X102141796Y-119764828D01*
X102081172Y-119704204D01*
X102066971Y-119686899D01*
X102019340Y-119615614D01*
X102016432Y-119610173D01*
X102016429Y-119610169D01*
X102011693Y-119601309D01*
X102011691Y-119601303D01*
X102008780Y-119595858D01*
X101975976Y-119516660D01*
X101969476Y-119495233D01*
X101952750Y-119411149D01*
X101950556Y-119388869D01*
X101950556Y-119370450D01*
X101949954Y-119358199D01*
X101948148Y-119339862D01*
X101948148Y-118802140D01*
X101949737Y-118786001D01*
X101954145Y-118771472D01*
X101959606Y-118758289D01*
X101964388Y-118734255D01*
X101964389Y-118709751D01*
X101959609Y-118685718D01*
X101950232Y-118663079D01*
X101949000Y-118661235D01*
X101949000Y-117429950D01*
X101955475Y-117417836D01*
X101962588Y-117394387D01*
X101964990Y-117370001D01*
X101962588Y-117345615D01*
X101955475Y-117322166D01*
X101953152Y-117317254D01*
X101949737Y-117305999D01*
X101948148Y-117289860D01*
X101948148Y-116752139D01*
X101949954Y-116733801D01*
X101950556Y-116721550D01*
X101950556Y-116703131D01*
X101952750Y-116680851D01*
X101969476Y-116596767D01*
X101975976Y-116575340D01*
X102008780Y-116496142D01*
X102011691Y-116490697D01*
X102011693Y-116490691D01*
X102016429Y-116481831D01*
X102016432Y-116481827D01*
X102019340Y-116476386D01*
X102066971Y-116405101D01*
X102081172Y-116387796D01*
X102141796Y-116327172D01*
X102159101Y-116312971D01*
X102230386Y-116265340D01*
X102235827Y-116262432D01*
X102235831Y-116262429D01*
X102244691Y-116257693D01*
X102244697Y-116257691D01*
X102250142Y-116254780D01*
X102329340Y-116221976D01*
X102350767Y-116215476D01*
X102434851Y-116198750D01*
X102457131Y-116196556D01*
X102475550Y-116196556D01*
X102487801Y-116195954D01*
X102506139Y-116194148D01*
X102993861Y-116194148D01*
X103012199Y-116195954D01*
G37*
G36*
X104326199Y-111549954D02*
G01*
X104338450Y-111550556D01*
X104356869Y-111550556D01*
X104379149Y-111552750D01*
X104463233Y-111569476D01*
X104484660Y-111575976D01*
X104563858Y-111608780D01*
X104569303Y-111611691D01*
X104569309Y-111611693D01*
X104578169Y-111616429D01*
X104578173Y-111616432D01*
X104583614Y-111619340D01*
X104654899Y-111666971D01*
X104672204Y-111681172D01*
X104732828Y-111741796D01*
X104747029Y-111759101D01*
X104794660Y-111830386D01*
X104797568Y-111835827D01*
X104797571Y-111835831D01*
X104802307Y-111844691D01*
X104802309Y-111844697D01*
X104805220Y-111850142D01*
X104838024Y-111929340D01*
X104844524Y-111950767D01*
X104861250Y-112034851D01*
X104863444Y-112057131D01*
X104863444Y-112075550D01*
X104864046Y-112087801D01*
X104865852Y-112106139D01*
X104865852Y-112643860D01*
X104864263Y-112659999D01*
X104859855Y-112674528D01*
X104854394Y-112687711D01*
X104849612Y-112711745D01*
X104849611Y-112736249D01*
X104854391Y-112760282D01*
X104863768Y-112782921D01*
X104865000Y-112784765D01*
X104865000Y-114016050D01*
X104858525Y-114028164D01*
X104851412Y-114051613D01*
X104849010Y-114075999D01*
X104851412Y-114100385D01*
X104858525Y-114123834D01*
X104860848Y-114128746D01*
X104864263Y-114140001D01*
X104865852Y-114156140D01*
X104865852Y-114693862D01*
X104864046Y-114712199D01*
X104863444Y-114724450D01*
X104863444Y-114742869D01*
X104861250Y-114765149D01*
X104844524Y-114849233D01*
X104838024Y-114870660D01*
X104805220Y-114949858D01*
X104802309Y-114955303D01*
X104802307Y-114955309D01*
X104797571Y-114964169D01*
X104797568Y-114964173D01*
X104794660Y-114969614D01*
X104747029Y-115040899D01*
X104732828Y-115058204D01*
X104672204Y-115118828D01*
X104654899Y-115133029D01*
X104583614Y-115180660D01*
X104578173Y-115183568D01*
X104578169Y-115183571D01*
X104569309Y-115188307D01*
X104569303Y-115188309D01*
X104563858Y-115191220D01*
X104484660Y-115224024D01*
X104463233Y-115230524D01*
X104379149Y-115247250D01*
X104356869Y-115249444D01*
X104338450Y-115249444D01*
X104326199Y-115250046D01*
X104307862Y-115251852D01*
X103820138Y-115251852D01*
X103801801Y-115250046D01*
X103789550Y-115249444D01*
X103771131Y-115249444D01*
X103748851Y-115247250D01*
X103664767Y-115230524D01*
X103643340Y-115224024D01*
X103564142Y-115191220D01*
X103558697Y-115188309D01*
X103558691Y-115188307D01*
X103549831Y-115183571D01*
X103549827Y-115183568D01*
X103544386Y-115180660D01*
X103473101Y-115133029D01*
X103455796Y-115118828D01*
X103395172Y-115058204D01*
X103380971Y-115040899D01*
X103333340Y-114969614D01*
X103330432Y-114964173D01*
X103330429Y-114964169D01*
X103325693Y-114955309D01*
X103325691Y-114955303D01*
X103322780Y-114949858D01*
X103289976Y-114870660D01*
X103283476Y-114849233D01*
X103266750Y-114765149D01*
X103264556Y-114742869D01*
X103264556Y-114724450D01*
X103263954Y-114712199D01*
X103262148Y-114693862D01*
X103262148Y-114156140D01*
X103263737Y-114140001D01*
X103268145Y-114125472D01*
X103273606Y-114112289D01*
X103278388Y-114088255D01*
X103278389Y-114063751D01*
X103273609Y-114039718D01*
X103264232Y-114017079D01*
X103263000Y-114015235D01*
X103263000Y-112783950D01*
X103269475Y-112771836D01*
X103276588Y-112748387D01*
X103278990Y-112724001D01*
X103276588Y-112699615D01*
X103269475Y-112676166D01*
X103267152Y-112671254D01*
X103263737Y-112659999D01*
X103262148Y-112643860D01*
X103262148Y-112106139D01*
X103263954Y-112087801D01*
X103264556Y-112075550D01*
X103264556Y-112057131D01*
X103266750Y-112034851D01*
X103283476Y-111950767D01*
X103289976Y-111929340D01*
X103322780Y-111850142D01*
X103325691Y-111844697D01*
X103325693Y-111844691D01*
X103330429Y-111835831D01*
X103330432Y-111835827D01*
X103333340Y-111830386D01*
X103380971Y-111759101D01*
X103395172Y-111741796D01*
X103455796Y-111681172D01*
X103473101Y-111666971D01*
X103544386Y-111619340D01*
X103549827Y-111616432D01*
X103549831Y-111616429D01*
X103558691Y-111611693D01*
X103558697Y-111611691D01*
X103564142Y-111608780D01*
X103643340Y-111575976D01*
X103664767Y-111569476D01*
X103748851Y-111552750D01*
X103771131Y-111550556D01*
X103789550Y-111550556D01*
X103801801Y-111549954D01*
X103820139Y-111548148D01*
X104307861Y-111548148D01*
X104326199Y-111549954D01*
G37*
G36*
X101710199Y-111549954D02*
G01*
X101722450Y-111550556D01*
X101740869Y-111550556D01*
X101763149Y-111552750D01*
X101847233Y-111569476D01*
X101868660Y-111575976D01*
X101947858Y-111608780D01*
X101953303Y-111611691D01*
X101953309Y-111611693D01*
X101962169Y-111616429D01*
X101962173Y-111616432D01*
X101967614Y-111619340D01*
X102038899Y-111666971D01*
X102056204Y-111681172D01*
X102116828Y-111741796D01*
X102131029Y-111759101D01*
X102178660Y-111830386D01*
X102181568Y-111835827D01*
X102181571Y-111835831D01*
X102186307Y-111844691D01*
X102186309Y-111844697D01*
X102189220Y-111850142D01*
X102222024Y-111929340D01*
X102228524Y-111950767D01*
X102245250Y-112034851D01*
X102247444Y-112057131D01*
X102247444Y-112075550D01*
X102248046Y-112087801D01*
X102249852Y-112106139D01*
X102249852Y-112643860D01*
X102248263Y-112659999D01*
X102243855Y-112674528D01*
X102238394Y-112687711D01*
X102233612Y-112711745D01*
X102233611Y-112736249D01*
X102238391Y-112760282D01*
X102247768Y-112782921D01*
X102249000Y-112784765D01*
X102249000Y-114016050D01*
X102242525Y-114028164D01*
X102235412Y-114051613D01*
X102233010Y-114075999D01*
X102235412Y-114100385D01*
X102242525Y-114123834D01*
X102244848Y-114128746D01*
X102248263Y-114140001D01*
X102249852Y-114156140D01*
X102249852Y-114693861D01*
X102248046Y-114712199D01*
X102247444Y-114724450D01*
X102247444Y-114742869D01*
X102245250Y-114765149D01*
X102228524Y-114849233D01*
X102222024Y-114870660D01*
X102189220Y-114949858D01*
X102186309Y-114955303D01*
X102186307Y-114955309D01*
X102181571Y-114964169D01*
X102181568Y-114964173D01*
X102178660Y-114969614D01*
X102131029Y-115040899D01*
X102116828Y-115058204D01*
X102056204Y-115118828D01*
X102038899Y-115133029D01*
X101967614Y-115180660D01*
X101962173Y-115183568D01*
X101962169Y-115183571D01*
X101953309Y-115188307D01*
X101953303Y-115188309D01*
X101947858Y-115191220D01*
X101868660Y-115224024D01*
X101847233Y-115230524D01*
X101763149Y-115247250D01*
X101740869Y-115249444D01*
X101722450Y-115249444D01*
X101710199Y-115250046D01*
X101691862Y-115251852D01*
X101204138Y-115251852D01*
X101185801Y-115250046D01*
X101173550Y-115249444D01*
X101155131Y-115249444D01*
X101132851Y-115247250D01*
X101048767Y-115230524D01*
X101027340Y-115224024D01*
X100948142Y-115191220D01*
X100942697Y-115188309D01*
X100942691Y-115188307D01*
X100933831Y-115183571D01*
X100933827Y-115183568D01*
X100928386Y-115180660D01*
X100857101Y-115133029D01*
X100839796Y-115118828D01*
X100779172Y-115058204D01*
X100764971Y-115040899D01*
X100717340Y-114969614D01*
X100714432Y-114964173D01*
X100714429Y-114964169D01*
X100709693Y-114955309D01*
X100709691Y-114955303D01*
X100706780Y-114949858D01*
X100673976Y-114870660D01*
X100667476Y-114849233D01*
X100650750Y-114765149D01*
X100648556Y-114742869D01*
X100648556Y-114724450D01*
X100647954Y-114712199D01*
X100646148Y-114693862D01*
X100646148Y-114156140D01*
X100647737Y-114140001D01*
X100652145Y-114125472D01*
X100657606Y-114112289D01*
X100662388Y-114088255D01*
X100662389Y-114063751D01*
X100657609Y-114039718D01*
X100648232Y-114017079D01*
X100647000Y-114015235D01*
X100647000Y-112783950D01*
X100653475Y-112771836D01*
X100660588Y-112748387D01*
X100662990Y-112724001D01*
X100660588Y-112699615D01*
X100653475Y-112676166D01*
X100651152Y-112671254D01*
X100647737Y-112659999D01*
X100646148Y-112643860D01*
X100646148Y-112106139D01*
X100647954Y-112087801D01*
X100648556Y-112075550D01*
X100648556Y-112057131D01*
X100650750Y-112034851D01*
X100667476Y-111950767D01*
X100673976Y-111929340D01*
X100706780Y-111850142D01*
X100709691Y-111844697D01*
X100709693Y-111844691D01*
X100714429Y-111835831D01*
X100714432Y-111835827D01*
X100717340Y-111830386D01*
X100764971Y-111759101D01*
X100779172Y-111741796D01*
X100839796Y-111681172D01*
X100857101Y-111666971D01*
X100928386Y-111619340D01*
X100933827Y-111616432D01*
X100933831Y-111616429D01*
X100942691Y-111611693D01*
X100942697Y-111611691D01*
X100948142Y-111608780D01*
X101027340Y-111575976D01*
X101048767Y-111569476D01*
X101132851Y-111552750D01*
X101155131Y-111550556D01*
X101173550Y-111550556D01*
X101185801Y-111549954D01*
X101204139Y-111548148D01*
X101691861Y-111548148D01*
X101710199Y-111549954D01*
G37*
M02*
